<?xml version="1.0" encoding="UTF-8" standalone="no"?>
<!-- Created with Inkscape (http://www.inkscape.org/) -->

<svg
   xmlns:dc="http://purl.org/dc/elements/1.1/"
   xmlns:cc="http://creativecommons.org/ns#"
   xmlns:rdf="http://www.w3.org/1999/02/22-rdf-syntax-ns#"
   xmlns:svg="http://www.w3.org/2000/svg"
   xmlns="http://www.w3.org/2000/svg"
   xmlns:sodipodi="http://sodipodi.sourceforge.net/DTD/sodipodi-0.dtd"
   xmlns:inkscape="http://www.inkscape.org/namespaces/inkscape"
   width="115"
   height="115"
   id="svg2"
   version="1.1"
   inkscape:version="0.47 r22583"
   sodipodi:docname="Extension.svg"
   inkscape:export-filename="/home/dmpop/Desktop/Extension.png"
   inkscape:export-xdpi="96.260872"
   inkscape:export-ydpi="96.260872">
  <defs
     id="defs4">
    <inkscape:perspective
       sodipodi:type="inkscape:persp3d"
       inkscape:vp_x="0 : 526.18109 : 1"
       inkscape:vp_y="0 : 1000 : 0"
       inkscape:vp_z="744.09448 : 526.18109 : 1"
       inkscape:persp3d-origin="372.04724 : 350.78739 : 1"
       id="perspective10" />
    <inkscape:perspective
       id="perspective2902"
       inkscape:persp3d-origin="0.5 : 0.33333333 : 1"
       inkscape:vp_z="1 : 0.5 : 1"
       inkscape:vp_y="0 : 1000 : 0"
       inkscape:vp_x="0 : 0.5 : 1"
       sodipodi:type="inkscape:persp3d" />
    <inkscape:perspective
       id="perspective2827"
       inkscape:persp3d-origin="0.5 : 0.33333333 : 1"
       inkscape:vp_z="1 : 0.5 : 1"
       inkscape:vp_y="0 : 1000 : 0"
       inkscape:vp_x="0 : 0.5 : 1"
       sodipodi:type="inkscape:persp3d" />
  </defs>
  <sodipodi:namedview
     id="base"
     pagecolor="#ffffff"
     bordercolor="#666666"
     borderopacity="1.0"
     inkscape:pageopacity="0.0"
     inkscape:pageshadow="2"
     inkscape:zoom="3.959798"
     inkscape:cx="57.702776"
     inkscape:cy="53.093576"
     inkscape:document-units="px"
     inkscape:current-layer="layer1"
     showgrid="false"
     inkscape:window-width="1054"
     inkscape:window-height="842"
     inkscape:window-x="171"
     inkscape:window-y="52"
     inkscape:window-maximized="0" />
  <metadata
     id="metadata7">
    <rdf:RDF>
      <cc:Work
         rdf:about="">
        <dc:format>image/svg+xml</dc:format>
        <dc:type
           rdf:resource="http://purl.org/dc/dcmitype/StillImage" />
        <dc:title></dc:title>
      </cc:Work>
    </rdf:RDF>
  </metadata>
  <g
     inkscape:label="Layer 1"
     inkscape:groupmode="layer"
     id="layer1"
     transform="translate(-297.45696,-445.96339)">
    <path
       style="fill:#e390ff;stroke:none;stroke-width:1px;stroke-linecap:butt;stroke-linejoin:miter;stroke-opacity:1;fill-opacity:1"
       d="m 7.5,91.785714 0,-66.428571 4.642857,-1.428572 63.214286,-4.285714 2.857143,22.857143 12.5,0.357143 L 92.142857,32.5 l 5,-3.214286 L 105,33.571428 108.57143,49.285714 107.5,65.714286 101.07143,77.142857 95,76.785714 89.642857,62.5 l -10,0 L 78.928572,89.642857 57.857143,93.928571 56.785714,80.357143 65.714286,71.428571 61.071429,60 47.857143,57.857143 35,59.642857 26.785714,65.714286 28.214286,76.428571 38.571429,80 l 1.071428,11.785714 -32.142857,0 z"
       id="path2931"
       transform="translate(297.45696,445.96339)" />
    <path
       style="fill:#f7e1ff;stroke:none;stroke-width:1px;stroke-linecap:butt;stroke-linejoin:miter;stroke-opacity:1;fill-opacity:1;opacity:0.29"
       d="M 7.5761441,55.401 9.0913729,92.524106 40.65864,92.271568 39.395949,80.149737 l -12.12183,-5.050763 0.505076,-10.101525 9.848987,-6.313453 18.687822,-0.505077 8.838835,7.576144 -3.030457,9.848988 -4.798225,5.555839 0,13.637059 20.455589,-2.525381 1.515229,-28.789348 6.313453,-2.272843 6.565992,3.030458 2.020305,12.879445 7.323605,-0.505077 6.81853,-16.920055 -1.01015,-6.565991 c 0,0 -27.971947,-4.945922 -56.309967,-4.531829 C 22.675909,49.010491 7.5761441,55.401 7.5761441,55.401 z"
       id="path3616"
       transform="translate(297.45696,445.96339)"
       sodipodi:nodetypes="cccccccccccccccccccczc" />
    <path
       style="fill:#000000"
       d="m 352.54977,542.28777 c -1.06812,-7.46127 -1.04434,-16.89398 3.13326,-21.50817 4.17759,-4.6142 4.74674,-5.72 3.74522,-8.25494 -1.56714,-3.96658 -6.23241,-5.802 -15.06948,-5.94032 -11.25571,-0.17619 -18.20615,3.85586 -18.20615,10.56165 0,3.00147 2.69379,4.33345 8.76391,4.33345 0,0 2.72528,-0.13138 3.42158,1.42857 2.15682,4.83202 1.61851,11.19854 1.83848,16.6807 -0.41444,1.82154 -1.65856,1.95568 -17.77834,1.91688 -12.49122,-0.0301 -17.53032,-0.39771 -18.04012,-1.31617 -0.38907,-0.70094 -0.81482,-12.21128 -0.94612,-25.57852 -0.13131,-13.36725 -0.57564,-28.57605 -0.98741,-33.79735 -2.60568,-16.34856 8.41337,-14.14652 21.91484,-14.23484 10.22733,-0.036 20.09413,-0.2974 21.92622,-0.58082 4.24948,-0.6574 10.69596,-1.38671 19.42019,-2.19706 16.05959,-2.71316 8.63935,15.71959 11.55535,22.08979 0.87114,1.90304 5.30501,1.15284 7.57161,0.82916 1.92367,-10.28309 6.67444,-19.70313 16.52255,-10.75285 6.54191,5.9455 7.84772,17.66549 5.773,31.35884 -1.83185,12.09048 -5.3435,19.4895 -13.58513,18.2019 -8.24162,-1.2876 -1.69969,-18.84509 -13.42172,-14.29636 -2.86998,1.1137 0.31146,18.89997 -2.47784,28.24248 -0.7,1.5033 -2.59115,1.94592 -10.30488,2.41184 -5.19616,0.31385 -8.38168,0.51569 -10.33067,0.704 -1.94898,0.1883 -4.0043,0.61946 -4.43826,-0.30186 l -9e-5,0 z m -17.20338,-10.10391 c 0,-4.07824 -0.0116,-4.09087 -4.24541,-4.63937 -5.93468,-0.76883 -9.08556,-4.50274 -9.08556,-10.76673 0,-9.80696 7.70007,-15.68867 21.14568,-16.15214 13.88062,-0.47847 19.61502,3.26664 21.17077,13.28247 0.28932,1.8626 0.49781,4.71425 -3.7894,9.30302 -3.72832,3.99055 -4.39781,5.29803 -4.32038,8.43749 0.0504,2.04334 0.30347,3.95865 0.56239,4.25624 0.25893,0.2976 4.18334,0.20729 8.72092,-0.20071 l 8.25015,-0.74179 0.55192,-3.83553 c 0.30356,-2.10953 0.55647,-8.13893 0.56203,-13.39865 0.006,-6.0144 -0.99544,-9.99953 1.11338,-10.83117 2.10882,-0.83164 10.9647,-1.90199 14.19554,0.60696 3.05397,3.73285 0.0477,10.17053 4.6182,12.91879 4.52639,0 7.5532,-6.79134 8.34044,-18.71368 0.58825,-8.9088 -0.84303,-16.02411 -4.12513,-20.50727 -3.90555,-5.33477 -8.50289,-3.26854 -8.50289,3.82153 0,5.9371 -1.04598,6.62438 -9.85592,6.47608 0,0 -4.65803,0.40182 -6.82194,-1.74302 -2.16391,-2.14485 -1.51211,-8.59706 -1.51211,-8.59706 -0.18142,-7.06331 -0.65125,-10.57542 -1.52641,-11.41021 -0.95041,-0.90659 -5.10817,-0.80349 -16.74638,0.41525 -8.51513,0.89169 -22.40469,1.65983 -30.86568,1.70697 -8.46099,0.0471 -14.7868,0.0926 -15.71483,1.58201 -0.92803,1.48945 -0.26296,13.93515 0.0387,30.88425 0,0 -0.86902,30.56209 0.90562,31.08441 1.13201,1.60541 16.15313,1.41338 24.22943,1.15846 2.35684,0.21299 2.70686,-0.58451 2.70686,-4.3966 l 10e-6,0 z"
       id="path2908"
       sodipodi:nodetypes="czssscscsssccscscsszscszcccssssssscccszccsssczcssszccccc" />
  </g>
</svg>
