<?xml version="1.0" encoding="UTF-8" standalone="no"?>
<!-- Created with Inkscape (http://www.inkscape.org/) -->
<svg
   xmlns:dc="http://purl.org/dc/elements/1.1/"
   xmlns:cc="http://web.resource.org/cc/"
   xmlns:rdf="http://www.w3.org/1999/02/22-rdf-syntax-ns#"
   xmlns:svg="http://www.w3.org/2000/svg"
   xmlns="http://www.w3.org/2000/svg"
   xmlns:sodipodi="http://sodipodi.sourceforge.net/DTD/sodipodi-0.dtd"
   xmlns:inkscape="http://www.inkscape.org/namespaces/inkscape"
   width="465"
   height="195"
   id="svg2"
   sodipodi:version="0.32"
   inkscape:version="0.45.1"
   sodipodi:docbase="/home/dmpop/Documents/WriterTools"
   sodipodi:docname="writertools_logo.svg"
   inkscape:output_extension="org.inkscape.output.svg.inkscape"
   inkscape:export-filename="/home/dmpop/Desktop/writertools.png"
   inkscape:export-xdpi="299.96191"
   inkscape:export-ydpi="299.96191"
   version="1.0">
  <defs
     id="defs4" />
  <sodipodi:namedview
     id="base"
     pagecolor="#ffffff"
     bordercolor="#666666"
     borderopacity="1.0"
     gridtolerance="10000"
     guidetolerance="10"
     objecttolerance="10"
     inkscape:pageopacity="0.0"
     inkscape:pageshadow="2"
     inkscape:zoom="1.979899"
     inkscape:cx="204.33046"
     inkscape:cy="63.674118"
     inkscape:document-units="px"
     inkscape:current-layer="layer1"
     showguides="true"
     inkscape:guide-bbox="true"
     inkscape:window-width="1280"
     inkscape:window-height="748"
     inkscape:window-x="0"
     inkscape:window-y="0"
     width="465px"
     height="195px"
     showborder="true"
     borderlayer="true"
     inkscape:showpageshadow="false" />
  <metadata
     id="metadata7">
    <rdf:RDF>
      <cc:Work
         rdf:about="">
        <dc:format>image/svg+xml</dc:format>
        <dc:type
           rdf:resource="http://purl.org/dc/dcmitype/StillImage" />
      </cc:Work>
    </rdf:RDF>
  </metadata>
  <g
     inkscape:label="Layer 1"
     inkscape:groupmode="layer"
     id="layer1">
    <flowRoot
       xml:space="preserve"
       id="flowRoot2160"
       transform="translate(20,0)"><flowRegion
         id="flowRegion2162"><rect
           id="rect2164"
           width="187.88835"
           height="46.467026"
           x="113.13708"
           y="213.93558" /></flowRegion><flowPara
         id="flowPara2166"
         style="font-size:64px;font-style:normal;font-variant:normal;font-weight:normal;font-stretch:normal;text-align:start;line-height:125%;writing-mode:lr-tb;text-anchor:start;font-family:Familian Elder">NO THICK MANUALS</flowPara></flowRoot>    <text
       xml:space="preserve"
       style="font-size:57px;font-style:normal;font-variant:normal;font-weight:bold;font-stretch:normal;text-align:start;line-height:125%;writing-mode:lr-tb;text-anchor:start;fill:#86b6a1;fill-opacity:1;stroke:none;stroke-width:1px;stroke-linecap:butt;stroke-linejoin:miter;stroke-opacity:1;font-family:COM4t Sans"
       x="117.39817"
       y="125.96748"
       id="text2168"
       sodipodi:linespacing="125%"><tspan
         sodipodi:role="line"
         id="tspan2170"
         x="117.39817"
         y="125.96748"
         style="font-size:57px;font-style:normal;font-variant:normal;font-weight:normal;font-stretch:normal;text-align:start;line-height:125%;writing-mode:lr-tb;text-anchor:start;fill:#86b6a1;fill-opacity:1;font-family:Yanone Kaffeesatz"><tspan
           style="fill:#800080"
           id="tspan2171">Writer's</tspan><tspan
           style="fill:#d45500"
           id="tspan2177"> Tools</tspan></tspan></text>
    <text
       xml:space="preserve"
       style="font-size:10.53541374px;font-style:normal;font-weight:normal;line-height:125%;fill:#b3b3b3;fill-opacity:1;stroke:none;stroke-width:1px;stroke-linecap:butt;stroke-linejoin:miter;stroke-opacity:1;font-family:Bitstream Vera Sans"
       x="126.75157"
       y="146.89796"
       id="text3222"
       sodipodi:linespacing="125%"><tspan
         sodipodi:role="line"
         id="tspan3224"
         x="126.75157"
         y="146.89796"
         style="font-size:18.43697548px;font-style:normal;font-variant:normal;font-weight:normal;font-stretch:normal;text-align:start;line-height:125%;writing-mode:lr-tb;text-anchor:start;fill:#b3b3b3;fill-opacity:1;font-family:COM4t Sans Medium">writertools.googlecode.com</tspan></text>
    <g
       id="g2252"
       inkscape:label="Layer 1"
       transform="matrix(0.1362257,0,0,0.1362257,163.98893,-0.435362)"
       style="fill:#cccccc">
      <path
         id="path2221"
         d="M 489.71424,575.0414 C 487.55894,574.4441 477.99844,562.99433 474.15744,556.41048 C 473.16254,554.70514 472.87054,554.7553 469.17534,557.26627 C 467.01644,558.73329 464.60654,559.93358 463.82004,559.93358 C 457.59494,559.93358 403.79304,519.4799 391.21424,505.34122 C 379.00574,491.61874 361.63294,473.30393 340.40624,451.77823 C 328.41184,439.61487 315.81184,426.06167 312.40624,421.66 C 309.00064,417.25833 305.48074,412.74412 304.58414,411.62842 L 302.95394,409.59988 L 300.19924,411.76673 C 298.68414,412.9585 296.67504,413.93358 295.73444,413.93358 C 293.61814,413.93358 290.71424,410.8512 290.71424,408.60484 C 290.71424,407.602 289.91694,406.93358 288.72054,406.93358 C 287.50894,406.93358 285.55814,405.26628 283.74764,402.68358 C 279.25834,396.27915 271.29214,385.50016 270.62954,384.93358 C 270.30804,384.65858 267.68344,380.94975 264.79724,376.69173 C 261.91104,372.4337 259.12344,368.68646 258.60254,368.36452 C 257.36184,367.59772 245.45704,349.73318 238.98994,338.93358 C 226.03864,317.30559 222.05824,302.22918 223.81194,281.4442 C 224.82194,269.47421 225.92624,265.98713 230.98404,258.79621 L 234.94914,253.15884 L 230.95554,247.79621 C 228.75894,244.84676 226.47924,241.49383 225.88944,240.34525 C 223.60894,235.90458 227.49634,229.64 233.57364,227.96198 C 237.84804,226.78174 238.26114,227.08512 243.83014,235.49447 C 246.17544,239.03598 248.12134,241.92871 248.15434,241.92276 C 248.18734,241.9168 250.42334,241.2418 253.12324,240.42276 C 265.23444,236.74868 281.92434,239.44408 300.61104,248.09198 C 307.73314,251.38795 309.25124,251.7782 310.61104,250.6626 C 317.66394,244.8764 329.49554,244.13951 339.83014,248.84281 C 350.50474,253.70088 366.77854,272.15274 375.18854,288.93358 C 376.70454,291.95858 380.09004,297.60297 382.71184,301.47666 C 385.33354,305.35035 388.73704,310.97535 390.27514,313.97666 C 394.87944,322.96152 410.23884,344.26226 418.26634,352.79554 C 422.39684,357.18627 429.76924,363.75169 434.64954,367.38538 C 439.52984,371.01906 443.80174,374.71899 444.14264,375.60744 C 445.07484,378.03684 438.82744,384.86644 435.63174,384.91134 C 433.27864,384.94441 415.51584,370.82308 408.40954,363.26991 C 405.00214,359.64822 399.68514,353.38736 396.59394,349.35687 L 390.97354,342.02871 L 388.86204,344.27626 L 386.75064,346.52382 L 389.63014,348.22478 C 399.62484,354.12883 445.02104,418.25159 458.45694,445.44352 C 460.08474,448.73805 464.03204,456.15858 467.22854,461.93358 C 476.84764,479.31195 491.68834,508.81894 494.30154,515.76172 C 495.65014,519.34453 497.28704,522.91872 497.93904,523.70437 C 499.93704,526.11184 498.87904,531.1684 495.68844,534.4602 C 492.24204,538.01608 491.69824,536.72371 502.86184,551.50931 C 506.63064,556.50096 509.71424,561.23834 509.71424,562.03681 C 509.71424,564.44578 506.86504,567.75915 501.18524,571.95502 C 495.78524,575.94425 494.35794,576.32829 489.71424,575.0414 z M 472.21424,538.03838 C 474.41424,535.92353 477.69684,532.63019 479.50884,530.71986 L 482.80334,527.24652 L 480.73724,521.72439 C 477.96164,514.30596 462.24554,483.37201 456.24024,473.50706 C 453.58644,469.14747 449.09854,461.04747 446.26734,455.50706 C 439.06324,441.40924 432.70974,430.90484 420.35184,412.66041 C 403.05414,387.12303 386.88154,365.75917 380.46424,359.96934 C 378.95174,358.60472 377.70744,357.02592 377.69894,356.4609 C 377.69054,355.89587 377.29024,354.81236 376.80934,354.05308 C 375.64584,352.21616 362.50274,361.19415 346.21424,374.95228 C 339.61424,380.52703 331.73924,386.81479 328.71424,388.92509 C 325.68924,391.03539 321.74494,394.0381 319.94914,395.59779 L 316.68394,398.43358 L 320.44914,402.47633 C 322.51994,404.69984 325.40274,408.29984 326.85534,410.47633 C 329.74944,414.8127 346.72964,433.03338 364.71424,451.10101 C 380.21074,466.66894 390.08934,477.12463 396.83084,485.09365 C 402.61904,491.93575 415.42894,504.31045 424.21734,511.54974 C 433.99724,519.60577 465.23944,541.91935 466.71424,541.90161 C 467.53924,541.89169 470.01424,540.15324 472.21424,538.03838 z M 404.07164,484.68358 C 399.98334,481.64899 372.17214,451.09494 354.85894,430.61754 C 343.65214,417.3625 342.84314,413.44525 350.89504,411.42436 C 354.37514,410.55089 357.62934,413.5512 380.73204,438.93358 C 403.07734,463.48381 414.54264,476.76847 416.00264,479.80108 C 416.99954,481.87183 416.79524,482.46722 414.37254,484.55108 C 410.90824,487.53095 407.95874,487.56889 404.07164,484.68358 z M 306.10644,390.59096 C 308.91574,388.20252 314.58924,383.84876 318.71424,380.91595 C 322.83924,377.98313 330.65054,371.94981 336.07274,367.50857 C 349.04864,356.88004 354.79024,352.628 365.67534,345.58561 C 370.64674,342.36923 374.71424,339.51299 374.71424,339.23841 C 374.71424,338.66288 361.38724,324.69825 357.82994,321.54627 C 353.87564,318.04257 343.07624,306.87337 336.44944,299.43358 C 327.01104,288.83738 312.75494,274.93358 311.32854,274.93358 C 310.63244,274.93358 308.97194,273.76768 307.63864,272.34268 C 301.55254,265.83841 288.49014,258.92509 275.03734,255.08835 C 266.84984,252.75327 256.81134,251.99327 253.38584,253.44917 C 250.38464,254.72481 243.58174,262.49001 240.70514,267.92377 C 238.67364,271.76122 238.27444,288.25006 240.01484,296.43655 C 243.81874,314.32906 257.31214,338.63611 279.70444,367.93358 C 287.48124,378.10858 295.05244,388.34528 296.52924,390.68179 C 298.00604,393.01831 299.61574,394.93081 300.10644,394.93179 C 300.59714,394.93278 303.29714,392.9794 306.10644,390.59096 z M 286.21304,363.68358 C 284.77594,362.44608 281.71334,358.68107 279.40724,355.3169 C 277.10114,351.95273 272.40694,345.11513 268.97574,340.12223 C 261.55544,329.32479 251.71424,310.11221 251.71424,306.4234 C 251.71424,302.00532 253.43184,299.93358 257.09444,299.93358 C 261.14324,299.93358 262.08924,300.99326 268.09894,312.2597 C 270.68824,317.11406 274.40984,323.36638 276.36904,326.15373 C 283.20444,335.87859 296.71424,358.41744 296.71424,360.09636 C 296.71424,361.94968 292.22404,365.93358 290.13524,365.93358 C 289.41504,365.93358 287.65004,364.92108 286.21304,363.68358 z M 376.01094,318.18358 C 375.65864,317.22108 373.71464,313.95858 371.69104,310.93358 C 369.66734,307.90858 366.06034,301.83358 363.67544,297.43358 C 353.53234,278.72042 342.06074,264.70014 333.19084,260.17618 C 328.12484,257.59233 320.22614,256.29644 319.24254,257.88778 C 318.81614,258.57779 323.26314,263.68801 330.42124,270.7336 C 345.16344,285.24401 358.72094,299.55571 365.18714,307.43358 C 370.33014,313.6994 375.91194,319.93358 376.37904,319.93358 C 376.52894,319.93358 376.36324,319.14608 376.01094,318.18358 z "
         style="fill:#cccccc" />
    </g>
  </g>
</svg>
