<?xml version="1.0" encoding="UTF-8" standalone="no"?>
<!-- Created with Inkscape (http://www.inkscape.org/) -->
<svg
   xmlns:dc="http://purl.org/dc/elements/1.1/"
   xmlns:cc="http://creativecommons.org/ns#"
   xmlns:rdf="http://www.w3.org/1999/02/22-rdf-syntax-ns#"
   xmlns:svg="http://www.w3.org/2000/svg"
   xmlns="http://www.w3.org/2000/svg"
   xmlns:xlink="http://www.w3.org/1999/xlink"
   xmlns:sodipodi="http://sodipodi.sourceforge.net/DTD/sodipodi-0.dtd"
   xmlns:inkscape="http://www.inkscape.org/namespaces/inkscape"
   width="400"
   height="130"
   id="svg2"
   sodipodi:version="0.32"
   inkscape:version="0.46"
   sodipodi:docname="writertools_logo.svg"
   inkscape:output_extension="org.inkscape.output.svg.inkscape"
   inkscape:export-filename="/home/dmpop/Desktop/writertools.png"
   inkscape:export-xdpi="300"
   inkscape:export-ydpi="300"
   version="1.0">
  <defs
     id="defs4">
    <linearGradient
       inkscape:collect="always"
       id="linearGradient3184">
      <stop
         style="stop-color:#ffaf00;stop-opacity:1;"
         offset="0"
         id="stop3186" />
      <stop
         style="stop-color:#ffaf00;stop-opacity:0;"
         offset="1"
         id="stop3188" />
    </linearGradient>
    <inkscape:perspective
       sodipodi:type="inkscape:persp3d"
       inkscape:vp_x="0 : 526.18109 : 1"
       inkscape:vp_y="0 : 1000 : 0"
       inkscape:vp_z="744.09448 : 526.18109 : 1"
       inkscape:persp3d-origin="372.04724 : 350.78739 : 1"
       id="perspective10" />
    <linearGradient
       gradientTransform="translate(0.71428,2.1428573)"
       gradientUnits="userSpaceOnUse"
       y2="538.79077"
       x2="496.96429"
       y1="538.79077"
       x1="404.46429"
       id="linearGradient3263"
       xlink:href="#linearGradient3243"
       inkscape:collect="always" />
    <linearGradient
       gradientTransform="translate(0.8544046,5.1645976)"
       y2="539.34045"
       x2="498.03845"
       y1="539.34045"
       x1="404.53845"
       gradientUnits="userSpaceOnUse"
       id="linearGradient3253"
       xlink:href="#linearGradient4134"
       inkscape:collect="always" />
    <linearGradient
       gradientUnits="userSpaceOnUse"
       y2="515.10657"
       x2="454.4472"
       y1="515.10657"
       x1="382.8222"
       id="linearGradient3249"
       xlink:href="#linearGradient3243"
       inkscape:collect="always" />
    <linearGradient
       y2="539.34045"
       x2="498.03845"
       y1="539.34045"
       x1="404.53845"
       gradientUnits="userSpaceOnUse"
       id="linearGradient3222"
       xlink:href="#linearGradient4134"
       inkscape:collect="always" />
    <linearGradient
       y2="539.34045"
       x2="498.03845"
       y1="539.34045"
       x1="404.53845"
       gradientUnits="userSpaceOnUse"
       id="linearGradient3220"
       xlink:href="#linearGradient4134"
       inkscape:collect="always" />
    <linearGradient
       gradientUnits="userSpaceOnUse"
       y2="539.34045"
       x2="498.03845"
       y1="539.34045"
       x1="404.53845"
       id="linearGradient3193"
       xlink:href="#linearGradient4134"
       inkscape:collect="always" />
    <linearGradient
       y2="444.68362"
       x2="409.07144"
       y1="521.11218"
       x1="299.64288"
       gradientTransform="translate(43.39285,39.464281)"
       gradientUnits="userSpaceOnUse"
       id="linearGradient3164"
       xlink:href="#linearGradient4134"
       inkscape:collect="always" />
    <linearGradient
       id="linearGradient4134">
      <stop
         id="stop4136"
         offset="0"
         style="stop-color:#000000;stop-opacity:1;" />
      <stop
         id="stop4138"
         offset="1"
         style="stop-color:#000000;stop-opacity:0;" />
    </linearGradient>
    <inkscape:perspective
       id="perspective17"
       inkscape:persp3d-origin="372.04724 : 350.78739 : 1"
       inkscape:vp_z="744.09448 : 526.18109 : 1"
       inkscape:vp_y="0 : 1000 : 0"
       inkscape:vp_x="0 : 526.18109 : 1"
       sodipodi:type="inkscape:persp3d" />
    <linearGradient
       id="linearGradient3243"
       inkscape:collect="always">
      <stop
         id="stop3245"
         offset="0"
         style="stop-color:#e7e7f8;stop-opacity:1;" />
      <stop
         id="stop3247"
         offset="1"
         style="stop-color:#e7e7f8;stop-opacity:0;" />
    </linearGradient>
    <linearGradient
       inkscape:collect="always"
       xlink:href="#linearGradient3184"
       id="linearGradient3190"
       x1="189.8866"
       y1="504.88538"
       x2="700.98328"
       y2="504.88538"
       gradientUnits="userSpaceOnUse"
       gradientTransform="matrix(0.7847222,0,0,0.7888919,90.878364,109.69089)" />
  </defs>
  <sodipodi:namedview
     id="base"
     pagecolor="#ffffff"
     bordercolor="#666666"
     borderopacity="1.0"
     gridtolerance="10000"
     guidetolerance="10"
     objecttolerance="10"
     inkscape:pageopacity="0.0"
     inkscape:pageshadow="2"
     inkscape:zoom="1.5938023"
     inkscape:cx="218.15607"
     inkscape:cy="65.442605"
     inkscape:document-units="px"
     inkscape:current-layer="layer1"
     showgrid="false"
     showguides="true"
     inkscape:guide-bbox="true"
     inkscape:window-width="1278"
     inkscape:window-height="823"
     inkscape:window-x="0"
     inkscape:window-y="25" />
  <metadata
     id="metadata7">
    <rdf:RDF>
      <cc:Work
         rdf:about="">
        <dc:format>image/svg+xml</dc:format>
        <dc:type
           rdf:resource="http://purl.org/dc/dcmitype/StillImage" />
      </cc:Work>
    </rdf:RDF>
  </metadata>
  <g
     inkscape:label="Layer 1"
     inkscape:groupmode="layer"
     id="layer1"
     transform="translate(-170.70434,-442.03514)">
    <path
       sodipodi:type="arc"
       style="fill:#ffaf00;fill-opacity:1;stroke:#ff0000;stroke-width:5.8928566;stroke-miterlimit:4;stroke-dasharray:none;stroke-opacity:1"
       id="path2404"
       sodipodi:cx="246.42857"
       sodipodi:cy="537.36218"
       sodipodi:rx="70.714287"
       sodipodi:ry="70.714287"
       d="M 317.14286,537.36218 A 70.714287,70.714287 0 1 1 175.71429,537.36218 A 70.714287,70.714287 0 1 1 317.14286,537.36218 z"
       transform="matrix(0.8484849,0,0,0.8484849,62.959385,51.10117)" />
    <g
       id="g2509"
       inkscape:label="Layer 1"
       transform="matrix(0.4005658,0,0,0.4005658,99.832702,300.95172)">
      <path
         inkscape:export-ydpi="300"
         inkscape:export-xdpi="300"
         inkscape:export-filename="/home/dmpop/Desktop/EeePC/path2269.png"
         id="path4208"
         d="M 188.89853,496.52575 L 189.65614,479.85824 L 196.22213,475.06001 L 211.62696,474.3024 L 225.76909,483.64631 L 240.92138,494.00037 L 243.44676,497.78844 L 243.44676,503.59682 L 240.4163,509.65774 L 234.10285,514.45596 L 225.51655,516.7288 L 216.67772,515.21357 L 205.06097,507.38489 L 188.89853,496.52575 z"
         style="fill:#cccccc;fill-opacity:1;fill-rule:evenodd;stroke:none;stroke-width:1px;stroke-linecap:butt;stroke-linejoin:miter;stroke-opacity:1" />
      <path
         inkscape:export-ydpi="300"
         inkscape:export-xdpi="300"
         inkscape:export-filename="/home/dmpop/Desktop/EeePC/path2269.png"
         sodipodi:nodetypes="cssssssssssssssssssssssssssscccssssscccscccscccssssscsccssc"
         id="path4206"
         d="M 319.63199,558.69182 C 311.02418,558.22617 299.12121,555.82181 286.30574,551.96004 C 280.40229,550.18111 277.75618,548.9178 264.3078,541.45778 C 251.80684,534.52331 230.76198,517.64295 230.76198,514.55025 C 230.76198,514.21975 232.67037,512.6865 235.00284,511.14302 C 237.33532,509.59955 239.66324,507.50749 240.17601,506.49402 C 241.35551,504.16276 241.35404,499.22381 240.1732,497.09975 C 238.88997,494.79151 231.18756,488.9688 225.94819,486.34621 C 223.50427,485.1229 220.44382,483.32559 219.14721,482.35219 C 216.31192,480.22368 215.95032,480.17805 215.95032,481.94877 C 215.95032,483.39586 213.77894,485.76647 212.45346,485.76647 C 211.32225,485.76647 210.76623,483.90844 210.76623,480.12828 C 210.76623,476.40192 209.90929,475.71757 206.13201,476.42737 C 203.7744,476.8704 203.72997,476.95311 203.69115,480.97121 C 203.66037,484.15817 203.29345,485.42197 202.03307,486.68236 C 199.80663,488.9088 198.79465,487.68177 198.56325,482.47518 C 198.46159,480.18755 198.17378,478.11123 197.92368,477.86114 C 197.67358,477.61104 196.21908,477.88212 194.69146,478.46354 C 192.23106,479.39997 191.84485,479.89834 191.30866,482.82871 C 190.97574,484.64814 190.81204,488.37511 190.94487,491.11087 C 191.15403,495.41863 191.47445,496.38566 193.33669,498.32942 C 194.51936,499.56387 197.34183,501.26356 199.60885,502.10652 C 204.31513,503.85649 209.22306,506.58021 212.98798,509.53145 C 217.47219,513.04651 221.21203,514.76295 224.02733,514.59806 C 228.2375,514.35148 229.28082,514.57391 229.28082,515.7181 C 229.28082,517.48233 226.19339,519.09272 222.81102,519.09272 C 219.2658,519.09272 219.13236,519.02841 209.69015,512.76962 C 205.97982,510.31022 201.78803,507.86951 200.37506,507.34582 C 195.33148,505.4765 192.62061,503.86783 189.49631,500.89023 L 186.32698,497.8697 L 186.35751,490.15177 C 186.38296,483.71553 186.65968,481.88841 188.02382,479.14944 C 189.73417,475.71531 190.13616,475.37924 194.65854,473.60258 C 197.1244,472.63385 197.43573,472.22352 197.43573,469.94228 C 197.43573,466.24402 198.09585,465.03013 200.10701,465.03013 C 201.91987,465.03013 202.12629,465.45961 201.91511,468.79216 C 201.73752,471.59474 203.46111,472.67426 207.12502,472.05525 L 210.20028,471.53569 L 209.83943,468.33427 C 209.45562,464.92907 210.1995,463.54896 212.41876,463.54896 C 214.09739,463.54896 214.39729,464.31058 215.05575,470.24586 L 215.58002,474.97151 L 221.40514,478.70268 C 237.66848,489.11983 242.87873,492.93801 244.20491,495.41081 C 247.13999,500.8836 245.10159,508.17532 239.29965,512.95777 L 236.72711,515.07828 L 238.44247,516.90035 C 239.38592,517.90249 241.62634,519.93294 243.42118,521.41246 C 245.21602,522.89197 248.18421,525.3529 250.01715,526.88118 C 259.90718,535.12735 277.45923,545.14306 287.61651,548.33648 C 308.93414,555.03867 313.27173,555.72178 334.6288,555.74024 C 343.05609,555.74752 347.68672,556.01741 347.53053,556.49218 C 347.00266,558.09678 343.43903,559.06289 338.00964,559.07331 C 335.78816,559.51639 333.48762,559.1437 331.32655,559.1116 C 327.41037,559.05343 323.66382,558.96019 319.63199,558.69182 z M 211.50681,496.45181 C 204.63473,491.86181 204.4034,491.62493 205.94859,490.7602 C 207.68084,489.79078 209.56613,490.74849 214.284,494.99447 C 220.68224,500.75274 219.14996,501.55682 211.50681,496.45181 z"
         style="fill:#000000" />
      <path
         inkscape:export-ydpi="300"
         inkscape:export-xdpi="300"
         inkscape:export-filename="/home/dmpop/Desktop/EeePC/path2269.png"
         id="path2166"
         d="M 366.82416,475.41187 L 438.96702,424.69759 L 447.53845,423.62616 L 456.10987,442.55473 L 469.32416,485.41187 L 480.39559,493.9833 L 513.60987,514.34044 L 521.10987,524.69758 L 506.46702,548.9833 L 465.39559,586.84044 L 448.96702,597.55473 L 436.10987,596.12616 L 401.82416,579.34044 L 379.6813,564.34044 L 369.32416,561.4833 L 361.82416,553.26901 L 367.89559,540.41187 L 369.32416,536.84044 L 360.03845,489.69758 L 366.82416,475.41187 z"
         style="fill:#cccccc;fill-rule:evenodd;stroke:none;stroke-width:1px;stroke-linecap:butt;stroke-linejoin:miter;stroke-opacity:1" />
      <path
         inkscape:export-ydpi="300"
         inkscape:export-xdpi="300"
         inkscape:export-filename="/home/dmpop/Desktop/EeePC/path2269.png"
         id="path4143"
         d="M 405.03845,551.84044 L 436.82416,530.05473 L 467.53845,504.34044 L 472.1813,502.55473 L 493.25273,512.55473 L 497.53845,519.69758 L 494.6813,527.91187 L 486.10987,538.62616 L 487.53845,545.41187 L 479.32416,555.76901 L 465.03845,566.4833 L 452.1813,566.12616 L 438.96702,573.9833 L 432.89559,576.12616 L 412.53845,560.05473 L 405.03845,551.84044 z"
         style="fill:#ececec;fill-opacity:1;fill-rule:evenodd;stroke:none;stroke-width:1px;stroke-linecap:butt;stroke-linejoin:miter;stroke-opacity:1" />
      <path
         inkscape:export-ydpi="300"
         inkscape:export-xdpi="300"
         inkscape:export-filename="/home/dmpop/Desktop/EeePC/path2269.png"
         id="path3139"
         d="M 386.82416,487.55473 L 436.46702,450.41187 L 442.53845,447.55473 L 454.6813,486.4833 L 455.03845,496.84044 L 412.1813,528.9833 L 401.46702,539.34044 L 397.1813,539.34044 L 387.1813,518.62616 L 382.53845,495.05473 L 386.82416,487.55473 z"
         style="fill:#d6d6fd;fill-opacity:1;fill-rule:evenodd;stroke:none;stroke-width:1px;stroke-linecap:butt;stroke-linejoin:miter;stroke-opacity:1" />
      <path
         inkscape:export-ydpi="300"
         inkscape:export-xdpi="300"
         inkscape:export-filename="/home/dmpop/Desktop/EeePC/path2269.png"
         id="path3176"
         d="M 426.44721,489.56574 C 423.1274,489.51133 419.71709,489.72319 416.19721,490.17952 C 403.44585,491.83266 391.76827,496.68021 382.82221,503.36122 L 386.60346,521.27781 L 396.60346,540.65578 L 400.88471,540.65578 L 411.60346,530.95218 L 454.44721,500.90609 L 454.32221,497.45722 C 447.14469,492.62841 437.43234,489.74576 426.44721,489.56574 z"
         style="fill:url(#linearGradient3249);fill-opacity:1;fill-rule:evenodd;stroke:none;stroke-width:1px;stroke-linecap:butt;stroke-linejoin:miter;stroke-opacity:1" />
      <path
         inkscape:export-ydpi="300"
         inkscape:export-xdpi="300"
         sodipodi:nodetypes="cssssssssssssssssssccsssccscscssssssssssssssssssccssssccssssccsssccsssccccssssscccssccsssssssssssssccsssssssssc"
         id="path2269"
         d="M 435.42742,598.44346 C 429.65269,596.3248 399.96028,581.36797 394.00503,577.57794 C 391.12371,575.74422 386.77298,572.61055 384.33673,570.61423 C 381.90048,568.6179 379.08292,566.98204 378.07548,566.97897 C 370.35989,566.95548 361.46318,560.33618 360.21667,553.69171 C 359.27765,548.68634 360.21026,545.59929 363.75777,541.97024 C 367.25205,538.39564 367.1222,539.23415 365.28171,532.12889 C 364.47758,529.02451 362.92566,521.75955 361.83301,515.98455 C 355.58871,482.98146 356.20386,479.71496 370.74378,468.66824 C 373.76878,466.36999 376.46878,464.21833 376.74378,463.88678 C 377.01878,463.55523 378.36144,462.69448 379.72746,461.97401 C 381.09348,461.25354 387.50636,456.69753 393.97831,451.84955 C 400.45026,447.00156 407.02399,442.37389 408.58661,441.56583 C 412.477,439.55403 424.97664,431.11772 432.21138,425.62089 C 439.16959,420.33417 444.08669,419.07627 448.62345,421.42232 C 450.30702,422.29293 452.10049,423.78809 452.60893,424.7449 C 453.11737,425.70171 456.92564,437.73455 461.07176,451.48455 C 468.92473,477.5278 470.57521,482.47774 472.24378,484.99046 C 473.78063,487.30482 479.56937,491.24978 486.73869,494.86859 C 496.0218,499.55435 510.23419,508.46936 514.63468,512.36691 C 527.09745,524.52864 521.68194,530.13877 513.34453,542.98455 C 506.70057,550.7309 502.03174,556.42528 493.22735,563.76222 C 488.3846,567.79781 481.09378,575.3919 477.24378,579.1102 C 468.06934,587.9708 456.35009,596.55043 450.81564,598.45816 C 445.43716,600.31214 440.50794,600.30743 435.42742,598.44346 z M 451.69604,592.50874 C 457.37846,589.62924 466.31594,582.46497 476.30601,572.78143 C 480.19024,569.01638 484.46524,565.18565 485.80601,564.26871 C 492.54885,557.69719 505.90562,546.60592 512.44167,536.04202 C 517.22928,528.30403 518.70838,521.20012 509.48818,514.60316 C 506.18274,512.08199 484.77424,498.98455 483.95867,498.98455 C 483.72523,498.98455 481.21888,497.82728 478.38901,496.41284 C 471.98224,493.21059 468.0148,489.51858 466.10814,484.98455 C 464.86531,482.02912 455.31277,451.09508 452.67519,441.48455 C 450.62632,434.01914 447.94899,427.51657 446.56451,426.64327 C 444.11363,425.09729 440.30802,426.66422 434.08618,431.78109 C 430.87286,434.42374 422.39378,440.34062 415.24378,444.9297 C 408.09378,449.51879 398.87138,455.79598 394.74956,458.87902 C 386.76543,464.85099 383.62185,467.07241 374.48098,473.20185 C 371.31144,475.32719 367.53229,478.85811 366.08287,481.04833 C 363.57603,484.83642 363.47969,485.45601 364.10672,493.75755 C 364.46926,498.5574 366.15007,509.00955 367.84186,516.98455 C 369.53365,524.95955 371.16254,533.88489 371.46161,536.81863 C 371.97256,541.83067 371.81636,542.32536 368.87458,545.01226 C 364.86259,548.67665 364.61973,553.49525 368.23075,557.78669 C 370.34069,560.29421 371.59139,560.8062 376.48075,561.16391 C 381.63905,561.5413 382.71598,562.03453 386.74378,565.86436 C 392.52181,571.35839 402.26735,577.71461 413.9687,583.62095 C 438.09582,595.79927 442.94715,596.94214 451.69604,592.50874 z M 427.0028,577.001 C 422.30177,574.1347 408.79711,563.0637 405.02594,558.98455 C 403.24627,557.05955 401.77974,554.53363 401.76698,553.37139 C 401.73452,550.41468 409.71915,543.27156 418.74378,538.1838 C 430.28439,531.67762 443.67735,521.65366 452.88608,513.85585 C 463.52921,504.84341 464.65112,504.37933 466.60922,502.55845 C 468.7482,500.6313 468.41042,500.30861 470.49378,500.35764 C 471.45628,500.63697 474.18931,501.36853 476.56717,501.98334 C 483.42586,503.75667 497.93252,512.60018 499.84517,516.174 C 502.00919,520.21751 499.90192,525.74233 493.64405,532.43201 C 490.3989,535.90108 487.74378,539.06109 487.74378,539.45425 C 487.74378,539.84741 487.63363,540.30311 488.73363,541.70153 C 494.69095,548.87854 475.97804,561.75938 470.85993,565.76266 C 465.6866,569.33901 465.17959,569.47555 457.89404,569.25429 C 451.12069,569.0486 450.04172,569.27712 447.77789,571.39683 C 444.47222,574.49207 435.43608,578.98557 432.52702,578.98081 C 431.27124,578.97876 428.78534,578.08784 427.0028,577.001 z M 440.798,570.15534 C 443.24318,568.59928 445.83737,566.6032 446.56288,565.71962 C 448.4742,563.39184 453.19227,562.64743 457.34599,564.01828 C 460.21546,564.96529 461.49705,564.93967 463.59945,563.89323 C 467.86568,561.76979 477.96932,553.84612 481.58657,549.78703 L 484.92935,546.03593 L 482.83657,543.37538 C 478.46531,538.73053 484.30406,535.18458 487.63869,531.46003 C 491.4309,527.29995 494.76074,523.02768 495.03835,521.96611 C 495.72957,519.3229 489.08768,513.45042 481.86379,510.31771 C 478.77278,508.97726 474.86582,507.2036 473.18165,506.37625 C 470.15675,504.89025 470.06558,504.92449 465.68165,509.19316 C 452.68116,521.85186 431.17338,537.80663 417.43319,544.98455 C 414.80112,546.35955 411.45653,548.72574 410.00075,550.24275 L 407.35389,553.00094 L 411.29884,557.09863 C 413.46856,559.35236 416.81878,562.28103 418.74378,563.60677 C 420.66878,564.93252 424.19126,567.58487 426.57152,569.50089 C 431.8633,573.76056 434.91239,573.90083 440.798,570.15534 z M 393.30567,539.76945 C 392.45233,538.55114 389.00522,529.21608 385.64542,519.02486 C 377.12138,493.16907 377.49107,490.34516 390.74378,480.08118 C 393.76878,477.73838 399.44122,473.72071 403.34919,471.15304 C 407.25717,468.58537 415.35717,462.77811 421.34919,458.24802 C 427.34122,453.71794 433.81878,449.30864 435.74378,448.44958 C 437.66878,447.59053 440.02517,446.45946 440.98021,445.93611 C 441.93525,445.41275 443.30221,444.98455 444.01791,444.98455 C 445.31419,444.98455 447.63908,451.82853 450.30234,463.48455 C 451.05635,466.78455 452.80587,472.80156 454.19015,476.85568 C 457.9839,487.96635 458.37682,492.82336 455.87812,497.72122 C 453.50913,502.36483 452.75493,502.99177 438.34713,512.29422 C 432.54632,516.03953 423.45665,523.01453 418.14787,527.79422 C 412.83908,532.5739 406.89623,537.72205 404.94152,539.23455 C 400.46639,542.69728 395.5158,542.92486 393.30567,539.76945 z M 405.97433,532.23455 C 420.1212,519.17347 423.49281,516.39257 432.05933,510.71974 C 436.56078,507.73883 441.82646,504.35704 443.76084,503.20464 C 450.00365,499.4855 452.2584,496.33534 452.07471,491.58909 C 451.86837,486.25757 442.37892,450.98455 441.15093,450.98455 C 440.33527,450.98455 435.35538,454.25511 432.99975,456.33787 C 429.98845,459.00036 419.98678,466.1311 404.20736,476.86556 C 397.03733,481.74321 389.67378,487.43918 387.84392,489.52328 C 383.14761,494.87208 383.13413,494.80238 395.91087,531.23455 C 397.11437,534.66629 398.51241,536.98455 399.37842,536.98455 C 400.1765,536.98455 403.14466,534.84705 405.97433,532.23455 z"
         style="fill:#000000" />
    </g>
    <text
       xml:space="preserve"
       style="font-size:53.73921967px;font-style:normal;font-weight:normal;line-height:100%;fill:#000000;fill-opacity:1;stroke:none;stroke-width:1px;stroke-linecap:butt;stroke-linejoin:miter;stroke-opacity:1;font-family:Bitstream Vera Sans"
       x="343.91147"
       y="519.75323"
       id="text2383"
       sodipodi:linespacing="100%"><tspan
         sodipodi:role="line"
         id="tspan2385"
         x="343.91147"
         y="519.75323"
         style="font-size:53.73921967px;font-style:normal;font-variant:normal;font-weight:normal;font-stretch:normal;text-align:start;line-height:100%;writing-mode:lr-tb;text-anchor:start;fill:#000000;fill-opacity:1;font-family:Yanone Kaffeesatz;-inkscape-font-specification:Yanone Kaffeesatz">Writer's Tools</tspan></text>
    <text
       xml:space="preserve"
       style="font-size:16.93668365px;font-style:normal;font-weight:normal;fill:#808080;fill-opacity:1;stroke:none;stroke-width:1px;stroke-linecap:butt;stroke-linejoin:miter;stroke-opacity:1;font-family:Bitstream Vera Sans"
       x="346.59326"
       y="537.0119"
       id="text2408"><tspan
         sodipodi:role="line"
         id="tspan2410"
         x="346.59326"
         y="537.0119"
         style="font-style:normal;font-variant:normal;font-weight:normal;font-stretch:normal;fill:#808080;font-family:Droid Sans;-inkscape-font-specification:Droid Sans">writertools.googlecode.com</tspan></text>
  </g>
</svg>
