<?xml version="1.0" encoding="UTF-8" standalone="no"?>
<!-- Created with Inkscape (http://www.inkscape.org/) -->
<svg
   xmlns:dc="http://purl.org/dc/elements/1.1/"
   xmlns:cc="http://creativecommons.org/ns#"
   xmlns:rdf="http://www.w3.org/1999/02/22-rdf-syntax-ns#"
   xmlns:svg="http://www.w3.org/2000/svg"
   xmlns="http://www.w3.org/2000/svg"
   xmlns:sodipodi="http://sodipodi.sourceforge.net/DTD/sodipodi-0.dtd"
   xmlns:inkscape="http://www.inkscape.org/namespaces/inkscape"
   width="543.03192"
   height="129"
   id="svg2"
   sodipodi:version="0.32"
   inkscape:version="0.46"
   sodipodi:docname="WriterToolsPizza.svg"
   inkscape:output_extension="org.inkscape.output.svg.inkscape"
   version="1.0"
   inkscape:export-filename="/home/dmpop/Desktop/WriterTools.png"
   inkscape:export-xdpi="72"
   inkscape:export-ydpi="72">
  <defs
     id="defs4">
    <inkscape:perspective
       sodipodi:type="inkscape:persp3d"
       inkscape:vp_x="0 : 526.18109 : 1"
       inkscape:vp_y="0 : 1000 : 0"
       inkscape:vp_z="744.09448 : 526.18109 : 1"
       inkscape:persp3d-origin="372.04724 : 350.78739 : 1"
       id="perspective10" />
    <inkscape:perspective
       id="perspective3229"
       inkscape:persp3d-origin="372.04724 : 350.78739 : 1"
       inkscape:vp_z="744.09448 : 526.18109 : 1"
       inkscape:vp_y="0 : 1000 : 0"
       inkscape:vp_x="0 : 526.18109 : 1"
       sodipodi:type="inkscape:persp3d" />
    <inkscape:perspective
       id="perspective3297"
       inkscape:persp3d-origin="372.04724 : 350.78739 : 1"
       inkscape:vp_z="744.09448 : 526.18109 : 1"
       inkscape:vp_y="0 : 1000 : 0"
       inkscape:vp_x="0 : 526.18109 : 1"
       sodipodi:type="inkscape:persp3d" />
  </defs>
  <sodipodi:namedview
     id="base"
     pagecolor="#ffffff"
     bordercolor="#666666"
     borderopacity="1.0"
     gridtolerance="10000"
     guidetolerance="10"
     objecttolerance="10"
     inkscape:pageopacity="0.0"
     inkscape:pageshadow="2"
     inkscape:zoom="0.98994949"
     inkscape:cx="331.54928"
     inkscape:cy="70.850454"
     inkscape:document-units="px"
     inkscape:current-layer="layer1"
     showgrid="false"
     inkscape:window-width="1103"
     inkscape:window-height="798"
     inkscape:window-x="61"
     inkscape:window-y="70"
     showguides="true"
     inkscape:guide-bbox="true" />
  <metadata
     id="metadata7">
    <rdf:RDF>
      <cc:Work
         rdf:about="">
        <dc:format>image/svg+xml</dc:format>
        <dc:type
           rdf:resource="http://purl.org/dc/dcmitype/StillImage" />
      </cc:Work>
    </rdf:RDF>
  </metadata>
  <g
     inkscape:label="Layer 1"
     inkscape:groupmode="layer"
     id="layer1"
     transform="translate(-115.76077,-429.70915)">
    <path
       style="font-size:57.78961563px;font-style:normal;font-weight:normal;line-height:125%;fill:#ffac00;fill-opacity:1;stroke:none;stroke-width:1px;stroke-linecap:butt;stroke-linejoin:miter;stroke-opacity:1;font-family:Bitstream Vera Sans"
       d="M 252.57708,464.10638 C 252.57708,464.10638 260.18201,511.84832 263.66757,528.95935 C 264.40694,532.65618 266.20256,535.50802 269.37125,535.50802 C 274.44119,535.50802 276.65931,535.4024 280.77861,534.9799 L 283.8417,517.55199 C 285.10919,510.26397 286.27105,499.49033 287.01041,491.14606 C 287.74978,499.49033 288.91164,510.26397 290.39037,517.55199 L 292.60847,528.95935 C 293.45346,533.1843 295.35471,535.61364 299.05152,535.61364 C 303.59334,535.61364 304.54397,535.50802 309.29702,534.9799 C 310.35326,534.9799 321.86624,461.04329 321.86624,461.04329 L 311.62074,461.04329 C 309.50827,461.04329 309.08577,461.99391 308.7689,464.21201 L 304.3327,495.47663 C 302.85397,505.93338 301.79774,514.91141 301.37524,521.88256 C 300.84712,514.91141 299.47401,505.93338 297.88966,495.47663 L 292.50285,464.21201 L 284.79232,464.21201 L 284.15857,464.21201 C 281.94047,464.21201 281.6236,465.16262 281.30673,467.38072 L 276.76491,495.47663 C 275.18056,505.93338 274.12432,514.91141 273.80745,521.88256 C 273.38495,514.91141 271.90622,505.93338 270.32187,495.47663 L 265.1463,461.04329 L 255.21767,461.04329 C 252.47146,461.04329 252.15458,461.78266 252.57708,464.10638 M 322.5759,534.9799 C 334.61701,534.9799 334.61701,534.9799 334.61701,532.86743 L 334.72263,494.31477 C 335.99012,492.51916 337.99697,491.88542 339.26445,491.88542 C 340.32069,491.88542 341.6938,491.99105 343.17253,492.73041 C 344.12314,490.08982 344.33439,487.23798 344.33439,485.33675 C 344.33439,481.63994 342.96128,480.58368 337.2576,480.58368 C 331.34269,480.58368 327.43459,481.95681 322.5759,485.33675 L 322.5759,534.9799 M 360.81665,482.16804 C 351.09927,482.16804 348.77555,482.16806 348.77555,487.3436 L 348.77555,534.9799 C 360.71101,534.9799 360.81665,534.9799 360.81665,532.86743 L 360.81665,482.16804 M 348.77555,464.6345 C 348.77555,471.2888 350.99364,473.19002 354.47923,473.19002 C 358.59855,473.19002 360.81665,469.81006 360.81665,464.10638 C 360.81665,458.40272 359.54917,456.39585 355.21859,456.39585 C 350.7824,456.39585 348.77555,459.77583 348.77555,464.6345 M 371.55726,520.08696 C 371.55726,529.48747 371.55726,536.56426 382.54213,536.56426 C 386.55583,536.56426 392.15389,535.93051 392.15389,532.55056 C 392.15389,529.59309 391.73139,526.63563 391.41452,525.15689 C 389.19643,526.00188 388.66831,526.53 385.92209,526.53 C 383.38712,526.53 383.38712,523.88941 383.38712,521.46006 L 383.38712,492.20229 L 389.72454,492.20229 C 391.94264,492.20229 392.04827,491.25168 392.04827,482.16804 L 383.38712,482.16804 L 383.38712,463.15577 C 373.88099,463.15577 371.55726,463.15579 371.55726,466.8526 L 371.55726,482.16804 L 367.64919,482.16804 C 365.32546,482.16804 365.21984,483.2243 365.21984,492.20229 L 371.55726,492.20229 L 371.55726,520.08696 M 412.00125,480.58368 C 402.07262,480.58368 393.41147,484.70305 393.41147,511.10894 C 393.41147,532.65616 400.17139,536.56426 409.78315,536.56426 C 418.02178,536.56426 424.78172,534.24054 424.78172,532.55056 C 424.78172,529.17062 424.46485,524.20628 423.8311,522.09381 C 420.13427,523.88941 416.43744,525.05127 411.36751,525.05127 C 407.24818,525.05127 405.9807,523.46692 405.66382,514.91139 C 410.94501,514.80577 418.86679,514.38327 424.04235,513.32704 C 425.09859,509.20773 425.52108,503.39841 425.52108,498.32847 C 425.52108,486.07614 420.45113,480.58368 412.00125,480.58368 M 410.41689,490.82918 C 413.05748,490.82918 414.0081,492.41356 414.0081,499.17346 C 414.0081,500.86344 413.90247,503.39841 413.47998,504.66589 C 411.89562,505.40526 408.62129,505.61651 405.66382,505.61651 C 405.9807,495.89914 407.14256,490.82918 410.41689,490.82918 M 431.08778,534.9799 C 443.12888,534.9799 443.12888,534.9799 443.12888,532.86743 L 443.2345,494.31477 C 444.50199,492.51916 446.50884,491.88542 447.77632,491.88542 C 448.83256,491.88542 450.20567,491.99105 451.6844,492.73041 C 452.63502,490.08982 452.84626,487.23798 452.84626,485.33675 C 452.84626,481.63994 451.47315,480.58368 445.76947,480.58368 C 439.85456,480.58368 435.94647,481.95681 431.08778,485.33675 L 431.08778,534.9799 M 459.22165,473.0844 C 460.17227,472.34503 461.75662,458.4027 461.96787,452.27652 C 460.38352,452.06528 457.84855,451.85403 455.63045,451.85403 C 453.51797,451.85403 451.72237,452.06528 450.983,452.48777 C 449.71552,453.22714 452.77861,473.40127 452.77861,473.40127 L 459.22165,473.0844 M 473.93636,480.68931 C 461.68401,480.68931 457.35343,485.65364 457.35343,493.36415 C 457.35343,496.84974 458.93779,500.96908 462.42337,504.98276 L 471.61264,515.65076 C 473.72511,518.08011 473.93636,520.08696 473.93636,521.88256 C 473.93636,524.20628 472.56325,526.00188 468.54955,526.00188 C 465.59208,526.00188 462.31775,525.26252 459.36029,523.67816 C 457.98718,526.21313 457.45906,529.48747 457.45906,531.49432 C 457.45906,535.08552 463.05712,536.56426 469.81703,536.56426 C 480.59063,536.56426 487.56182,530.86058 487.56182,521.35444 C 487.56182,516.07327 486.50558,513.01017 482.28063,508.15148 L 474.46448,499.27908 C 471.82388,496.32162 471.40139,495.15976 471.40139,493.9979 C 471.40139,491.99105 472.98575,490.82918 476.3657,490.82918 C 479.64004,490.82918 482.5975,491.46293 485.44935,493.04728 C 486.61121,491.46293 487.77307,488.50546 487.77307,486.70986 C 487.77307,484.06927 486.61119,480.68931 473.93636,480.68931 M 540.90014,472.02816 C 540.90014,472.02816 543.01262,472.02816 543.01262,469.91569 L 543.01262,461.04329 L 507.10055,461.04329 C 507.10055,461.04329 504.98807,461.04329 504.98807,463.15577 L 504.98807,472.02816 L 517.87417,472.02816 L 517.87417,534.9799 C 529.91527,534.9799 529.70403,534.9799 529.70403,532.86743 L 529.70403,472.02816 L 540.90014,472.02816 M 535.01658,508.46835 C 535.01658,532.12804 540.29776,536.56426 551.70513,536.56426 C 563.11247,536.56426 569.02742,528.43121 569.02742,508.04585 C 569.02742,486.70988 563.85184,480.68931 552.55012,480.68931 C 541.354,480.68931 535.01658,489.35047 535.01658,508.46835 M 548.0083,508.36272 C 548.0083,493.36417 549.8039,490.82918 552.12762,490.82918 C 555.19071,490.82918 556.0357,493.15293 556.0357,508.36272 C 556.0357,524.62876 554.02885,526.74125 552.022,526.74125 C 549.38141,526.74125 548.0083,524.84 548.0083,508.36272 M 572.14992,508.46835 C 572.14992,532.12804 577.43111,536.56426 588.83847,536.56426 C 600.24581,536.56426 606.16076,528.43121 606.16076,508.04585 C 606.16076,486.70988 600.98518,480.68931 589.68346,480.68931 C 578.48734,480.68931 572.14992,489.35047 572.14992,508.46835 M 585.14164,508.36272 C 585.14164,493.36417 586.93724,490.82918 589.26096,490.82918 C 592.32405,490.82918 593.16904,493.15293 593.16904,508.36272 C 593.16904,524.62876 591.16219,526.74125 589.15534,526.74125 C 586.51475,526.74125 585.14164,524.84 585.14164,508.36272 M 623.01434,457.34646 C 613.40259,457.34646 611.18449,457.34648 611.18449,462.52203 L 611.18449,534.9799 C 623.01433,534.9799 623.01434,534.9799 623.01434,532.86743 L 623.01434,457.34646 M 644.95601,480.68931 C 632.70368,480.68931 628.37309,485.65364 628.37309,493.36415 C 628.37309,496.84974 629.95746,500.96908 633.44303,504.98276 L 642.63229,515.65076 C 644.74477,518.08011 644.95601,520.08696 644.95601,521.88256 C 644.95601,524.20628 643.5829,526.00188 639.5692,526.00188 C 636.61174,526.00188 633.3374,525.26252 630.37994,523.67816 C 629.00683,526.21313 628.47871,529.48747 628.47871,531.49432 C 628.47871,535.08552 634.07679,536.56426 640.83669,536.56426 C 651.61031,536.56426 658.58147,530.86058 658.58147,521.35444 C 658.58147,516.07327 657.52524,513.01017 653.30029,508.15148 L 645.48413,499.27908 C 642.84354,496.32162 642.42104,495.15976 642.42104,493.9979 C 642.42104,491.99105 644.00542,490.82918 647.38536,490.82918 C 650.65969,490.82918 653.61716,491.46293 656.469,493.04728 C 657.63086,491.46293 658.79272,488.50546 658.79272,486.70986 C 658.79272,484.06927 657.63086,480.68931 644.95601,480.68931"
       id="text2455" />
    <text
       xml:space="preserve"
       style="font-size:11.97438335px;font-style:normal;font-weight:normal;line-height:125%;fill:#000000;fill-opacity:1;stroke:none;stroke-width:1px;stroke-linecap:butt;stroke-linejoin:miter;stroke-opacity:1;font-family:Bitstream Vera Sans"
       x="517.2547"
       y="555.06909"
       id="text2403"
       sodipodi:linespacing="125%"><tspan
         sodipodi:role="line"
         id="tspan2405"
         x="517.2547"
         y="555.06909"
         style="font-size:19.15901375px;font-style:normal;font-variant:normal;font-weight:normal;font-stretch:normal;text-align:start;line-height:125%;writing-mode:lr-tb;text-anchor:start;font-family:Droid Sans;-inkscape-font-specification:Droid Sans">tr.im/writertools</tspan></text>
    <g
       id="g2391"
       transform="translate(-14,-1.0101525)">
      <rect
         ry="17.525253"
         y="435.2193"
         x="134.26077"
         height="120"
         width="120"
         id="rect3163"
         style="fill:#cd87ec;fill-opacity:1;stroke:#ad6ec5;stroke-width:9;stroke-linejoin:round;stroke-miterlimit:4;stroke-dasharray:none;stroke-opacity:1" />
      <path
         id="rect3166"
         d="M 193.9081,490.90624 C 178.88749,491.13004 155.70318,494.58986 133.9081,498.53124 L 133.9081,537.68749 C 133.9081,547.39648 141.73034,555.21874 151.43935,555.21874 L 236.37685,555.21874 C 246.08584,555.21874 253.9081,547.39648 253.9081,537.68749 L 253.9081,496.49999 C 231.80008,493.2704 208.97872,490.6817 193.9081,490.90624 z"
         style="opacity:0.27000002;fill:#ffffff;fill-opacity:1;stroke:none;stroke-width:12.88300037;stroke-linejoin:round;stroke-miterlimit:4;stroke-dasharray:none;stroke-opacity:1" />
      <path
         id="text2424"
         d="M 150.96144,452.35295 C 150.96144,452.35295 160.4873,512.15418 164.85331,533.58734 C 165.77944,538.21796 168.0286,541.79016 171.99771,541.79016 C 178.34827,541.79016 181.12666,541.65786 186.28649,541.12864 L 190.1233,519.29855 C 191.71094,510.16962 193.16628,496.67463 194.0924,486.22266 C 195.01853,496.67463 196.47387,510.16962 198.32612,519.29855 L 201.10449,533.58734 C 202.16292,538.87948 204.54439,541.92246 209.17501,541.92246 C 214.86406,541.92246 216.0548,541.79016 222.00846,541.12864 C 223.33149,541.12864 237.75258,448.51614 237.75258,448.51614 L 224.91914,448.51614 C 222.27307,448.51614 221.74385,449.70688 221.34694,452.48525 L 215.79019,491.64711 C 213.93794,504.74515 212.6149,515.99097 212.08569,524.723 C 211.42417,515.99097 209.70422,504.74515 207.71967,491.64711 L 200.97219,452.48525 L 191.31403,452.48525 L 190.52021,452.48525 C 187.74184,452.48525 187.34492,453.67598 186.94801,456.45436 L 181.25896,491.64711 C 179.27441,504.74515 177.95137,515.99097 177.55446,524.723 C 177.02524,515.99097 175.17299,504.74515 173.18844,491.64711 L 166.70556,448.51614 L 154.26903,448.51614 C 150.82914,448.51614 150.43223,449.44227 150.96144,452.35295"
         style="font-size:137.5657196px;font-style:normal;font-weight:normal;line-height:125%;opacity:0.56585364;fill:#ffffff;fill-opacity:1;stroke:none;stroke-width:1px;stroke-linecap:butt;stroke-linejoin:miter;stroke-opacity:1;font-family:Bitstream Vera Sans" />
    </g>
  </g>
</svg>
