<?xml version="1.0" encoding="UTF-8" standalone="no"?>
<!-- Created with Inkscape (http://www.inkscape.org/) -->
<svg
   xmlns:dc="http://purl.org/dc/elements/1.1/"
   xmlns:cc="http://creativecommons.org/ns#"
   xmlns:rdf="http://www.w3.org/1999/02/22-rdf-syntax-ns#"
   xmlns:svg="http://www.w3.org/2000/svg"
   xmlns="http://www.w3.org/2000/svg"
   xmlns:sodipodi="http://sodipodi.sourceforge.net/DTD/sodipodi-0.dtd"
   xmlns:inkscape="http://www.inkscape.org/namespaces/inkscape"
   width="543.03192"
   height="129"
   id="svg2"
   sodipodi:version="0.32"
   inkscape:version="0.46"
   sodipodi:docname="WriterToolsW.svg"
   inkscape:output_extension="org.inkscape.output.svg.inkscape"
   version="1.0"
   inkscape:export-filename="/home/dmpop/Desktop/WriterTools.png"
   inkscape:export-xdpi="72"
   inkscape:export-ydpi="72">
  <defs
     id="defs4">
    <inkscape:perspective
       sodipodi:type="inkscape:persp3d"
       inkscape:vp_x="0 : 526.18109 : 1"
       inkscape:vp_y="0 : 1000 : 0"
       inkscape:vp_z="744.09448 : 526.18109 : 1"
       inkscape:persp3d-origin="372.04724 : 350.78739 : 1"
       id="perspective10" />
    <inkscape:perspective
       id="perspective3229"
       inkscape:persp3d-origin="372.04724 : 350.78739 : 1"
       inkscape:vp_z="744.09448 : 526.18109 : 1"
       inkscape:vp_y="0 : 1000 : 0"
       inkscape:vp_x="0 : 526.18109 : 1"
       sodipodi:type="inkscape:persp3d" />
    <inkscape:perspective
       id="perspective3297"
       inkscape:persp3d-origin="372.04724 : 350.78739 : 1"
       inkscape:vp_z="744.09448 : 526.18109 : 1"
       inkscape:vp_y="0 : 1000 : 0"
       inkscape:vp_x="0 : 526.18109 : 1"
       sodipodi:type="inkscape:persp3d" />
  </defs>
  <sodipodi:namedview
     id="base"
     pagecolor="#ffffff"
     bordercolor="#666666"
     borderopacity="1.0"
     gridtolerance="10000"
     guidetolerance="10"
     objecttolerance="10"
     inkscape:pageopacity="0.0"
     inkscape:pageshadow="2"
     inkscape:zoom="0.7"
     inkscape:cx="124.5408"
     inkscape:cy="70.850454"
     inkscape:document-units="px"
     inkscape:current-layer="g2391"
     showgrid="false"
     inkscape:window-width="1241"
     inkscape:window-height="805"
     inkscape:window-x="62"
     inkscape:window-y="11"
     showguides="true"
     inkscape:guide-bbox="true" />
  <metadata
     id="metadata7">
    <rdf:RDF>
      <cc:Work
         rdf:about="">
        <dc:format>image/svg+xml</dc:format>
        <dc:type
           rdf:resource="http://purl.org/dc/dcmitype/StillImage" />
      </cc:Work>
    </rdf:RDF>
  </metadata>
  <g
     inkscape:label="Layer 1"
     inkscape:groupmode="layer"
     id="layer1"
     transform="translate(-115.76077,-429.70915)">
    <text
       xml:space="preserve"
       style="font-size:11.33735657px;font-style:normal;font-weight:normal;line-height:125%;fill:#000000;fill-opacity:1;stroke:none;stroke-width:1px;stroke-linecap:butt;stroke-linejoin:miter;stroke-opacity:1;font-family:Bitstream Vera Sans"
       x="495.12827"
       y="535.00897"
       id="text2403"
       sodipodi:linespacing="125%"><tspan
         sodipodi:role="line"
         id="tspan2405"
         x="495.12827"
         y="535.00897"
         style="font-size:18.13977051px;font-style:normal;font-variant:normal;font-weight:normal;font-stretch:normal;text-align:start;line-height:125%;writing-mode:lr-tb;text-anchor:start;font-family:Droid Sans;-inkscape-font-specification:Droid Sans">tr.im/writertools</tspan></text>
    <g
       id="g2391"
       transform="translate(-14,-1.0101525)">
      <g
         id="g3172">
        <rect
           style="fill:#cd87ec;fill-opacity:1;stroke:#ad6ec5;stroke-width:9;stroke-linejoin:round;stroke-miterlimit:4;stroke-dasharray:none;stroke-opacity:1"
           id="rect3163"
           width="120"
           height="120"
           x="134.26077"
           y="435.2193"
           ry="17.525253" />
        <path
           style="opacity:0.27000002;fill:#ffffff;fill-opacity:1;stroke:none;stroke-width:12.88300037;stroke-linejoin:round;stroke-miterlimit:4;stroke-dasharray:none;stroke-opacity:1"
           d="M 193.9081,490.90624 C 178.88749,491.13004 155.70318,494.58986 133.9081,498.53124 L 133.9081,537.68749 C 133.9081,547.39648 141.73034,555.21874 151.43935,555.21874 L 236.37685,555.21874 C 246.08584,555.21874 253.9081,547.39648 253.9081,537.68749 L 253.9081,496.49999 C 231.80008,493.2704 208.97872,490.6817 193.9081,490.90624 z"
           id="rect3166" />
        <text
           id="text2394"
           y="525.48993"
           x="152.9787"
           style="font-size:87.74200439px;font-style:normal;font-weight:normal;opacity:0.51999996;fill:#ffffff;fill-opacity:1;stroke:none;stroke-width:1px;stroke-linecap:butt;stroke-linejoin:miter;stroke-opacity:1;font-family:Bitstream Vera Sans"
           xml:space="preserve"><tspan
             style="font-size:87.74200439px;font-style:normal;font-variant:normal;font-weight:900;font-stretch:normal;text-align:start;line-height:125%;writing-mode:lr-tb;text-anchor:start;fill:#ffffff;font-family:TitilliumText14L;-inkscape-font-specification:TitilliumText14L Heavy"
             y="525.48993"
             x="152.9787"
             id="tspan2396"
             sodipodi:role="line">W</tspan></text>
      </g>
    </g>
    <path
       style="font-size:40px;font-style:normal;font-weight:normal;line-height:125%;fill:#ffac00;fill-opacity:1;stroke:none;stroke-width:1px;stroke-linecap:butt;stroke-linejoin:miter;stroke-opacity:1;font-family:Bitstream Vera Sans"
       d="M 253.66734,472.09552 L 263.52322,516.25495 L 276.64305,516.25495 L 282.21098,485.08735 L 287.8429,516.25495 L 300.96273,516.25495 L 310.81861,472.09552 L 301.53873,472.09552 L 294.88281,507.16707 L 293.92282,507.16707 L 287.26691,472.09552 L 277.21904,472.09552 L 270.56313,507.16707 L 269.60314,507.16707 L 262.94722,472.09552 L 253.66734,472.09552 z M 316.66931,516.25495 L 325.2452,516.25495 L 325.2452,495.51922 C 325.26385,495.47257 326.04251,495.14991 327.58117,494.55123 C 329.1198,493.95259 331.30643,493.35794 334.14108,492.76726 L 334.14108,483.55137 C 331.55843,484.12873 329.44379,484.87805 327.79716,485.79934 C 326.1505,486.7207 325.29985,487.23002 325.2452,487.32733 L 325.2452,484.31936 L 316.66931,484.31936 L 316.66931,516.25495 z M 339.66931,516.25495 L 348.2452,516.25495 L 348.2452,484.31936 L 339.66931,484.31936 L 339.66931,516.25495 z M 339.66931,480.15942 L 348.2452,480.15942 L 348.2452,471.39153 L 339.66931,471.39153 L 339.66931,480.15942 z M 373.69009,492.06326 L 373.69009,484.31936 L 365.81819,484.31936 L 365.81819,475.35948 L 357.2423,475.35948 L 357.2423,484.31936 L 353.46635,484.31936 L 353.46635,492.06326 L 357.2423,492.06326 L 357.2423,504.8631 C 357.1743,509.40172 357.87029,512.58034 359.33028,514.39898 C 360.79025,516.21762 363.42221,517.09227 367.22617,517.02294 C 368.47814,516.98294 369.84612,516.82294 371.33012,516.54295 C 372.81408,516.26295 373.62207,516.10295 373.75409,516.06296 L 373.37009,508.70305 C 373.27941,508.70839 372.69275,508.72973 371.61012,508.76705 C 370.52744,508.80439 369.49279,508.82572 368.50616,508.83105 C 367.21816,508.83639 366.43417,508.45773 366.15419,507.69506 C 365.87418,506.93242 365.76218,505.75377 365.81819,504.15911 L 365.81819,492.06326 L 373.69009,492.06326 z M 392.22514,509.15104 C 389.94382,509.16305 388.29851,508.75506 387.2892,507.92706 C 386.27987,507.09908 385.77055,505.7791 385.76122,503.96711 L 404.57698,503.96711 L 405.21697,497.95119 C 405.22361,493.12327 404.07429,489.51532 401.76902,487.12733 C 399.46369,484.73939 395.9624,483.54741 391.26515,483.55137 C 386.58787,483.55407 383.06258,484.98872 380.68929,487.85532 C 378.31598,490.72197 377.12666,495.00458 377.12133,500.70315 C 377.09067,506.42309 378.17598,510.58303 380.37729,513.18299 C 382.57859,515.78296 386.07987,517.06294 390.88116,517.02294 C 394.03976,516.94828 397.00239,516.64961 399.76904,516.12695 C 402.53565,515.60429 404.01029,515.30563 404.19299,515.23097 L 404.06499,508.57505 C 403.89963,508.59906 402.58231,508.69506 400.11304,508.86305 C 397.64371,509.03105 395.01442,509.12705 392.22514,509.15104 L 392.22514,509.15104 z M 385.69722,497.3752 C 385.70121,495.26858 386.12521,493.70593 386.96921,492.68725 C 387.81318,491.66863 389.24516,491.16197 391.26515,491.16728 C 393.25844,491.14197 394.67975,491.60863 395.5291,492.56726 C 396.3784,493.52593 396.79172,495.12858 396.76908,497.3752 L 385.69722,497.3752 z M 411.66931,516.25495 L 420.2452,516.25495 L 420.2452,495.51922 C 420.26385,495.47257 421.04251,495.14991 422.58117,494.55123 C 424.1198,493.95259 426.30643,493.35794 429.14108,492.76726 L 429.14108,483.55137 C 426.55843,484.12873 424.44379,484.87805 422.79716,485.79934 C 421.1505,486.7207 420.29985,487.23002 420.2452,487.32733 L 420.2452,484.31936 L 411.66931,484.31936 L 411.66931,516.25495 z M 432.98699,488.09532 L 440.79489,488.09532 L 441.11488,472.09552 L 432.85899,472.09552 L 432.98699,488.09532 z M 467.596,485.15135 C 467.52803,485.13163 466.79638,484.99336 465.40107,484.73654 C 464.00571,484.47979 462.35437,484.223 460.44706,483.96618 C 458.53971,483.70943 456.78408,483.57116 455.18016,483.55137 C 451.72286,483.52207 448.81357,484.33273 446.45228,485.98334 C 444.09097,487.63402 442.86165,490.30065 442.76432,493.98324 C 442.74565,497.31521 443.71097,499.69118 445.66029,501.11115 C 447.60959,502.53114 450.65488,503.54713 454.79617,504.15911 C 456.97212,504.51912 458.3961,504.88711 459.06811,505.26309 C 459.74009,505.6391 460.04408,506.16709 459.9801,506.84707 C 460.02008,507.67641 459.66809,508.28973 458.92412,508.68705 C 458.18011,509.08439 456.80412,509.28172 454.79617,509.27904 C 453.62718,509.26562 452.15362,509.17159 450.37548,508.99697 C 448.59733,508.82236 447.00051,508.64775 445.58503,508.47313 C 444.16953,508.29852 443.4213,508.2045 443.34032,508.19106 L 443.08432,515.42296 C 443.15148,515.44272 443.8847,515.58099 445.28399,515.83777 C 446.68328,516.09456 448.34568,516.35135 450.27119,516.60813 C 452.19668,516.86492 453.98234,517.00319 455.62816,517.02294 C 459.66675,517.05894 462.82138,516.26695 465.09204,514.64697 C 467.36265,513.027 468.5173,510.36303 468.55599,506.65508 C 468.6213,503.48446 467.81864,501.13783 466.14802,499.61517 C 464.47735,498.09254 461.54673,497.02589 457.35614,496.41521 C 455.00548,496.0619 453.40284,495.71257 452.5482,495.36722 C 451.69353,495.02191 451.29087,494.49659 451.34021,493.79124 C 451.29487,492.93128 451.57753,492.29928 452.1882,491.89527 C 452.79885,491.4913 454.0095,491.2913 455.82016,491.29527 C 457.13252,491.30794 458.68904,491.39643 460.48973,491.56075 C 462.29037,491.72512 463.88482,491.88946 465.27307,492.05378 C 466.66127,492.21815 467.39292,492.30664 467.46801,492.31926 L 467.596,485.15135 z M 483.86637,480.60741 L 495.51422,480.60741 L 495.51422,516.25495 L 504.34611,516.25495 L 504.34611,480.60741 L 515.86596,480.60741 L 515.86596,472.09552 L 483.86637,472.09552 L 483.86637,480.60741 z M 532.21614,483.55137 C 526.73087,483.63141 522.88559,485.18338 520.68029,488.20732 C 518.47498,491.2313 517.41366,495.24725 517.49633,500.25516 C 517.41367,505.26577 518.47499,509.29238 520.68029,512.335 C 522.88559,515.37763 526.73087,516.94028 532.21614,517.02294 C 537.70138,516.94028 541.54666,515.37763 543.752,512.335 C 545.95727,509.29238 547.01859,505.26577 546.93596,500.25516 C 547.01859,495.24724 545.95727,491.2313 543.752,488.20731 C 541.54666,485.18338 537.70138,483.6314 532.21614,483.55137 L 532.21614,483.55137 z M 532.21614,509.27904 C 529.89349,509.27105 528.29885,508.50306 527.43221,506.97507 C 526.56554,505.4471 526.15488,503.20713 526.20022,500.25516 C 526.15488,497.30588 526.56554,495.07658 527.43221,493.56724 C 528.29885,492.05795 529.89349,491.30063 532.21614,491.29527 C 534.53876,491.30063 536.13341,492.05795 537.00008,493.56724 C 537.86672,495.07658 538.27738,497.30588 538.23207,500.25516 C 538.27738,503.20713 537.86672,505.4471 537.00008,506.97507 C 536.13341,508.50306 534.53876,509.27105 532.21614,509.27904 L 532.21614,509.27904 z M 566.09114,483.55137 C 560.60587,483.63141 556.76059,485.18338 554.55529,488.20732 C 552.34998,491.2313 551.28866,495.24725 551.37133,500.25516 C 551.28867,505.26577 552.34999,509.29238 554.55529,512.335 C 556.76059,515.37763 560.60587,516.94028 566.09114,517.02294 C 571.57638,516.94028 575.42166,515.37763 577.627,512.335 C 579.83227,509.29238 580.89359,505.26577 580.81096,500.25516 C 580.89359,495.24724 579.83227,491.2313 577.627,488.20731 C 575.42166,485.18338 571.57638,483.6314 566.09114,483.55137 L 566.09114,483.55137 z M 566.09114,509.27904 C 563.76849,509.27105 562.17385,508.50306 561.30721,506.97507 C 560.44054,505.4471 560.02988,503.20713 560.07522,500.25516 C 560.02988,497.30588 560.44054,495.07658 561.30721,493.56724 C 562.17385,492.05795 563.76849,491.30063 566.09114,491.29527 C 568.41376,491.30063 570.00841,492.05795 570.87508,493.56724 C 571.74172,495.07658 572.15238,497.30588 572.10707,500.25516 C 572.15238,503.20713 571.74172,505.4471 570.87508,506.97507 C 570.00841,508.50306 568.41376,509.27105 566.09114,509.27904 L 566.09114,509.27904 z M 587.29431,516.25495 L 595.8702,516.25495 L 595.8702,471.45553 L 587.29431,471.45553 L 587.29431,516.25495 z M 627.971,485.15135 C 627.90303,485.13163 627.17138,484.99336 625.77607,484.73654 C 624.38071,484.47979 622.72937,484.223 620.82206,483.96618 C 618.91471,483.70943 617.15908,483.57116 615.55516,483.55137 C 612.09786,483.52207 609.18857,484.33273 606.82728,485.98334 C 604.46597,487.63402 603.23665,490.30065 603.13932,493.98324 C 603.12065,497.31521 604.08597,499.69118 606.03529,501.11115 C 607.98459,502.53114 611.02988,503.54713 615.17117,504.15911 C 617.34712,504.51912 618.7711,504.88711 619.44311,505.26309 C 620.11509,505.6391 620.41908,506.16709 620.3551,506.84707 C 620.39508,507.67641 620.04309,508.28973 619.29912,508.68705 C 618.55511,509.08439 617.17912,509.28172 615.17117,509.27904 C 614.00218,509.26562 612.52862,509.17159 610.75048,508.99697 C 608.97233,508.82236 607.37551,508.64775 605.96003,508.47313 C 604.54453,508.29852 603.7963,508.2045 603.71532,508.19106 L 603.45932,515.42296 C 603.52648,515.44272 604.2597,515.58099 605.65899,515.83777 C 607.05828,516.09456 608.72068,516.35135 610.64619,516.60813 C 612.57168,516.86492 614.35734,517.00319 616.00316,517.02294 C 620.04175,517.05894 623.19638,516.26695 625.46704,514.64697 C 627.73765,513.027 628.8923,510.36303 628.93099,506.65508 C 628.9963,503.48446 628.19364,501.13783 626.52302,499.61517 C 624.85235,498.09254 621.92173,497.02589 617.73114,496.41521 C 615.38048,496.0619 613.77784,495.71257 612.9232,495.36722 C 612.06853,495.02191 611.66587,494.49659 611.71521,493.79124 C 611.66987,492.93128 611.95253,492.29928 612.5632,491.89527 C 613.17385,491.4913 614.3845,491.2913 616.19516,491.29527 C 617.50752,491.30794 619.06404,491.39643 620.86473,491.56075 C 622.66537,491.72512 624.25982,491.88946 625.64807,492.05378 C 627.03627,492.21815 627.76792,492.30664 627.84301,492.31926 L 627.971,485.15135 z"
       id="text2388"
       sodipodi:nodetypes="cccccccccccccccccccsccsccccccccccccccccccccccccscsccsssccccscccssscscsccscccscscccccsccsccccccccccsscscscscscssccsscscscscscssccccccccccccscscscscccscscscscccscscscscccscscscsccccccccsscscscscscssccsscscscscscsscc" />
  </g>
</svg>
