<?xml version="1.0" encoding="UTF-8" standalone="no"?>
<!-- Created with Inkscape (http://www.inkscape.org/) -->

<svg
   xmlns:dc="http://purl.org/dc/elements/1.1/"
   xmlns:cc="http://creativecommons.org/ns#"
   xmlns:rdf="http://www.w3.org/1999/02/22-rdf-syntax-ns#"
   xmlns:svg="http://www.w3.org/2000/svg"
   xmlns="http://www.w3.org/2000/svg"
   xmlns:sodipodi="http://sodipodi.sourceforge.net/DTD/sodipodi-0.dtd"
   xmlns:inkscape="http://www.inkscape.org/namespaces/inkscape"
   width="42"
   height="42"
   id="svg2"
   version="1.1"
   inkscape:version="0.47 r22583"
   sodipodi:docname="Extension.svg"
   inkscape:export-filename="/home/dmpop/Desktop/Extension.png"
   inkscape:export-xdpi="90.000008"
   inkscape:export-ydpi="90.000008">
  <defs
     id="defs4">
    <inkscape:perspective
       sodipodi:type="inkscape:persp3d"
       inkscape:vp_x="0 : 526.18109 : 1"
       inkscape:vp_y="0 : 1000 : 0"
       inkscape:vp_z="744.09448 : 526.18109 : 1"
       inkscape:persp3d-origin="372.04724 : 350.78739 : 1"
       id="perspective10" />
    <inkscape:perspective
       id="perspective2902"
       inkscape:persp3d-origin="0.5 : 0.33333333 : 1"
       inkscape:vp_z="1 : 0.5 : 1"
       inkscape:vp_y="0 : 1000 : 0"
       inkscape:vp_x="0 : 0.5 : 1"
       sodipodi:type="inkscape:persp3d" />
    <inkscape:perspective
       id="perspective2827"
       inkscape:persp3d-origin="0.5 : 0.33333333 : 1"
       inkscape:vp_z="1 : 0.5 : 1"
       inkscape:vp_y="0 : 1000 : 0"
       inkscape:vp_x="0 : 0.5 : 1"
       sodipodi:type="inkscape:persp3d" />
    <inkscape:perspective
       id="perspective3605"
       inkscape:persp3d-origin="0.5 : 0.33333333 : 1"
       inkscape:vp_z="1 : 0.5 : 1"
       inkscape:vp_y="0 : 1000 : 0"
       inkscape:vp_x="0 : 0.5 : 1"
       sodipodi:type="inkscape:persp3d" />
  </defs>
  <sodipodi:namedview
     id="base"
     pagecolor="#ffffff"
     bordercolor="#666666"
     borderopacity="1.0"
     inkscape:pageopacity="0.0"
     inkscape:pageshadow="2"
     inkscape:zoom="7.919596"
     inkscape:cx="27.203796"
     inkscape:cy="26.999301"
     inkscape:document-units="px"
     inkscape:current-layer="layer1"
     showgrid="false"
     inkscape:window-width="1054"
     inkscape:window-height="842"
     inkscape:window-x="171"
     inkscape:window-y="52"
     inkscape:window-maximized="0"
     showguides="true"
     inkscape:guide-bbox="true" />
  <metadata
     id="metadata7">
    <rdf:RDF>
      <cc:Work
         rdf:about="">
        <dc:format>image/svg+xml</dc:format>
        <dc:type
           rdf:resource="http://purl.org/dc/dcmitype/StillImage" />
        <dc:title></dc:title>
      </cc:Work>
    </rdf:RDF>
  </metadata>
  <g
     inkscape:label="Layer 1"
     inkscape:groupmode="layer"
     id="layer1"
     transform="translate(-323.21585,-473.58521)">
    <rect
       style="fill:#ebbcf7;fill-opacity:1;stroke:none"
       id="rect3589"
       width="42"
       height="42"
       x="323.21585"
       y="473.58521"
       ry="6.263988" />
    <path
       style="fill:#da71f3;fill-opacity:1;stroke:none"
       d="m 336.50294,510.27593 -10.29086,-17.75539 1.01965,-1.10108 16.67877,-11.02772 c 0,0 2.11516,4.56141 4.03676,5.8007 0.82896,0.53462 2.94996,-1.88564 2.94996,-1.88564 0.8687,-2.14016 -1.44091,-3.14394 0.24083,-5.06975 3.02053,-0.87678 4.67195,1.36191 6.42086,3.57512 0.79802,0.97158 2.42377,4.42556 2.66981,6.70118 0.27933,2.58337 -1.9738,3.94278 -2.88517,2.79625 0,0 -1.47058,-1.89882 -2.57355,-2.18489 -1.38501,-0.35921 -3.08026,0.63264 -2.62821,1.50453 l 3.65679,7.05303 -5.50386,4.36518 -2.07631,-3.14896 c -0.71578,-1.08556 0.61076,-2.81972 0.19972,-4.03752 -0.41104,-1.2178 -1.94906,-1.26905 -3.10072,-1.17471 l -3.28359,0.26898 -3.15989,2.46907 c 0,0 -0.5373,1.8516 -0.40678,2.89535 0.13813,1.10449 1.19343,2.64245 1.19343,2.64245 l 3.32159,-0.6499 2.11218,2.98418 -8.59132,4.97944 -9e-5,1e-4 z"
       id="path2931"
       sodipodi:nodetypes="ccccscccssssccszsccsccccc" />
    <path
       style="fill:#4d4d4d;fill-opacity:1"
       d="m 351.85267,504.64059 c -1.56708,-1.98831 -3.14887,-4.73342 -2.71205,-6.77791 0.43685,-2.04449 0.41598,-2.46169 -0.302,-3.02965 -1.12348,-0.88874 -2.78832,-0.63635 -5.37965,0.81187 -3.3005,1.84462 -4.64119,4.1869 -3.51176,6.13557 0.50552,0.87221 1.51267,0.80559 3.27663,-0.21679 0,0 0.76984,-0.49715 1.2349,-0.16114 1.44061,1.04089 2.35647,2.98165 3.34375,4.53769 0.18635,0.59912 -0.15259,0.84766 -4.84348,3.55138 -3.63507,2.09493 -5.16122,2.83702 -5.46407,2.65597 -0.23112,-0.13816 -2.29349,-3.41131 -4.58304,-7.27366 -2.28955,-3.86236 -4.98027,-8.20713 -5.97932,-9.65508 -3.51074,-4.31196 0.0622,-5.52797 3.97084,-7.82762 3.88755,-2.43185 7.76791,-5.06714 11.54722,-7.7711 4.2099,-3.4933 5.15818,3.11294 7.07847,4.47297 0.57367,0.4063 1.73578,-0.55849 2.33994,-1.03429 -1.17295,-3.31224 -1.37899,-6.84982 2.9903,-5.90759 2.90245,0.6259 5.25588,3.81176 6.9593,8.14043 1.50403,3.82197 1.72975,6.56356 -0.88211,7.5775 -2.61183,1.01393 -3.66793,-5.19004 -6.30819,-1.89389 -0.64642,0.80702 3.27373,5.43982 4.03674,8.62449 0.0498,0.55475 -0.42523,1.0019 -2.58834,2.43649 -1.45714,0.96634 -2.34882,1.56156 -2.88347,1.94454 -0.53465,0.38296 -1.0593,0.85444 -1.34058,0.65982 l -2e-5,1e-5 z m -6.701,-0.0386 c -0.68689,-1.18512 -0.69299,-1.18649 -2.01511,-0.63312 -1.85407,0.77612 -3.39861,0.22177 -4.45363,-1.59853 -1.65176,-2.84986 -0.40477,-5.85597 3.42441,-8.25525 3.95307,-2.47692 6.25022,-2.35442 8.38925,0.29411 0.39776,0.49257 0.93868,1.2861 0.46569,3.34166 -0.41131,1.78758 -0.38563,2.28029 0.16563,3.17957 0.35882,0.58527 0.75495,1.09926 0.88029,1.14212 0.12536,0.043 1.25058,-0.64434 2.50044,-1.5272 l 2.27252,-1.60511 -0.48563,-1.20755 c -0.26711,-0.66414 -1.2091,-2.45886 -2.09336,-3.98826 -1.01199,-1.74834 -1.97346,-2.73816 -1.50072,-3.33502 0.47275,-0.59686 2.86596,-2.39946 4.22741,-2.21454 1.51616,0.5704 1.72686,2.94749 3.5179,2.97633 1.31534,-0.76236 1.05107,-3.2457 -0.72819,-6.84286 -1.32954,-2.68795 -2.94387,-4.51457 -4.65271,-5.26456 -2.03348,-0.89247 -3.02143,0.48228 -1.82727,2.54262 0.99997,1.72531 0.81175,2.1012 -1.77335,3.54193 0,0 -1.28592,0.9013 -2.27601,0.6425 -0.99007,-0.25883 -1.88737,-2.24361 -1.88737,-2.24361 -1.24237,-2.02201 -1.97045,-2.96348 -2.36537,-3.05866 -0.42888,-0.10346 -1.61973,0.62686 -4.79649,2.9412 -2.32427,1.69331 -6.23116,4.25589 -8.68195,5.69464 -2.45082,1.43875 -4.28136,2.51744 -4.30021,3.10654 -0.0188,0.58914 2.27066,4.09377 5.21304,8.96829 0,0 4.89494,9.0276 5.49861,8.88047 0.59937,0.27588 4.93209,-2.3099 7.2361,-3.74424 0.72079,-0.33502 0.68816,-0.62576 0.0461,-1.73354 l 0,0 z"
       id="path2908"
       sodipodi:nodetypes="czssscscssscccscsszscszcccssssssscccszccsssczcssszccccc" />
  </g>
</svg>
