<?xml version="1.0" encoding="UTF-8" standalone="no"?>
<!-- Created with Inkscape (http://www.inkscape.org/) -->
<svg
   xmlns:dc="http://purl.org/dc/elements/1.1/"
   xmlns:cc="http://creativecommons.org/ns#"
   xmlns:rdf="http://www.w3.org/1999/02/22-rdf-syntax-ns#"
   xmlns:svg="http://www.w3.org/2000/svg"
   xmlns="http://www.w3.org/2000/svg"
   xmlns:sodipodi="http://sodipodi.sourceforge.net/DTD/sodipodi-0.dtd"
   xmlns:inkscape="http://www.inkscape.org/namespaces/inkscape"
   width="469.17392"
   height="83.285706"
   id="svg2"
   sodipodi:version="0.32"
   inkscape:version="0.46"
   sodipodi:docname="WriterToolsW.svg"
   inkscape:output_extension="org.inkscape.output.svg.inkscape"
   version="1.0"
   inkscape:export-filename="C:\Documents and Settings\Dmitri Popov\Skrivebord\WriterTools.png"
   inkscape:export-xdpi="67.5"
   inkscape:export-ydpi="67.5">
  <defs
     id="defs4">
    <inkscape:perspective
       sodipodi:type="inkscape:persp3d"
       inkscape:vp_x="0 : 526.18109 : 1"
       inkscape:vp_y="0 : 1000 : 0"
       inkscape:vp_z="744.09448 : 526.18109 : 1"
       inkscape:persp3d-origin="372.04724 : 350.78739 : 1"
       id="perspective10" />
    <inkscape:perspective
       id="perspective3229"
       inkscape:persp3d-origin="372.04724 : 350.78739 : 1"
       inkscape:vp_z="744.09448 : 526.18109 : 1"
       inkscape:vp_y="0 : 1000 : 0"
       inkscape:vp_x="0 : 526.18109 : 1"
       sodipodi:type="inkscape:persp3d" />
    <inkscape:perspective
       id="perspective3297"
       inkscape:persp3d-origin="372.04724 : 350.78739 : 1"
       inkscape:vp_z="744.09448 : 526.18109 : 1"
       inkscape:vp_y="0 : 1000 : 0"
       inkscape:vp_x="0 : 526.18109 : 1"
       sodipodi:type="inkscape:persp3d" />
  </defs>
  <sodipodi:namedview
     id="base"
     pagecolor="#ffffff"
     bordercolor="#666666"
     borderopacity="1.0"
     gridtolerance="10000"
     guidetolerance="10"
     objecttolerance="10"
     inkscape:pageopacity="0.0"
     inkscape:pageshadow="2"
     inkscape:zoom="1.4"
     inkscape:cx="215.6"
     inkscape:cy="70.850454"
     inkscape:document-units="px"
     inkscape:current-layer="layer1"
     showgrid="false"
     inkscape:window-width="1241"
     inkscape:window-height="805"
     inkscape:window-x="62"
     inkscape:window-y="11"
     showguides="true"
     inkscape:guide-bbox="true" />
  <metadata
     id="metadata7">
    <rdf:RDF>
      <cc:Work
         rdf:about="">
        <dc:format>image/svg+xml</dc:format>
        <dc:type
           rdf:resource="http://purl.org/dc/dcmitype/StillImage" />
      </cc:Work>
    </rdf:RDF>
  </metadata>
  <g
     inkscape:label="Layer 1"
     inkscape:groupmode="layer"
     id="layer1"
     transform="translate(-172.04647,-480.28054)">
    <rect
       style="fill:#cd87ec;fill-opacity:1;stroke:#ad6ec5;stroke-width:5.81063032;stroke-linejoin:round;stroke-miterlimit:4;stroke-dasharray:none;stroke-opacity:1"
       id="rect3163"
       width="77.475075"
       height="77.475075"
       x="174.95178"
       y="483.18585"
       ry="11.314753" />
    <path
       style="opacity:0.27000002;fill:#ffffff;fill-opacity:1;stroke:none;stroke-width:12.88300037;stroke-linejoin:round;stroke-miterlimit:4;stroke-dasharray:none;stroke-opacity:1"
       d="M 213.46163,519.13877 C 203.76394,519.28326 188.79556,521.51701 174.72409,524.06166 L 174.72409,549.34194 C 174.72409,555.61031 179.77433,560.66056 186.04272,560.66056 L 240.88054,560.66056 C 247.14892,560.66056 252.19917,555.61031 252.19917,549.34194 L 252.19917,522.75023 C 237.92566,520.66513 223.19161,518.9938 213.46163,519.13877 z"
       id="rect3166" />
    <text
       id="text2394"
       y="543.95044"
       x="183.64949"
       style="font-size:63.84742355px;font-style:normal;font-weight:normal;opacity:0.51999996;fill:#ffffff;fill-opacity:1;stroke:none;stroke-width:1px;stroke-linecap:butt;stroke-linejoin:miter;stroke-opacity:1;font-family:Bitstream Vera Sans"
       xml:space="preserve"><tspan
         style="font-size:63.84742355px;font-style:normal;font-variant:normal;font-weight:900;font-stretch:normal;text-align:start;line-height:125%;writing-mode:lr-tb;text-anchor:start;fill:#ffffff;font-family:TitilliumText14L;-inkscape-font-specification:TitilliumText14L Heavy"
         y="543.95044"
         x="183.64949"
         id="tspan2396"
         sodipodi:role="line">W</tspan></text>
    <path
       style="font-size:40px;font-style:normal;font-weight:normal;line-height:125%;fill:#ffac00;fill-opacity:1;stroke:none;stroke-width:1px;stroke-linecap:butt;stroke-linejoin:miter;stroke-opacity:1;font-family:Bitstream Vera Sans"
       d="M 265.95305,499.80978 L 275.80893,543.96921 L 288.92876,543.96921 L 294.49669,512.80161 L 300.12861,543.96921 L 313.24844,543.96921 L 323.10432,499.80978 L 313.82444,499.80978 L 307.16852,534.88133 L 306.20853,534.88133 L 299.55262,499.80978 L 289.50475,499.80978 L 282.84884,534.88133 L 281.88885,534.88133 L 275.23293,499.80978 L 265.95305,499.80978 z M 328.95502,543.96921 L 337.53091,543.96921 L 337.53091,523.23348 C 337.54956,523.18683 338.32822,522.86417 339.86688,522.26549 C 341.40551,521.66685 343.59214,521.0722 346.42679,520.48152 L 346.42679,511.26563 C 343.84414,511.84299 341.7295,512.59231 340.08287,513.5136 C 338.43621,514.43496 337.58556,514.94428 337.53091,515.04159 L 337.53091,512.03362 L 328.95502,512.03362 L 328.95502,543.96921 z M 351.95502,543.96921 L 360.53091,543.96921 L 360.53091,512.03362 L 351.95502,512.03362 L 351.95502,543.96921 z M 351.95502,507.87368 L 360.53091,507.87368 L 360.53091,499.10579 L 351.95502,499.10579 L 351.95502,507.87368 z M 385.9758,519.77752 L 385.9758,512.03362 L 378.1039,512.03362 L 378.1039,503.07374 L 369.52801,503.07374 L 369.52801,512.03362 L 365.75206,512.03362 L 365.75206,519.77752 L 369.52801,519.77752 L 369.52801,532.57736 C 369.46001,537.11598 370.156,540.2946 371.61599,542.11324 C 373.07596,543.93188 375.70792,544.80653 379.51188,544.7372 C 380.76385,544.6972 382.13183,544.5372 383.61583,544.25721 C 385.09979,543.97721 385.90778,543.81721 386.0398,543.77722 L 385.6558,536.41731 C 385.56512,536.42265 384.97846,536.44399 383.89583,536.48131 C 382.81315,536.51865 381.7785,536.53998 380.79187,536.54531 C 379.50387,536.55065 378.71988,536.17199 378.4399,535.40932 C 378.15989,534.64668 378.04789,533.46803 378.1039,531.87337 L 378.1039,519.77752 L 385.9758,519.77752 z M 404.51085,536.8653 C 402.22953,536.87731 400.58422,536.46932 399.57491,535.64132 C 398.56558,534.81334 398.05626,533.49336 398.04693,531.68137 L 416.86269,531.68137 L 417.50268,525.66545 C 417.50932,520.83753 416.36,517.22958 414.05473,514.84159 C 411.7494,512.45365 408.24811,511.26167 403.55086,511.26563 C 398.87358,511.26833 395.34829,512.70298 392.975,515.56958 C 390.60169,518.43623 389.41237,522.71884 389.40704,528.41741 C 389.37638,534.13735 390.46169,538.29729 392.663,540.89725 C 394.8643,543.49722 398.36558,544.7772 403.16687,544.7372 C 406.32547,544.66254 409.2881,544.36387 412.05475,543.84121 C 414.82136,543.31855 416.296,543.01989 416.4787,542.94523 L 416.3507,536.28931 C 416.18534,536.31332 414.86802,536.40932 412.39875,536.57731 C 409.92942,536.74531 407.30013,536.84131 404.51085,536.8653 L 404.51085,536.8653 z M 397.98293,525.08946 C 397.98692,522.98284 398.41092,521.42019 399.25492,520.40151 C 400.09889,519.38289 401.53087,518.87623 403.55086,518.88154 C 405.54415,518.85623 406.96546,519.32289 407.81481,520.28152 C 408.66411,521.24019 409.07743,522.84284 409.05479,525.08946 L 397.98293,525.08946 z M 423.95502,543.96921 L 432.53091,543.96921 L 432.53091,523.23348 C 432.54956,523.18683 433.32822,522.86417 434.86688,522.26549 C 436.40551,521.66685 438.59214,521.0722 441.42679,520.48152 L 441.42679,511.26563 C 438.84414,511.84299 436.7295,512.59231 435.08287,513.5136 C 433.43621,514.43496 432.58556,514.94428 432.53091,515.04159 L 432.53091,512.03362 L 423.95502,512.03362 L 423.95502,543.96921 z M 445.2727,515.80958 L 453.0806,515.80958 L 453.40059,499.80978 L 445.1447,499.80978 L 445.2727,515.80958 z M 479.88171,512.86561 C 479.81374,512.84589 479.08209,512.70762 477.68678,512.4508 C 476.29142,512.19405 474.64008,511.93726 472.73277,511.68044 C 470.82542,511.42369 469.06979,511.28542 467.46587,511.26563 C 464.00857,511.23633 461.09928,512.04699 458.73799,513.6976 C 456.37668,515.34828 455.14736,518.01491 455.05003,521.6975 C 455.03136,525.02947 455.99668,527.40544 457.946,528.82541 C 459.8953,530.2454 462.94059,531.26139 467.08188,531.87337 C 469.25783,532.23338 470.68181,532.60137 471.35382,532.97735 C 472.0258,533.35336 472.32979,533.88135 472.26581,534.56133 C 472.30579,535.39067 471.9538,536.00399 471.20983,536.40131 C 470.46582,536.79865 469.08983,536.99598 467.08188,536.9933 C 465.91289,536.97988 464.43933,536.88585 462.66119,536.71123 C 460.88304,536.53662 459.28622,536.36201 457.87074,536.18739 C 456.45524,536.01278 455.70701,535.91876 455.62603,535.90532 L 455.37003,543.13722 C 455.43719,543.15698 456.17041,543.29525 457.5697,543.55203 C 458.96899,543.80882 460.63139,544.06561 462.5569,544.32239 C 464.48239,544.57918 466.26805,544.71745 467.91387,544.7372 C 471.95246,544.7732 475.10709,543.98121 477.37775,542.36123 C 479.64836,540.74126 480.80301,538.07729 480.8417,534.36934 C 480.90701,531.19872 480.10435,528.85209 478.43373,527.32943 C 476.76306,525.8068 473.83244,524.74015 469.64185,524.12947 C 467.29119,523.77616 465.68855,523.42683 464.83391,523.08148 C 463.97924,522.73617 463.57658,522.21085 463.62592,521.5055 C 463.58058,520.64554 463.86324,520.01354 464.47391,519.60953 C 465.08456,519.20556 466.29521,519.00556 468.10587,519.00953 C 469.41823,519.0222 470.97475,519.11069 472.77544,519.27501 C 474.57608,519.43938 476.17053,519.60372 477.55878,519.76804 C 478.94698,519.93241 479.67863,520.0209 479.75372,520.03352 L 479.88171,512.86561 z M 496.15208,508.32167 L 507.79993,508.32167 L 507.79993,543.96921 L 516.63182,543.96921 L 516.63182,508.32167 L 528.15167,508.32167 L 528.15167,499.80978 L 496.15208,499.80978 L 496.15208,508.32167 z M 544.50185,511.26563 C 539.01658,511.34567 535.1713,512.89764 532.966,515.92158 C 530.76069,518.94556 529.69937,522.96151 529.78204,527.96942 C 529.69938,532.98003 530.7607,537.00664 532.966,540.04926 C 535.1713,543.09189 539.01658,544.65454 544.50185,544.7372 C 549.98709,544.65454 553.83237,543.09189 556.03771,540.04926 C 558.24298,537.00664 559.3043,532.98003 559.22167,527.96942 C 559.3043,522.9615 558.24298,518.94556 556.03771,515.92157 C 553.83237,512.89764 549.98709,511.34566 544.50185,511.26563 L 544.50185,511.26563 z M 544.50185,536.9933 C 542.1792,536.98531 540.58456,536.21732 539.71792,534.68933 C 538.85125,533.16136 538.44059,530.92139 538.48593,527.96942 C 538.44059,525.02014 538.85125,522.79084 539.71792,521.2815 C 540.58456,519.77221 542.1792,519.01489 544.50185,519.00953 C 546.82447,519.01489 548.41912,519.77221 549.28579,521.2815 C 550.15243,522.79084 550.56309,525.02014 550.51778,527.96942 C 550.56309,530.92139 550.15243,533.16136 549.28579,534.68933 C 548.41912,536.21732 546.82447,536.98531 544.50185,536.9933 L 544.50185,536.9933 z M 578.37685,511.26563 C 572.89158,511.34567 569.0463,512.89764 566.841,515.92158 C 564.63569,518.94556 563.57437,522.96151 563.65704,527.96942 C 563.57438,532.98003 564.6357,537.00664 566.841,540.04926 C 569.0463,543.09189 572.89158,544.65454 578.37685,544.7372 C 583.86209,544.65454 587.70737,543.09189 589.91271,540.04926 C 592.11798,537.00664 593.1793,532.98003 593.09667,527.96942 C 593.1793,522.9615 592.11798,518.94556 589.91271,515.92157 C 587.70737,512.89764 583.86209,511.34566 578.37685,511.26563 L 578.37685,511.26563 z M 578.37685,536.9933 C 576.0542,536.98531 574.45956,536.21732 573.59292,534.68933 C 572.72625,533.16136 572.31559,530.92139 572.36093,527.96942 C 572.31559,525.02014 572.72625,522.79084 573.59292,521.2815 C 574.45956,519.77221 576.0542,519.01489 578.37685,519.00953 C 580.69947,519.01489 582.29412,519.77221 583.16079,521.2815 C 584.02743,522.79084 584.43809,525.02014 584.39278,527.96942 C 584.43809,530.92139 584.02743,533.16136 583.16079,534.68933 C 582.29412,536.21732 580.69947,536.98531 578.37685,536.9933 L 578.37685,536.9933 z M 599.58002,543.96921 L 608.15591,543.96921 L 608.15591,499.16979 L 599.58002,499.16979 L 599.58002,543.96921 z M 640.25671,512.86561 C 640.18874,512.84589 639.45709,512.70762 638.06178,512.4508 C 636.66642,512.19405 635.01508,511.93726 633.10777,511.68044 C 631.20042,511.42369 629.44479,511.28542 627.84087,511.26563 C 624.38357,511.23633 621.47428,512.04699 619.11299,513.6976 C 616.75168,515.34828 615.52236,518.01491 615.42503,521.6975 C 615.40636,525.02947 616.37168,527.40544 618.321,528.82541 C 620.2703,530.2454 623.31559,531.26139 627.45688,531.87337 C 629.63283,532.23338 631.05681,532.60137 631.72882,532.97735 C 632.4008,533.35336 632.70479,533.88135 632.64081,534.56133 C 632.68079,535.39067 632.3288,536.00399 631.58483,536.40131 C 630.84082,536.79865 629.46483,536.99598 627.45688,536.9933 C 626.28789,536.97988 624.81433,536.88585 623.03619,536.71123 C 621.25804,536.53662 619.66122,536.36201 618.24574,536.18739 C 616.83024,536.01278 616.08201,535.91876 616.00103,535.90532 L 615.74503,543.13722 C 615.81219,543.15698 616.54541,543.29525 617.9447,543.55203 C 619.34399,543.80882 621.00639,544.06561 622.9319,544.32239 C 624.85739,544.57918 626.64305,544.71745 628.28887,544.7372 C 632.32746,544.7732 635.48209,543.98121 637.75275,542.36123 C 640.02336,540.74126 641.17801,538.07729 641.2167,534.36934 C 641.28201,531.19872 640.47935,528.85209 638.80873,527.32943 C 637.13806,525.8068 634.20744,524.74015 630.01685,524.12947 C 627.66619,523.77616 626.06355,523.42683 625.20891,523.08148 C 624.35424,522.73617 623.95158,522.21085 624.00092,521.5055 C 623.95558,520.64554 624.23824,520.01354 624.84891,519.60953 C 625.45956,519.20556 626.67021,519.00556 628.48087,519.00953 C 629.79323,519.0222 631.34975,519.11069 633.15044,519.27501 C 634.95108,519.43938 636.54553,519.60372 637.93378,519.76804 C 639.32198,519.93241 640.05363,520.0209 640.12872,520.03352 L 640.25671,512.86561 z"
       id="text2388"
       sodipodi:nodetypes="cccccccccccccccccccsccsccccccccccccccccccccccccscsccsssccccscccssscscsccscccscscccccsccsccccccccccsscscscscscssccsscscscscscssccccccccccccscscscscccscscscscccscscscscccscscscsccccccccsscscscscscssccsscscscscscsscc" />
  </g>
</svg>
