<?xml version="1.0" encoding="UTF-8" standalone="no"?>
<!-- Created with Inkscape (http://www.inkscape.org/) -->
<svg
   xmlns:dc="http://purl.org/dc/elements/1.1/"
   xmlns:cc="http://creativecommons.org/ns#"
   xmlns:rdf="http://www.w3.org/1999/02/22-rdf-syntax-ns#"
   xmlns:svg="http://www.w3.org/2000/svg"
   xmlns="http://www.w3.org/2000/svg"
   xmlns:sodipodi="http://sodipodi.sourceforge.net/DTD/sodipodi-0.dtd"
   xmlns:inkscape="http://www.inkscape.org/namespaces/inkscape"
   width="238.6216"
   height="81.453003"
   id="svg2"
   sodipodi:version="0.32"
   inkscape:version="0.46"
   sodipodi:docbase="/home/dmpop/2E2DB00D/WriterTools"
   sodipodi:docname="writertools_logo.svg"
   inkscape:output_extension="org.inkscape.output.svg.inkscape"
   inkscape:export-filename="/home/dmpop/Desktop/writertools.png"
   inkscape:export-xdpi="299.96191"
   inkscape:export-ydpi="299.96191"
   version="1.0">
  <defs
     id="defs4">
    <inkscape:perspective
       sodipodi:type="inkscape:persp3d"
       inkscape:vp_x="0 : 61.5 : 1"
       inkscape:vp_y="0 : 1000 : 0"
       inkscape:vp_z="247 : 61.5 : 1"
       inkscape:persp3d-origin="123.5 : 41 : 1"
       id="perspective19" />
  </defs>
  <sodipodi:namedview
     id="base"
     pagecolor="#ffffff"
     bordercolor="#666666"
     borderopacity="1.0"
     gridtolerance="10000"
     guidetolerance="10"
     objecttolerance="10"
     inkscape:pageopacity="0.0"
     inkscape:pageshadow="2"
     inkscape:zoom="2.8"
     inkscape:cx="117.33591"
     inkscape:cy="64.65898"
     inkscape:document-units="px"
     inkscape:current-layer="layer1"
     showguides="true"
     inkscape:guide-bbox="true"
     inkscape:window-width="1266"
     inkscape:window-height="769"
     inkscape:window-x="4"
     inkscape:window-y="25"
     width="247px"
     height="123px"
     showborder="true"
     borderlayer="true"
     inkscape:showpageshadow="false"
     showgrid="false" />
  <metadata
     id="metadata7">
    <rdf:RDF>
      <cc:Work
         rdf:about="">
        <dc:format>image/svg+xml</dc:format>
        <dc:type
           rdf:resource="http://purl.org/dc/dcmitype/StillImage" />
      </cc:Work>
    </rdf:RDF>
  </metadata>
  <g
     inkscape:label="Layer 1"
     inkscape:groupmode="layer"
     id="layer1"
     transform="translate(-1.1339221,-39.264851)">
    <flowRoot
       xml:space="preserve"
       id="flowRoot2160"
       transform="translate(-94.383245,-29.474621)"><flowRegion
         id="flowRegion2162"><rect
           id="rect2164"
           width="187.88835"
           height="46.467026"
           x="113.13708"
           y="213.93558" /></flowRegion><flowPara
         id="flowPara2166"
         style="font-size:64px;font-style:normal;font-variant:normal;font-weight:normal;font-stretch:normal;text-align:start;line-height:125%;writing-mode:lr-tb;text-anchor:start;font-family:Familian Elder">NO THICK MANUALS</flowPara></flowRoot>    <text
       xml:space="preserve"
       style="font-size:57px;font-style:normal;font-variant:normal;font-weight:bold;font-stretch:normal;text-align:start;line-height:125%;writing-mode:lr-tb;text-anchor:start;fill:#86b6a1;fill-opacity:1;stroke:none;stroke-width:1px;stroke-linecap:butt;stroke-linejoin:miter;stroke-opacity:1;font-family:COM4t Sans"
       x="3.0149221"
       y="96.492851"
       id="text2168"
       sodipodi:linespacing="125%"><tspan
         sodipodi:role="line"
         id="tspan2170"
         x="3.0149221"
         y="96.492851"
         style="font-size:57px;font-style:normal;font-variant:normal;font-weight:normal;font-stretch:normal;text-align:start;line-height:125%;writing-mode:lr-tb;text-anchor:start;fill:#86b6a1;fill-opacity:1;font-family:Yanone Kaffeesatz"><tspan
           style="fill:#800080"
           id="tspan2171">Writer's</tspan><tspan
           style="fill:#d45500"
           id="tspan2177"> Tools</tspan></tspan></text>
    <text
       xml:space="preserve"
       style="font-size:6.60373449px;font-style:normal;font-weight:normal;line-height:125%;fill:#241c1c;fill-opacity:1;stroke:none;stroke-width:1px;stroke-linecap:butt;stroke-linejoin:miter;stroke-opacity:1;font-family:Bitstream Vera Sans"
       x="7.9853888"
       y="105.27392"
       id="text3222"
       sodipodi:linespacing="125%"><tspan
         sodipodi:role="line"
         id="tspan3224"
         x="7.9853888"
         y="105.27392"
         style="font-size:6.1151495px;font-style:normal;font-variant:normal;font-weight:normal;font-stretch:normal;text-align:start;line-height:125%;writing-mode:lr-tb;text-anchor:start;fill:#241c1c;fill-opacity:1;font-family:Droid Sans;-inkscape-font-specification:Droid Sans">OpenOffice.org extension for writing professionals | writertools.googlecode.com</tspan></text>
    <path
       style="font-size:57px;font-style:normal;font-variant:normal;font-weight:bold;font-stretch:normal;text-align:start;line-height:125%;writing-mode:lr-tb;text-anchor:start;opacity:0.37000002;fill:#ffffff;fill-opacity:1;stroke:none;stroke-width:1px;stroke-linecap:butt;stroke-linejoin:miter;stroke-opacity:1;font-family:COM4t Sans"
       d="M 116.15753,51.658788 C 115.35953,51.658788 114.66128,51.706538 114.37628,51.877538 C 113.74927,52.219538 114.94428,62.708288 115.00128,63.221288 C 115.00128,63.221288 117.50678,63.090788 117.56378,63.033788 C 117.96278,62.691778 118.78253,54.950038 118.78253,51.815038 C 118.21252,51.701038 117.12653,51.658788 116.15753,51.658788 z M 208.53253,54.565038 C 204.82754,54.565038 203.90753,54.549788 203.90753,56.658788 L 203.90753,81.283788 C 205.44489,81.333368 207.01008,81.389938 208.53253,81.440038 L 208.53253,54.565038 z M 58.97002,54.721288 C 57.146022,54.721288 56.34502,56.106788 56.34502,58.158788 C 56.28802,60.837788 57.206771,61.752538 58.68877,61.752538 C 60.398768,61.752538 61.25677,60.370788 61.31377,58.033788 C 61.31377,55.639788 60.737018,54.721288 58.97002,54.721288 z M 4.0325191,56.565038 C 3.2984221,56.664788 3.2578941,57.110788 3.4075191,57.908788 C 3.4075191,57.908788 6.0714251,72.397158 8.2512691,83.721288 C 9.8883273,83.629608 11.413941,83.532788 13.09502,83.440038 C 12.849044,81.961308 12.626971,80.545548 12.31377,78.783788 L 8.1887691,56.565038 L 4.3762691,56.565038 C 4.2408941,56.565038 4.1373901,56.550788 4.0325191,56.565038 z M 35.84502,56.565038 C 35.237169,56.664788 35.088395,57.110788 34.93877,57.908788 L 31.28252,78.783788 C 31.073158,80.114738 30.886419,81.336238 30.72002,82.502538 C 32.301409,82.420448 33.844031,82.333738 35.43877,82.252538 C 37.562745,70.652838 40.06377,56.565038 40.06377,56.565038 L 36.12627,56.565038 C 36.019395,56.565038 35.931856,56.550788 35.84502,56.565038 z M 145.12628,56.565038 C 144.85375,56.610458 144.28253,56.807038 144.28253,57.533788 L 144.28253,60.877538 L 152.03253,60.877538 L 152.03253,79.846288 C 153.58139,79.878638 155.08223,79.904748 156.65753,79.940038 L 156.65753,60.877538 L 163.68878,60.877538 C 163.68878,60.877528 164.65753,60.883288 164.65753,59.971288 L 164.65753,56.565038 L 145.25128,56.565038 C 145.25128,56.565038 145.21712,56.549898 145.12628,56.565038 z M 73.37627,57.690038 C 69.557274,57.690028 68.68877,57.687788 68.68877,59.283788 L 68.68877,67.940038 L 65.84502,67.940038 C 64.876023,67.940038 64.81377,68.406038 64.81377,71.940038 L 68.68877,71.940038 L 68.68877,80.690038 C 70.273874,80.624068 71.812898,80.564718 73.37627,80.502538 L 73.37627,71.940038 L 78.28252,71.940038 C 79.194518,71.940048 79.18877,71.531038 79.18877,67.940038 L 73.37627,67.940038 L 73.37627,57.690038 z M 20.43877,58.502538 C 19.58377,58.559548 19.48477,58.934288 19.31377,59.846288 L 15.78252,78.783788 C 15.501822,80.449268 15.291539,81.923078 15.09502,83.346288 C 16.598917,83.263848 18.03195,83.179028 19.56377,83.096288 L 20.00127,80.846288 C 20.514269,77.882298 21.19602,71.935538 21.59502,68.002538 C 22.05102,71.935528 22.718021,77.856538 23.34502,80.877538 L 23.78252,82.877538 C 25.315874,82.795878 26.886175,82.708838 28.43877,82.627538 C 28.24414,81.430498 28.059736,80.167348 27.81377,78.783788 L 23.81377,58.502538 L 20.50127,58.502538 L 20.43877,58.502538 z M 49.06377,67.096288 C 46.270773,67.096298 43.935767,67.777788 41.31377,69.658788 L 41.31377,81.971288 C 42.887946,81.893228 44.423585,81.797738 46.00127,81.721288 L 46.03252,73.065038 C 47.115519,71.982038 48.559771,71.533788 49.81377,71.533788 C 50.896768,71.533788 51.677521,71.765288 52.53252,72.221288 C 52.931519,71.252298 53.06377,69.988038 53.06377,69.190038 C 53.063771,67.765038 51.970767,67.096288 49.06377,67.096288 z M 90.90752,67.096288 C 86.265787,67.096298 81.68631,68.617168 80.93877,80.221288 C 82.545906,80.162838 84.088114,80.118158 85.65752,80.065038 C 86.13625,73.017308 88.147187,71.127538 90.37627,71.127538 C 92.827269,71.127548 93.56927,72.867288 93.62627,76.971288 C 93.626271,77.833798 93.599916,78.892988 93.47002,79.815038 C 95.023642,79.770228 96.535417,79.727798 98.03252,79.690038 C 98.097925,78.605478 98.12627,77.492128 98.12627,76.440038 C 98.126269,70.341028 95.695515,67.096288 90.90752,67.096288 z M 109.97003,67.096288 C 107.17703,67.096298 104.84202,67.777788 102.22003,69.658788 L 102.22003,79.596288 C 103.86156,79.561228 105.3552,79.527148 106.90753,79.502538 L 106.93878,73.065038 C 108.02178,71.982038 109.43478,71.533788 110.68878,71.533788 C 111.77178,71.533788 112.58378,71.765288 113.43878,72.221288 C 113.83778,71.252298 113.93878,69.988038 113.93878,69.190038 C 113.93878,67.765038 112.87702,67.096288 109.97003,67.096288 z M 126.00128,67.158788 C 119.90228,67.158788 116.87628,69.497788 116.87628,73.658788 C 116.87628,75.600788 117.71686,77.429408 119.68878,79.408788 C 121.93223,79.412828 124.3472,79.451548 126.78253,79.471288 L 124.28253,77.190038 C 122.74353,75.708028 122.28253,74.846538 122.28253,73.877538 C 122.28253,72.053528 124.16603,71.127538 126.84503,71.127538 C 129.01103,71.127548 130.72878,71.664038 132.43878,72.690038 C 132.95178,72.006048 133.47003,70.806038 133.47003,70.065038 C 133.47003,68.982028 131.92927,67.158788 126.00128,67.158788 z M 170.18878,67.158788 C 164.68407,67.158788 161.30126,71.144178 160.84503,80.065038 C 162.47881,80.103638 164.19149,80.148788 165.84503,80.190038 C 166.12035,73.103938 167.80678,71.127538 170.09503,71.127538 C 172.59138,71.127548 173.8657,72.853308 174.03253,80.408788 C 175.71953,80.454138 177.36837,80.486388 179.06378,80.533788 C 178.81476,70.178508 175.90577,67.158788 170.18878,67.158788 z M 191.12628,67.158788 C 185.51323,67.158788 182.09836,71.301218 181.75128,80.596288 C 183.44963,80.644688 185.08255,80.702468 186.78253,80.752538 C 186.99157,73.213788 188.65488,71.127538 191.00128,71.127538 C 193.56187,71.127548 194.85916,72.937048 194.97003,81.002538 C 196.66306,81.054808 198.31823,81.105488 200.00128,81.158788 C 199.85325,70.307318 196.95492,67.158788 191.12628,67.158788 z M 221.97003,67.158788 C 215.87104,67.158788 212.84503,69.497788 212.84503,73.658788 C 212.84503,75.710778 213.74703,77.643538 215.97003,79.752538 L 218.06378,81.752538 C 220.66846,81.841578 223.04284,81.913968 225.56378,82.002538 L 220.25128,77.190038 C 218.71228,75.708028 218.25128,74.846538 218.25128,73.877538 C 218.25129,72.053528 220.13478,71.127538 222.81378,71.127538 C 224.97977,71.127548 226.69753,71.664038 228.40753,72.690038 C 228.92052,72.006048 229.43878,70.806038 229.43878,70.065038 C 229.43877,68.982028 227.89802,67.158788 221.97003,67.158788 z M 61.12627,67.940038 C 57.364273,67.940038 56.40752,67.956038 56.40752,70.065038 L 56.40752,81.252538 C 57.983414,81.180608 59.560081,81.103018 61.12627,81.033788 L 61.12627,67.940038 z"
       id="text3162" />
  </g>
</svg>
