<?xml version="1.0" encoding="UTF-8" standalone="no"?>
<!-- Created with Inkscape (http://www.inkscape.org/) -->
<svg
   xmlns:dc="http://purl.org/dc/elements/1.1/"
   xmlns:cc="http://web.resource.org/cc/"
   xmlns:rdf="http://www.w3.org/1999/02/22-rdf-syntax-ns#"
   xmlns:svg="http://www.w3.org/2000/svg"
   xmlns="http://www.w3.org/2000/svg"
   xmlns:sodipodi="http://sodipodi.sourceforge.net/DTD/sodipodi-0.dtd"
   xmlns:inkscape="http://www.inkscape.org/namespaces/inkscape"
   width="744.09448819"
   height="1052.3622047"
   id="svg2"
   sodipodi:version="0.32"
   inkscape:version="0.45"
   sodipodi:docbase="C:\Documents and Settings\Dmitri Popov\Desktop"
   sodipodi:docname="WriterToolsLogo.svg"
   inkscape:output_extension="org.inkscape.output.svg.inkscape"
   sodipodi:modified="true">
  <defs
     id="defs4" />
  <sodipodi:namedview
     id="base"
     pagecolor="#ffffff"
     bordercolor="#666666"
     borderopacity="1.0"
     gridtolerance="10000"
     guidetolerance="10"
     objecttolerance="10"
     inkscape:pageopacity="0.0"
     inkscape:pageshadow="2"
     inkscape:zoom="0.49497475"
     inkscape:cx="375"
     inkscape:cy="479.5939"
     inkscape:document-units="px"
     inkscape:current-layer="layer1"
     inkscape:window-width="1440"
     inkscape:window-height="844"
     inkscape:window-x="0"
     inkscape:window-y="22" />
  <metadata
     id="metadata7">
    <rdf:RDF>
      <cc:Work
         rdf:about="">
        <dc:format>image/svg+xml</dc:format>
        <dc:type
           rdf:resource="http://purl.org/dc/dcmitype/StillImage" />
      </cc:Work>
    </rdf:RDF>
  </metadata>
  <g
     inkscape:label="Layer 1"
     inkscape:groupmode="layer"
     id="layer1">
    <path
       style="fill:#c7b1fd;fill-opacity:1"
       d="M 436.70064,660.7368 C 425.00832,675.72185 413.13502,691.85429 395.17379,699.63896 C 374.76,701.59667 376.70723,732.58974 352.10119,722.88892 C 313.93477,713.37508 275.39739,705.1803 237.50461,694.43399 C 204.73279,688.78604 170.24076,681.08251 145.91802,656.53499 C 133.78415,646.19674 126.80862,631.41169 145.62544,625.52758 C 156.75949,620.36767 164.55846,617.64986 176.11948,618.16136 C 185.60911,618.78205 199.42475,618.9002 205.89264,619.47811 C 220.84525,623.37516 233.47296,622.66957 247.38572,627.58508 C 257.80346,630.78982 266.28535,630.89225 276.99321,634.69704 C 285.33706,634.36195 302.2791,644.37149 290.93586,643.11835 C 260.74757,633.49619 229.57245,625.77763 197.99286,622.27867 C 178.38535,622.25932 157.29885,620.75072 140.72797,633.42282 C 125.84193,639.58987 151.96038,653.66752 155.08806,661.36531 C 166.8129,666.23893 174.8267,676.59585 187.92271,678.58849 C 190.33977,680.74301 198.77966,683.37234 202.20858,684.27666 C 206.89493,686.32764 213.89606,687.88321 220.76076,688.2407 C 227.97317,690.15145 239.5768,690.12247 247.59554,693.6361 C 255.31625,695.52222 265.03817,698.06744 271.84105,700.6863 C 295.48338,705.93953 319.15788,710.47016 342.46485,717.2923 C 354.28885,719.68691 377.26882,725.53131 377.00118,706.6295 C 361.43061,709.89336 344.4523,701.08937 339.05686,686.15268 C 330.18903,673.15767 330.59845,655.97082 334.2038,641.20645 C 333.24532,635.23884 305.76005,625.64884 301.83353,640.58611 C 300.01571,646.4923 294.08762,665.80892 296.85528,646.81446 C 297.26005,617.57614 323.13307,636.87845 336.82125,632.20653 C 344.41096,614.32759 358.50823,598.5082 367.61124,580.82944 C 373.8237,571.00593 384.70407,554.58434 391.51818,541.6506 C 408.51394,516.0369 423.49139,488.81993 442.33248,464.24416 C 457.83697,450.19274 460.37187,438.36933 447.7572,420.12339 C 438.66179,398.22867 431.68626,374.16007 421.44595,353.55046 C 417.83018,338.12775 402.5079,322.04403 407.04033,305.83945 C 405.80351,283.70757 407.55566,261.48656 405.78505,239.39185 C 422.60791,248.52288 433.88743,267.68054 448.4561,280.76416 C 462.97249,290.68264 467.11612,307.75854 473.31064,323.14323 C 480.5743,340.70925 489.67728,357.62424 495.49458,375.61736 C 501.21805,388.84769 508.40772,404.7524 513.2389,419.70534 C 523.49369,429.64645 542.17904,434.89281 547.801,451.62611 C 559.05721,477.63208 538.19559,502.42868 524.72702,523.05503 C 499.72804,558.06343 477.1338,594.54514 456.13832,632.11591 C 449.76269,641.71048 443.41635,651.39696 436.70064,660.7368 z M 445.49715,641.66759 C 452.41537,631.62521 458.50685,621.72406 464.76005,610.693 C 486.78833,569.3178 515.82056,532.28606 540.43624,492.47159 C 551.33871,474.68222 551.41795,450.40089 533.25156,437.19424 C 516.85731,421.73349 489.66172,424.46035 472.53588,437.47284 C 444.92547,454.94498 431.7806,486.52233 412.82612,511.90846 C 392.34445,545.35409 371.66442,578.69452 350.77343,611.90647 C 352.16955,622.7823 333.07694,635.62977 335.2845,653.04025 C 332.28778,673.32436 342.8337,698.15939 364.03335,703.36748 C 384.03994,705.57967 398.25211,694.98061 412.84057,683.0498 C 425.29007,670.70231 434.97311,655.39223 445.49715,641.66759 z M 451.18865,619.41032 C 452.09795,607.68365 468.56176,584.83631 479.7166,577.9041 C 470.11873,591.67747 460.7227,605.60724 451.18865,619.41032 z M 380.79732,676.13628 C 364.37897,696.29615 342.49288,656.62894 366.18229,650.19004 C 382.47587,640.41961 395.20228,665.13717 380.79732,676.13628 z M 382.93178,664.86247 C 387.52175,635.0103 339.53467,665.93188 367.21815,675.83176 C 374.64156,680.70131 381.09662,670.98405 382.93178,664.86247 z M 517.73574,474.16353 C 505.37931,482.93108 490.77679,475.63712 488.29407,463.46919 C 483.98544,451.22365 497.76907,436.48628 508.83839,438.06855 C 518.34743,436.11019 522.61254,451.63988 524.26745,455.34541 C 523.89865,465.64778 522.93582,467.92823 517.73575,474.16352 L 517.73574,474.16353 z M 521.05538,460.07381 C 527.85735,439.74226 496.07332,436.49416 493.40481,450.65939 C 484.05556,464.10776 495.87166,471.7269 507.26634,474.51888 C 513.93017,472.51152 520.79679,467.6709 521.05538,460.07381 z M 508.11834,438.47237 C 506.48132,439.12919 508.88378,440.45028 508.11834,438.47237 z M 371.39705,602.10027 C 372.27587,589.56457 387.95,575.99695 393.05801,562.28336 C 402.12926,546.13285 413.26963,530.88329 421.78009,515.45216 C 425.88521,505.59868 440.23883,493.03118 429.21261,509.74324 C 408.27031,539.49149 390.76389,571.40232 371.39705,602.10027 z M 414.34444,527.94475 C 413.15977,526.41624 416.52021,527.88147 414.34444,527.94475 z M 511.1274,422.26878 C 496.66195,380.73739 477.12266,341.12304 460.54823,300.44203 C 444.89252,280.67343 438.06536,303.85767 435.29381,316.2393 C 425.85474,301.02563 425.08738,331.64124 412.49611,318.35789 C 417.74051,334.89922 424.06186,351.51936 430.90853,366.99659 C 438.47657,386.23548 445.29276,407.06138 453.89248,426.24316 C 456.94957,439.18488 463.87384,445.45812 471.61622,434.34112 C 482.79839,427.41245 498.05212,423.04825 509.34707,423.94642 L 511.21041,423.62762 L 511.12739,422.26877 L 511.1274,422.26878 z M 486.33077,408.89082 C 478.1355,398.86065 489.71562,402.76997 486.33077,408.89082 z M 485.27208,402.6469 C 480.39564,399.8085 469.9516,373.69102 476.71478,384.26111 C 477.68544,386.33521 485.55611,396.67948 481.44119,394.94231 C 482.88431,396.30279 486.55297,399.37973 485.27208,402.6469 z M 483.15963,396.76933 C 481.49174,397.99929 483.71032,398.52881 483.15963,396.76933 z M 472.40389,379.37267 C 470.72009,373.23428 464.07108,362.39782 461.14762,353.8134 C 452.06273,342.96493 457.41941,334.53313 462.30813,351.05009 C 464.45345,355.39354 466.62052,360.69869 469.60143,366.07087 C 471.38051,369.64608 475.90843,379.8518 472.40389,379.37267 z M 472.06527,372.9041 C 470.28892,369.33639 471.95684,378.31826 472.06527,372.9041 z M 466.76064,364.9037 C 464.4372,365.27692 468.72396,366.48731 466.76064,364.9037 z M 461.13338,348.88146 C 459.25714,350.01437 461.37508,351.41855 461.13338,348.88146 z M 458.49248,387.26186 C 453.54049,385.34389 458.83548,382.96439 458.49248,387.26186 z M 457.59783,383.06822 C 452.39007,384.82604 454.87832,373.23645 453.61317,376.112 C 457.20169,375.90029 455.63373,382.94409 457.59783,383.06822 z M 452.05312,373.3813 C 440.42315,368.42148 457.67703,374.18465 452.05312,373.3813 z M 450.16964,371.10506 C 447.07397,364.03285 454.92417,365.91504 450.16964,371.10506 z M 448.6491,366.01863 C 447.29962,360.55588 451.49689,364.43586 448.6491,366.01863 z M 448.75136,362.51939 C 443.05928,360.08062 449.94093,354.82756 448.75136,362.51939 z M 443.96624,355.64238 C 443.64449,351.59849 446.44902,354.69324 443.96624,355.64238 z M 443.24742,353.28301 C 441.9962,346.66677 446.55307,350.5876 443.24742,353.28301 z M 441.83654,349.82451 C 437.7873,344.86868 444.27528,344.84067 441.83654,349.82451 z M 439.63164,345.37911 C 435.85398,337.5825 442.89237,348.77341 439.63164,345.37911 z M 439.12615,341.69374 C 437.4442,340.25433 440.66427,341.86074 439.12615,341.69374 z M 436.16704,338.45592 C 436.26843,335.27079 438.95582,337.11075 436.16704,338.45592 z M 435.63277,336.84499 C 434.86729,334.86703 437.26979,336.1882 435.63277,336.84499 z M 441.08382,277.70049 C 434.9178,261.23765 416.36262,276.63731 410.28382,274.34117 C 411.4802,286.15853 405.21681,324.10907 424.15379,313.57844 C 428.06473,299.82186 439.39564,319.39945 437.05136,300.79165 C 436.68674,285.42923 464.35642,293.94545 444.53335,281.18829 L 441.08382,277.70048 L 441.08382,277.70049 z M 425.29152,261.6667 C 407.37305,239.85332 428.06229,269.48235 425.29152,261.6667 z M 416.4746,264.2925 C 412.55361,261.38875 418.5962,271.66411 416.4746,264.2925 z M 411.02007,268.58861 C 408.11864,266.40536 411.52856,273.05584 411.02007,268.58861 z M 268.08498,685.91179 C 256.64264,691.17762 241.91664,687.3218 232.57374,678.82299 C 235.81833,669.71484 263.27655,678.15149 271.66651,680.28447 C 271.80372,682.58294 269.87845,684.83203 268.08498,685.91179 z M 260.92507,682.05748 C 251.24565,678.79697 229.93428,680.81154 253.64436,683.79698 C 254.78558,684.86073 272.57714,683.07281 260.92507,682.05748 z M 243.95679,677.46251 C 241.70758,677.49423 244.72216,679.57774 243.95679,677.46251 z M 273.59743,645.52269 C 250.04647,636.9645 225.57765,632.58549 200.76856,630.1846 C 193.79824,627.43508 183.73939,629.73453 171.8771,630.08454 C 162.72765,631.0313 137.19259,639.68362 151.91795,630.84692 C 161.50365,629.08194 162.69479,625.76533 171.97809,626.96735 C 173.82474,623.87421 190.33927,628.78061 185.58559,627.17252 C 191.01578,625.26969 198.62783,628.3929 204.8666,627.12248 C 210.46484,626.68475 211.54243,628.94296 217.49123,627.94504 C 226.80133,631.20783 237.83895,631.31814 245.26987,633.93785 C 254.14586,636.86355 272.73173,635.14308 274.77671,645.43936 L 274.24808,645.90425 L 273.59744,645.5227 L 273.59743,645.52269 z M 260.48964,638.494 C 252.90895,634.04727 263.31731,641.55494 260.48964,638.494 z M 249.04625,635.97258 C 247.54292,636.50494 249.24373,638.58062 249.04625,635.97258 z M 167.54613,626.75224 C 164.45941,627.98593 171.56825,626.46967 167.54613,626.75224 z "
       id="path2223"
       inkscape:export-xdpi="300"
       inkscape:export-ydpi="300" />
  </g>
</svg>
