<?xml version="1.0" encoding="UTF-8" standalone="no"?>
<!-- Created with Inkscape (http://www.inkscape.org/) -->
<svg
   xmlns:dc="http://purl.org/dc/elements/1.1/"
   xmlns:cc="http://web.resource.org/cc/"
   xmlns:rdf="http://www.w3.org/1999/02/22-rdf-syntax-ns#"
   xmlns:svg="http://www.w3.org/2000/svg"
   xmlns="http://www.w3.org/2000/svg"
   xmlns:sodipodi="http://sodipodi.sourceforge.net/DTD/sodipodi-0.dtd"
   xmlns:inkscape="http://www.inkscape.org/namespaces/inkscape"
   width="744.09448819"
   height="1052.3622047"
   id="svg2"
   sodipodi:version="0.32"
   inkscape:version="0.45.1"
   sodipodi:docbase="C:\Documents and Settings\Dmitri Popov\My Documents\WriterTools"
   sodipodi:docname="WriterToolsLogo.svg"
   inkscape:output_extension="org.inkscape.output.svg.inkscape"
   inkscape:export-filename="C:\Documents and Settings\Dmitri Popov\My Documents\WriterToolsLogo.png"
   inkscape:export-xdpi="90"
   inkscape:export-ydpi="90">
  <defs
     id="defs4">
    <filter
       inkscape:collect="always"
       x="-0.024527264"
       width="1.0490545"
       y="-0.23396797"
       height="1.4679359"
       id="filter3427">
      <feGaussianBlur
         inkscape:collect="always"
         stdDeviation="3.4300766"
         id="feGaussianBlur3429" />
    </filter>
  </defs>
  <sodipodi:namedview
     id="base"
     pagecolor="#ffffff"
     bordercolor="#666666"
     borderopacity="1.0"
     gridtolerance="10000"
     guidetolerance="10"
     objecttolerance="10"
     inkscape:pageopacity="0.0"
     inkscape:pageshadow="2"
     inkscape:zoom="0.98994949"
     inkscape:cx="348.84327"
     inkscape:cy="833.14729"
     inkscape:document-units="px"
     inkscape:current-layer="layer1"
     inkscape:window-width="1083"
     inkscape:window-height="730"
     inkscape:window-x="194"
     inkscape:window-y="57"
     showguides="true"
     inkscape:guide-bbox="true" />
  <metadata
     id="metadata7">
    <rdf:RDF>
      <cc:Work
         rdf:about="">
        <dc:format>image/svg+xml</dc:format>
        <dc:type
           rdf:resource="http://purl.org/dc/dcmitype/StillImage" />
      </cc:Work>
    </rdf:RDF>
  </metadata>
  <g
     inkscape:label="Layer 1"
     inkscape:groupmode="layer"
     id="layer1">
    <g
       id="g2223"
       inkscape:label="Layer 1"
       transform="matrix(0.3534425,0,0,0.3534425,57.140884,101.44659)"
       inkscape:export-filename="C:\Documents and Settings\Dmitri Popov\Desktop\g2223.png"
       inkscape:export-xdpi="48.264744"
       inkscape:export-ydpi="48.264744">
      <path
         id="path1350"
         d="M 183.42857,648.63425 C 183.42857,648.01318 183.09107,647.60064 182.67857,647.71749 C 182.26607,647.83434 180.85884,647.33788 179.5514,646.61425 C 178.13174,645.82851 176.92335,645.67757 176.5514,646.23951 C 175.59306,647.68735 171.89211,648.34396 170.1584,647.37373 C 169.30358,646.89534 168.31558,644.59168 167.96284,642.25449 C 167.61011,639.91729 167.08484,636.76754 166.79558,635.25504 C 166.40138,633.19379 166.66524,632.50504 167.84911,632.50504 C 169.61966,632.50504 169.48481,636.25172 169.46871,587.50504 C 169.46335,571.28004 169.22595,554.85504 168.94115,551.00504 C 168.45668,544.4559 167.19536,469.99625 167.3827,459.00504 C 167.42957,456.25504 167.03348,449.51651 166.50249,444.03053 C 165.78571,436.62505 165.83639,433.87102 166.69927,433.33774 C 167.33849,432.94268 168.38726,433.0558 169.02987,433.58912 C 169.85213,434.27153 170.37792,433.84297 170.80471,432.14251 C 171.17208,430.67877 172.388,429.48105 173.88909,429.1043 C 175.25195,428.76225 185.38299,428.51273 196.4025,428.54982 C 207.42202,428.58691 216.78722,428.40142 217.21407,428.13761 C 217.64091,427.87381 222.70129,427.35311 228.45936,426.98051 C 238.51503,426.32982 242.42857,425.01279 242.42857,422.27946 C 242.42857,421.55573 235.73881,412.80618 233.42604,410.50504 C 233.14965,410.23004 231.03932,407.53004 228.7364,404.50504 C 226.43349,401.48004 222.27212,396.86198 219.48893,394.24269 C 214.02204,389.09775 213.47965,387.29678 216.29467,383.6363 C 217.83834,381.62901 218.44051,381.44106 220.24087,382.40459 C 221.40938,383.02996 223.61714,383.50919 225.147,383.46955 C 226.67686,383.42991 233.10357,384.07721 239.42857,384.90798 C 255.78055,387.05577 254.91606,387.19519 257.42857,382.00504 C 258.6267,379.53004 260.0434,377.50504 260.57679,377.50504 C 261.11019,377.50504 261.3,377.10603 260.9986,376.61835 C 260.69719,376.13067 261.12064,375.17557 261.93958,374.4959 C 262.75852,373.81624 263.42857,372.64406 263.42857,371.89107 C 263.42857,371.13807 264.32857,369.95993 265.42857,369.27297 C 266.52857,368.58601 267.42857,367.52694 267.42857,366.91948 C 267.42857,366.31202 268.32455,365.00416 269.41964,364.01312 C 270.51473,363.02208 272.49433,360.36483 273.81875,358.10813 C 275.14317,355.85143 277.50969,352.84225 279.07768,351.42106 C 280.64567,349.99987 283.72857,346.8094 285.92857,344.33113 C 288.12857,341.85286 292.40357,337.04021 295.42857,333.63637 C 306.50994,321.16719 329.14041,307.31427 346.42857,302.41745 C 350.55357,301.24905 354.60357,300.029 355.42857,299.70622 C 356.25357,299.38344 357.37857,299.05247 357.92857,298.97074 C 358.47857,298.88901 360.05357,298.54379 361.42857,298.20359 C 364.04927,297.55517 371.54513,296.83854 384.86732,295.96276 C 397.75237,295.11571 420.82194,299.58885 431.42858,304.99089 C 432.80358,305.69119 435.50358,306.5999 437.42858,307.01023 C 439.35358,307.42057 441.15358,308.03727 441.42858,308.38067 C 441.70358,308.72407 443.72858,309.89294 445.92858,310.97814 C 448.12858,312.06335 451.49361,314.20085 453.40642,315.72814 C 455.31924,317.25544 457.57108,318.50504 458.41052,318.50504 C 463.44427,318.50504 489.25938,344.20591 495.81229,355.7413 C 498.17884,359.90724 500.71216,363.13622 501.77196,363.33752 C 502.78582,363.5301 506.38582,362.34166 509.77196,360.69655 C 522.54158,354.49262 525.78899,353.35846 532.36029,352.80755 C 541.28009,352.05974 541.7471,353.23476 536.33423,362.80635 C 534.0952,366.76563 531.68925,370.68004 530.98767,371.50504 C 529.46794,373.29211 525.10903,384.71458 522.88678,392.73331 C 521.26121,398.59903 517.87715,402.50504 514.42084,402.50504 C 513.46493,402.50504 510.60553,401.58616 508.06663,400.46308 C 500.71395,397.21064 472.76079,391.54798 465.23502,391.7864 C 458.14562,392.01098 454.21396,387.61908 457.67858,383.3454 C 459.54204,381.04678 472.29238,374.30283 473.43714,375.01033 C 473.98243,375.34734 474.42858,375.21854 474.42858,374.72412 C 474.42858,374.22969 476.34108,373.23886 478.67858,372.52227 C 483.52889,371.03534 491.42858,367.54364 491.42858,366.88671 C 491.42858,366.64475 488.56466,362.07239 485.06431,356.72591 C 476.62222,343.83137 461.4849,328.35593 453.86141,324.82605 C 451.69835,323.82449 449.70358,322.71879 449.42858,322.36893 C 448.47394,321.15441 429.89701,311.58157 425.42528,309.99984 C 417.008,307.0225 406.4802,304.61438 398.69595,303.88581 C 388.13728,302.89756 388.54285,302.8985 374.44025,303.82922 C 364.53611,304.48285 360.39756,305.2397 354.44025,307.48674 C 350.30883,309.04508 344.22857,311.20187 340.92857,312.2796 C 325.11665,317.44355 314.56109,324.21709 300.92857,337.94773 C 290.86404,348.08469 288.06185,351.2649 276.13109,366.09043 C 269.3024,374.57597 263.07258,385.12002 264.00055,386.62151 C 264.90043,388.07755 270.50357,387.6284 277.92857,385.50504 C 281.77507,384.40504 285.03614,383.50504 285.17539,383.50504 C 285.31464,383.50504 285.42857,384.87087 285.42857,386.54022 C 285.42857,390.01218 282.84662,394.50504 280.85136,394.50504 C 278.78392,394.50504 267.52458,404.96984 264.44792,409.75092 C 262.94227,412.09069 260.47922,415.13004 258.97446,416.50504 C 256.46392,418.7991 253.42857,423.48205 253.42857,425.06127 C 253.42857,426.06462 267.17721,424.97488 284.92857,422.56452 C 293.72857,421.36962 305.47161,420.22806 311.02421,420.02772 C 320.72393,419.67775 321.22866,419.76435 323.89424,422.23601 L 326.66862,424.80857 L 326.04914,436.4068 C 324.29453,469.25754 324.2393,490.29474 325.82696,521.03847 C 327.44389,552.34889 327.94811,559.957 328.80709,566.00504 C 329.04144,567.65504 329.53448,574.34003 329.90275,580.86056 C 330.27102,587.3811 330.79754,593.30299 331.0728,594.02031 C 331.34806,594.73763 330.91176,596.60264 330.10324,598.16478 C 328.79814,600.68637 321.61018,610.54723 318.22386,614.46161 C 317.53081,615.26273 316.93128,616.38773 316.89157,616.96161 C 316.75931,618.87259 314.66373,623.05633 311.46423,627.79709 C 309.72348,630.3764 308.55074,632.8937 308.85815,633.39111 C 309.16557,633.88851 308.78952,634.53629 308.02249,634.83063 C 307.25546,635.12496 306.30717,637.30962 305.91517,639.68541 C 305.07369,644.78536 303.74873,646.72321 301.53739,646.08824 C 300.65254,645.83416 296.61933,645.37167 292.57471,645.06049 C 288.53008,644.7493 284.8889,644.28954 284.48318,644.03879 C 283.21273,643.25361 261.01633,643.17228 259.22646,643.94625 C 258.29029,644.35106 257.08389,644.41005 256.54556,644.07734 C 256.00722,643.74463 255.32603,643.86194 255.03179,644.33802 C 254.73756,644.8141 251.89396,645.29186 248.7127,645.3997 C 239.98426,645.69559 233.44575,646.37639 232.25306,647.11351 C 231.66539,647.47671 223.70197,647.88383 214.55657,648.01822 C 205.41117,648.15261 194.66607,648.60027 190.67857,649.01301 C 185.5158,649.54741 183.42857,649.43837 183.42857,648.63425 z M 215.92857,639.16679 C 229.60069,638.91648 249.61906,636.80964 258.42857,634.69387 C 262.60314,633.69126 271.23122,633.78726 281.17857,634.94699 C 286.11199,635.52216 288.42857,635.45674 288.42857,634.74226 C 288.42857,634.16477 289.36656,633.93757 290.51298,634.23737 C 292.46124,634.74685 292.39238,634.37631 289.45868,628.56469 C 287.73239,625.14493 284.99401,618.75075 283.3734,614.35542 C 280.81888,607.42719 280.61703,606.17372 281.85628,604.93448 C 282.64247,604.14829 283.56754,603.50504 283.91201,603.50504 C 284.25647,603.50504 286.42611,602.64585 288.73343,601.59572 C 291.04076,600.5456 294.72857,599.38047 296.92857,599.00655 C 299.12857,598.63264 302.72857,597.74683 304.92857,597.03809 C 307.12857,596.32935 311.17857,595.21886 313.92857,594.57033 C 316.67857,593.9218 319.99889,592.69354 321.30707,591.84086 C 323.64264,590.31853 323.67461,590.08942 323.07884,579.14779 C 322.74514,573.01928 322.05231,565.75504 321.53921,563.00504 C 321.02612,560.25504 320.54611,551.74186 320.47252,544.08686 C 320.39893,536.43186 320.16733,529.89135 319.95784,529.55241 C 319.53223,528.86374 317.30733,504.30651 316.82783,495.00504 C 316.13892,481.64116 316.62372,458.20712 317.94962,440.78102 C 318.67328,431.26999 318.59506,430.50485 316.82805,429.80926 C 312.4341,428.07959 297.35757,429.11903 269.13095,433.09769 C 263.19226,433.93477 251.71726,434.59618 243.63095,434.56748 C 235.54464,434.53878 224.42857,434.94114 218.92857,435.46161 C 213.42857,435.98209 200.64723,436.42978 190.5256,436.45648 L 172.12262,436.50504 L 172.84864,448.25504 C 173.24795,454.71754 173.72914,471.03004 173.91795,484.50504 C 174.10676,497.98004 174.54842,518.68004 174.89942,530.50504 C 175.54611,552.29146 176.36094,583.58357 176.70915,600.00504 C 176.81412,604.95504 176.75784,614.40504 176.58408,621.00504 C 176.1446,637.69821 176.07884,637.24189 179.17857,639.00814 C 181.36808,640.25574 183.86479,640.45958 191.42857,640.00826 C 196.65357,639.69649 207.67857,639.31782 215.92857,639.16679 z M 208.06694,620.00504 C 207.75036,619.18004 207.89689,618.50504 208.39257,618.50504 C 208.88824,618.50504 209.5796,617.60456 209.92891,616.50398 C 210.85286,613.59285 213.1768,612.69474 221.5026,612.0312 C 225.58688,611.70569 232.51676,611.00415 236.90234,610.47221 C 246.03355,609.36465 258.69089,609.2075 263.3713,610.14359 C 267.05532,610.88039 270.35886,614.97475 268.64896,616.68465 C 267.61566,617.71795 263.93385,617.82502 254.59812,617.09323 C 252.21638,616.90653 248.61638,617.10834 246.59812,617.54169 C 244.57987,617.97504 238.42857,618.6309 232.92857,618.99916 C 227.42857,619.36743 220.72965,620.0819 218.04208,620.58689 C 211.17431,621.87731 208.73071,621.73478 208.06694,620.00504 z M 207.04869,583.37307 C 205.71723,581.47215 205.73003,580.97459 207.16675,578.78188 C 209.38013,575.40383 211.78736,574.6848 223.12678,574.01465 C 228.51776,573.69605 233.66049,573.21336 234.55507,572.94202 C 236.97073,572.20929 253.04841,569.41407 259.92857,568.53066 C 263.22857,568.10693 271.77857,567.72426 278.92857,567.68028 C 286.07857,567.63629 294.96607,567.2888 298.67857,566.90807 C 304.55629,566.30529 305.42857,566.42836 305.42857,567.86044 C 305.42857,568.76497 305.87857,569.50504 306.42857,569.50504 C 308.43078,569.50504 307.3662,572.48172 305.17857,573.00015 C 297.8415,574.73893 291.55551,575.32517 279.00667,575.441 C 266.65738,575.55498 255.31499,576.58665 251.23301,577.9672 C 250.51557,578.20984 248.25052,578.65116 246.19958,578.94792 C 244.14864,579.24468 238.57719,580.16643 233.81859,580.99626 C 229.05999,581.82609 223.00768,582.50504 220.36901,582.50504 C 217.43783,582.50504 214.98788,583.08858 214.07143,584.00504 C 211.93426,586.14221 208.79009,585.85927 207.04869,583.37307 z M 198.59154,543.90663 C 195.75453,541.91951 195.85396,539.39348 198.88115,536.54959 C 200.76526,534.77956 202.7934,534.15174 207.63115,533.84097 C 211.09473,533.61847 220.00357,532.49001 227.42857,531.33326 C 234.85357,530.17651 241.60357,529.23761 242.42857,529.24681 C 243.25357,529.25601 246.62857,528.66552 249.92857,527.93461 C 253.22857,527.2037 260.87857,526.32273 266.92857,525.97691 C 272.97857,525.63109 280.12749,524.93345 282.81506,524.4266 C 285.50263,523.91974 292.7993,523.50504 299.02988,523.50504 C 308.92421,523.50504 310.48041,523.73338 311.32361,525.30892 C 313.25856,528.92441 311.17737,529.74121 297.78571,530.62207 C 264.08672,532.83868 257.75201,533.38699 255.42857,534.28835 C 254.05357,534.82178 249.55357,535.56963 245.42857,535.95024 C 241.30357,536.33086 236.57857,537.01459 234.92857,537.46966 C 233.27857,537.92473 227.20357,538.82073 221.42857,539.46078 C 215.65357,540.10083 209.01607,540.8502 206.67857,541.12605 C 203.97448,541.44515 202.42857,542.12945 202.42857,543.0073 C 202.42857,545.19662 200.93354,545.54703 198.59154,543.90663 z M 196.67857,503.516 C 192.92161,501.22534 192.83261,500.83804 195.31979,497.603 C 196.90043,495.54708 198.3742,495.09008 205.54755,494.43145 C 210.15711,494.00822 216.81595,492.93939 220.34496,492.05628 C 227.58739,490.24391 236.40915,488.93188 247.42857,488.02822 C 251.55357,487.68994 258.7279,486.9604 263.37152,486.407 C 268.01514,485.85361 277.89388,485.39129 285.32427,485.37961 C 293.19443,485.36725 299.68869,484.89945 300.88132,484.259 C 303.62122,482.78764 308.63119,482.51374 310.17857,483.75069 C 312.22799,485.38898 311.64872,488.41694 309.17857,488.9779 C 300.02892,491.05573 297.16972,491.45935 291.42857,491.48355 C 287.85357,491.49863 277.95357,492.18727 269.42857,493.01386 C 260.90357,493.84046 248.07857,494.94554 240.92857,495.46961 C 233.77857,495.99368 223.42857,497.3999 217.92857,498.59455 C 212.42857,499.78919 206.46607,500.982 204.67857,501.24524 C 202.3267,501.59159 201.42857,502.24631 201.42857,503.61445 C 201.42857,505.995 200.72035,505.98032 196.67857,503.516 z M 192.67857,471.68907 C 188.98364,469.93042 188.61207,468.32154 191.2838,465.64981 C 193.47513,463.45848 203.44775,461.86421 220.42857,460.99058 C 231.45593,460.42324 239.51887,459.33059 256.92857,456.04425 C 261.32857,455.21368 268.97857,454.28026 273.92857,453.96997 C 283.187,453.38961 297.43549,451.8734 303.17857,450.85741 C 305.94855,450.36738 306.42857,450.57621 306.42857,452.2713 C 306.42857,453.36517 305.83725,454.7509 305.11453,455.35071 C 303.67283,456.54721 290.97738,458.23385 276.92857,459.09531 C 271.97857,459.39884 263.65357,460.48479 258.42857,461.50853 C 253.20357,462.53227 242.17857,464.08524 233.92857,464.95957 C 201.69055,468.37615 198.42857,468.92801 198.42857,470.96544 C 198.42857,473.07809 196.18905,473.35993 192.67857,471.68907 z M 308.54875,615.66954 C 312.33265,609.43502 315.42857,604.13982 315.42857,603.90243 C 315.42857,603.35994 309.43958,603.96957 307.42857,604.71677 C 306.60357,605.0233 303.00357,605.9082 299.42857,606.6832 L 292.92857,608.09231 L 293.09837,612.10196 C 293.31768,617.28061 298.17928,627.70372 300.18785,627.30158 C 301.00244,627.13848 304.76484,621.90407 308.54875,615.66954 z M 248.33435,406.8616 C 248.87005,406.2327 249.10449,405.51429 248.85533,405.26514 C 248.60617,405.01598 249.11656,403.10269 249.98953,401.01339 C 251.90299,396.43383 251.43682,395.99802 243.52493,394.96978 C 234.09354,393.74406 231.42857,393.63731 231.42857,394.48522 C 231.42857,395.28597 234.99707,399.79989 238.93137,403.97577 C 240.03292,405.14496 241.78191,407.39536 242.81802,408.97667 C 244.62725,411.7379 244.75451,411.7756 246.03111,409.92841 C 246.7622,408.87055 247.79866,407.49049 248.33435,406.8616 z M 263.15189,400.24285 C 265.10088,398.16422 263.71858,396.07279 261.06801,397.08991 C 259.0107,397.87937 257.37952,400.77042 256.33332,405.48151 L 255.55084,409.00504 L 258.52522,405.50504 C 260.16113,403.58004 262.24313,401.21205 263.15189,400.24285 z M 505.33068,387.32211 C 504.68813,386.1215 502.63724,383.01626 500.77315,380.42157 C 497.2723,375.54865 496.23615,375.24483 490.92858,377.53493 C 489.82858,378.00955 486.46902,379.41916 483.4629,380.66739 L 477.99722,382.9369 L 483.4629,384.15198 C 486.46902,384.82028 492.07858,386.27104 495.92858,387.37589 C 505.49822,390.12213 506.82514,390.11454 505.33068,387.32211 z M 516.42858,383.14313 C 516.42858,382.45899 518.21487,378.20542 520.39812,373.69073 L 524.36767,365.48222 L 521.64812,366.11984 C 520.15237,366.47053 516.12334,368.03277 512.69471,369.59149 C 507.98454,371.73282 506.6093,372.81242 507.06825,374.00841 C 507.40232,374.879 507.91091,375.35605 508.19843,375.06852 C 508.48596,374.78099 509.68716,376.45375 510.86778,378.78576 C 512.04839,381.11777 513.36364,383.59095 513.79056,384.28172 C 514.68622,385.73092 516.42858,384.9789 516.42858,383.14313 z M 483.96142,622.95421 C 482.03886,621.50069 482.03574,621.38997 483.82404,618.0693 C 487.62576,611.00994 501.76628,598.59871 519.55265,586.71008 C 531.73554,578.56687 530.69558,581.84987 530.04334,553.59246 C 529.53175,531.4287 529.01202,523.75514 527.95054,522.69367 C 527.27802,522.02114 514.92469,526.7881 505.92858,531.19161 C 497.38979,535.37126 486.6953,542.09459 481.60084,546.48579 C 479.86499,547.98201 478.81423,548.24661 477.46849,547.5264 C 472.57095,544.90531 474.52263,540.98475 484.3651,533.67241 C 493.5934,526.81635 504.88975,521.01837 518.11383,516.35048 C 524.72192,514.01792 527.4412,512.56477 527.8056,511.1713 C 528.08419,510.10599 528.04762,505.48635 527.72434,500.90543 L 527.13656,492.57649 L 519.53257,490.95821 C 509.12215,488.74266 505.94079,487.69353 503.24106,485.58567 C 501.9692,484.59264 499.95674,483.47584 498.76894,483.10389 C 496.02317,482.24408 483.37012,468.91716 481.56191,464.98046 C 480.81024,463.34398 479.79774,461.22365 479.31191,460.26861 C 477.10999,455.94013 478.56568,447.3874 482.50549,441.50504 C 483.42642,440.13004 484.51622,437.45327 484.92727,435.55667 C 485.44208,433.18132 487.89232,429.86164 492.80161,424.88823 C 499.71386,417.88569 500.23068,417.57508 509.95609,414.57808 C 522.35704,410.75658 530.26929,410.47785 539.42182,413.54008 C 552.01042,417.75195 554.95541,419.87106 561.31048,429.29037 C 566.72194,437.31111 567.99065,444.09709 566.4491,456.7755 C 565.27722,466.41365 560.996,476.66489 556.09656,481.56434 C 553.30969,484.35121 544.19815,489.27909 540.52379,489.9867 C 535.52347,490.94968 535.12698,492.1059 535.765,503.86403 C 536.09036,509.86032 536.60692,515.01672 536.9129,515.3227 C 537.4449,515.85469 542.59141,517.35248 557.92858,521.43889 C 561.77858,522.46468 566.27858,523.77833 567.92858,524.35813 C 569.57858,524.93792 574.05447,526.11213 577.87501,526.96749 C 581.69555,527.82284 585.17616,529.08121 585.6097,529.76386 C 586.04324,530.44651 586.40485,530.6354 586.41327,530.18361 C 586.42169,529.73183 587.10358,530.03718 587.92858,530.86218 C 589.62335,532.55695 589.94685,533.94338 588.42858,533.00504 C 587.87858,532.66512 587.42858,533.22356 587.42858,534.24602 C 587.42858,538.34276 583.20745,539.71671 579.03016,536.97964 C 576.49972,535.32163 566.6774,532.24639 556.50598,529.9276 C 552.97355,529.12231 549.59855,528.07318 549.00598,527.59621 C 548.41341,527.11923 545.56608,526.41137 542.67858,526.02317 C 536.85017,525.2396 537.10431,524.90483 537.37851,533.00504 C 537.45299,535.20504 537.67101,546.53171 537.86302,558.17541 C 538.05502,569.81911 538.51238,579.83161 538.87937,580.42541 C 539.24635,581.01921 540.30756,581.50692 541.2376,581.50923 C 544.90844,581.51831 555.50351,588.06402 563.31467,595.14861 C 564.62703,596.33889 566.87703,597.91135 568.31467,598.64296 C 569.75232,599.37458 573.0085,601.33035 575.55062,602.98911 C 578.09275,604.64787 581.58806,606.77609 583.31798,607.71849 C 587.14867,609.80531 588.0488,611.8484 586.56869,615.09687 C 584.53188,619.5672 579.15458,619.50532 575.20781,614.96614 C 574.019,613.59889 570.54484,611.08882 567.48746,609.38819 C 564.43008,607.68757 560.12858,604.61947 557.92858,602.5702 C 555.72858,600.52093 550.08563,595.89233 545.38869,592.28443 C 537.4923,586.21891 536.70109,585.83552 534.88869,587.19649 C 533.81063,588.00603 531.11878,589.53291 528.9068,590.58956 C 526.69482,591.64621 522.81296,594.19696 520.28045,596.25789 C 517.74794,598.31882 514.6577,600.68004 513.41325,601.50504 C 507.67891,605.30659 500.94086,611.07286 494.72235,617.50031 C 490.99499,621.35291 487.49156,624.49073 486.93695,624.47324 C 486.38235,624.45574 485.04336,623.77218 483.96142,622.95421 z M 536.92858,483.9497 C 540.34708,483.3084 547.45882,479.37846 549.37161,477.07369 C 550.07758,476.22304 551.12373,475.81664 551.6964,476.17056 C 552.2774,476.52964 552.4411,476.33432 552.06678,475.72865 C 551.69783,475.13167 551.87003,474.35024 552.44946,473.99213 C 553.02889,473.63403 554.61411,471.03774 555.97217,468.22262 C 558.07333,463.86713 558.47769,461.44944 558.68498,452.00248 L 558.92858,440.90076 L 554.1702,433.9529 C 548.27485,425.3449 547.0438,424.45972 536.13517,420.98486 C 527.65943,418.28497 527.00229,418.22351 517.5713,419.24851 C 508.51091,420.23324 507.35973,420.61548 501.86717,424.46303 C 495.59401,428.8574 493.40766,431.70904 494.14625,434.5334 C 494.39422,435.48166 492.75919,439.72647 490.51285,443.9663 C 488.2665,448.20613 486.42858,452.77628 486.42858,454.12218 C 486.42858,458.6265 489.27352,463.44864 495.64954,469.75164 C 503.86132,477.86936 509.84331,481.36762 519.26852,483.564 C 526.46556,485.24115 529.67116,485.31116 536.92858,483.9497 z "
         style="fill:#000000" />
    </g>
    <text
       xml:space="preserve"
       style="font-size:10.24282265px;font-style:normal;font-weight:normal;line-height:125%;fill:#bacdc2;fill-opacity:1;stroke:none;stroke-width:1px;stroke-linecap:butt;stroke-linejoin:miter;stroke-opacity:1;font-family:Bitstream Vera Sans"
       x="293.29849"
       y="271.61014"
       id="text2226"
       sodipodi:linespacing="125%"
       inkscape:export-filename="C:\Documents and Settings\Dmitri Popov\Desktop\g2223.png"
       inkscape:export-xdpi="48.264744"
       inkscape:export-ydpi="48.264744"><tspan
         sodipodi:role="line"
         id="tspan2228"
         x="293.29849"
         y="271.61014"
         style="font-size:43.53199768px;font-style:normal;font-variant:normal;font-weight:normal;font-stretch:normal;text-align:start;line-height:125%;writing-mode:lr-tb;text-anchor:start;fill:#bacdc2;fill-opacity:1;font-family:COM4t Sans Medium">WRITER'S TOOLS</tspan></text>
    <text
       xml:space="preserve"
       style="font-size:25.80538559px;font-style:normal;font-variant:normal;font-weight:normal;font-stretch:normal;text-align:start;line-height:100%;writing-mode:lr-tb;text-anchor:start;fill:#a9a9a9;fill-opacity:1;stroke:none;stroke-width:1px;stroke-linecap:butt;stroke-linejoin:miter;stroke-opacity:1;font-family:COM4t Sans Medium"
       x="290.71259"
       y="301.21848"
       id="text3237"
       sodipodi:linespacing="100%"
       inkscape:export-filename="C:\Documents and Settings\Dmitri Popov\Desktop\g2223.png"
       inkscape:export-xdpi="48.264744"
       inkscape:export-ydpi="48.264744"><tspan
         sodipodi:role="line"
         id="tspan3239"
         x="290.71259"
         y="301.21848"
         style="font-size:25.80538559px;font-style:normal;font-variant:normal;font-weight:normal;font-stretch:normal;text-align:start;line-height:100%;writing-mode:lr-tb;text-anchor:start;font-family:Familian Elder">code.google.com/p/writertools</tspan></text>
    <text
       xml:space="preserve"
       style="font-size:10.24282265px;font-style:normal;font-weight:normal;line-height:125%;fill:#eee7e7;fill-opacity:1;stroke:none;stroke-width:1px;stroke-linecap:butt;stroke-linejoin:miter;stroke-opacity:1;filter:url(#filter3427);font-family:Bitstream Vera Sans"
       x="294.82523"
       y="272.57639"
       id="text2164"
       sodipodi:linespacing="125%"
       inkscape:export-filename="C:\Documents and Settings\Dmitri Popov\Desktop\g2223.png"
       inkscape:export-xdpi="48.264744"
       inkscape:export-ydpi="48.264744"><tspan
         sodipodi:role="line"
         id="tspan2166"
         x="294.82523"
         y="272.57639"
         style="font-size:43.53199768px;font-style:normal;font-variant:normal;font-weight:normal;font-stretch:normal;text-align:start;line-height:125%;writing-mode:lr-tb;text-anchor:start;fill:#eee7e7;fill-opacity:1;font-family:COM4t Sans Medium">WRITER'S TOOLS</tspan></text>
  </g>
</svg>
