<?xml version="1.0" encoding="UTF-8" standalone="no"?>
<!-- Created with Inkscape (http://www.inkscape.org/) -->
<svg
   xmlns:dc="http://purl.org/dc/elements/1.1/"
   xmlns:cc="http://web.resource.org/cc/"
   xmlns:rdf="http://www.w3.org/1999/02/22-rdf-syntax-ns#"
   xmlns:svg="http://www.w3.org/2000/svg"
   xmlns="http://www.w3.org/2000/svg"
   xmlns:sodipodi="http://sodipodi.sourceforge.net/DTD/sodipodi-0.dtd"
   xmlns:inkscape="http://www.inkscape.org/namespaces/inkscape"
   width="725"
   height="275"
   id="svg2"
   sodipodi:version="0.32"
   inkscape:version="0.45.1"
   sodipodi:docbase="/home/dmpop/Documents/miniInvoices"
   sodipodi:docname="miniInvoices.svg"
   inkscape:output_extension="org.inkscape.output.svg.inkscape"
   inkscape:export-filename="/home/dmpop/Desktop/miniInvoices.png"
   inkscape:export-xdpi="299.95999"
   inkscape:export-ydpi="299.95999"
   version="1.0">
  <defs
     id="defs4">
    <marker
       style="overflow:visible"
       id="Arrow2Lend"
       refX="0"
       refY="0"
       orient="auto"
       inkscape:stockid="Arrow2Lend">
      <path
         transform="matrix(-1.1,0,0,-1.1,5.5,0)"
         d="M 8.7185878,4.0337352 L -2.2072895,0.016013256 L 8.7185884,-4.0017078 C 6.97309,-1.6296469 6.9831476,1.6157441 8.7185878,4.0337352 z "
         style="font-size:12px;fill-rule:evenodd;stroke-width:0.625;stroke-linejoin:round"
         id="path4163" />
    </marker>
    <linearGradient
       id="linearGradient4276">
      <stop
         id="stop4278"
         offset="0"
         style="stop-color:#0025a0;stop-opacity:1;" />
      <stop
         style="stop-color:#001250;stop-opacity:1;"
         offset="1"
         id="stop4284" />
    </linearGradient>
    <marker
       style="overflow:visible"
       id="Arrow1Lstart"
       refX="0"
       refY="0"
       orient="auto"
       inkscape:stockid="Arrow1Lstart">
      <path
         transform="scale(0.8,0.8)"
         style="fill-rule:evenodd;stroke:#000000;stroke-width:1pt;marker-start:none"
         d="M 0,0 L 5,-5 L -12.5,0 L 5,5 L 0,0 z "
         id="path2817" />
    </marker>
    <marker
       style="overflow:visible"
       id="Arrow1Lend"
       refX="0"
       refY="0"
       orient="auto"
       inkscape:stockid="Arrow1Lend">
      <path
         transform="scale(-0.8,-0.8)"
         style="fill-rule:evenodd;stroke:#000000;stroke-width:1pt;marker-start:none"
         d="M 0,0 L 5,-5 L -12.5,0 L 5,5 L 0,0 z "
         id="path2814" />
    </marker>
    <marker
       style="overflow:visible"
       id="Arrow1Mend"
       refX="0"
       refY="0"
       orient="auto"
       inkscape:stockid="Arrow1Mend">
      <path
         transform="scale(-0.4,-0.4)"
         style="fill-rule:evenodd;stroke:#000000;stroke-width:1pt;marker-start:none"
         d="M 0,0 L 5,-5 L -12.5,0 L 5,5 L 0,0 z "
         id="path2808" />
    </marker>
    <marker
       style="overflow:visible"
       id="Arrow1Mstart"
       refX="0"
       refY="0"
       orient="auto"
       inkscape:stockid="Arrow1Mstart">
      <path
         transform="scale(0.4,0.4)"
         style="fill-rule:evenodd;stroke:#000000;stroke-width:1pt;marker-start:none"
         d="M 0,0 L 5,-5 L -12.5,0 L 5,5 L 0,0 z "
         id="path2811" />
    </marker>
  </defs>
  <sodipodi:namedview
     id="base"
     pagecolor="#ffffff"
     bordercolor="#666666"
     borderopacity="1.0"
     gridtolerance="10000"
     guidetolerance="10"
     objecttolerance="10"
     inkscape:pageopacity="0.0"
     inkscape:pageshadow="2"
     inkscape:zoom="0.7"
     inkscape:cx="375"
     inkscape:cy="62.85714"
     inkscape:document-units="px"
     inkscape:current-layer="layer1"
     inkscape:window-width="1280"
     inkscape:window-height="748"
     inkscape:window-x="0"
     inkscape:window-y="0"
     showguides="true"
     inkscape:guide-bbox="true"
     height="275px"
     width="725px" />
  <metadata
     id="metadata7">
    <rdf:RDF>
      <cc:Work
         rdf:about="">
        <dc:format>image/svg+xml</dc:format>
        <dc:type
           rdf:resource="http://purl.org/dc/dcmitype/StillImage" />
      </cc:Work>
    </rdf:RDF>
  </metadata>
  <g
     inkscape:label="Layer 1"
     inkscape:groupmode="layer"
     id="layer1">
    <text
       xml:space="preserve"
       style="font-size:12px;font-style:normal;font-weight:normal;line-height:125%;fill:#000000;fill-opacity:1;stroke:none;stroke-width:1px;stroke-linecap:butt;stroke-linejoin:miter;stroke-opacity:1;font-family:Bitstream Vera Sans"
       x="230.28572"
       y="174.07646"
       id="text2160"
       sodipodi:linespacing="125%"
       inkscape:export-filename="/home/dmpop/miniInvoices.png"
       inkscape:export-xdpi="150"
       inkscape:export-ydpi="150"><tspan
         sodipodi:role="line"
         id="tspan2162"
         x="230.28572"
         y="174.07646"
         style="font-size:113px;font-family:Yanone Kaffeesatz"><tspan
           style="fill:#800080"
           id="tspan2164">mini</tspan><tspan
           id="tspan2188"
           style="fill:#d45500">Invoices</tspan></tspan></text>
    <g
       id="g2355"
       inkscape:label="Layer 1"
       transform="matrix(0.4567681,0,0,0.4567681,-31.124318,-91.318519)">
      <rect
         transform="matrix(0.9993207,3.6851968e-2,-3.6851968e-2,0.9993207,0,0)"
         y="393.39258"
         x="319.55591"
         height="204.05081"
         width="165.66501"
         id="rect2158"
         style="fill:#d7dad9;fill-opacity:1" />
      <path
         id="path2223"
         d="M 345.05267,643.02117 C 342.58846,642.78961 340.11346,642.23977 339.55267,641.7993 C 338.99188,641.35883 336.84555,640.69437 334.78305,640.32274 C 332.72055,639.9511 331.03305,639.19087 331.03305,638.63333 C 331.03305,638.07579 330.60286,637.8855 330.07707,638.21046 C 329.55128,638.53541 327.47132,638.11197 325.45494,637.26947 C 323.43857,636.42698 320.91907,635.73766 319.85606,635.73766 C 317.84893,635.73766 310.37697,632.77263 306.03305,630.25239 C 304.65805,629.45465 302.16575,628.07454 300.4946,627.18548 C 296.42104,625.01831 293.71444,620.84018 289.46997,610.16691 C 287.51696,605.25582 285.23767,599.75217 284.40488,597.93657 C 283.5721,596.12097 282.63427,592.97097 282.32082,590.93657 C 282.00737,588.90217 281.1336,586.01131 280.37911,584.51244 C 278.59429,580.96669 274.98316,565.73471 275.19363,562.63972 C 275.52355,557.78814 273.82817,546.14519 272.32914,542.96797 C 270.10368,538.25108 266.58404,536.1917 257.5759,534.33569 C 253.19947,533.43398 248.60156,532.02973 247.35831,531.21512 C 246.11507,530.40052 242.81289,528.83337 240.02013,527.73257 C 237.22737,526.63177 234.05519,524.90456 232.97084,523.89433 C 231.88649,522.8841 229.76939,521.42874 228.26617,520.66019 C 221.09958,516.99614 213.30114,510.80237 208.32335,504.82099 C 205.31005,501.20016 202.60292,497.64662 202.30751,496.92423 C 202.0121,496.20185 199.89965,492.82104 197.61318,489.41132 C 191.28731,479.97779 189.68574,473.7376 190.34499,461.09227 C 190.71343,454.02494 191.40435,449.81993 192.46247,448.20504 C 193.32629,446.88668 194.03305,445.13285 194.03305,444.30764 C 194.03305,442.37567 199.84061,435.73766 201.53089,435.73766 C 202.24075,435.73766 204.1865,434.4626 205.85477,432.90419 C 207.52305,431.34579 211.50814,429.00255 214.71053,427.697 C 219.99228,425.54374 222.31628,425.28904 239.73315,424.95464 L 258.93325,424.58599 L 259.59477,420.17463 C 259.95861,417.74839 259.93682,414.52001 259.54635,413.00047 C 258.40512,408.55932 258.96721,394.06871 260.49942,388.43038 C 263.34537,377.95761 264.10688,376.15549 268.18772,370.23608 C 272.11615,364.53775 280.20299,358.01035 287.03305,355.02484 C 293.86363,352.03911 308.58959,347.67586 316.57838,346.27067 C 321.50345,345.40438 329.38464,344.00018 334.09214,343.15024 C 338.79964,342.3003 346.40276,341.39577 350.98796,341.14017 C 355.57316,340.88457 359.64379,340.47824 360.03379,340.2372 C 360.4238,339.99617 373.97068,340.46995 390.13797,341.29006 C 418.26983,342.71708 433.28613,344.57057 451.50667,348.86489 C 457.35977,350.24439 478.82964,359.27956 481.11179,361.32362 C 481.9801,362.10134 483.1051,362.74686 483.61179,362.75811 C 485.83595,362.80748 498.81324,373.68497 501.5915,377.8286 C 507.11279,386.06331 508.54992,392.48347 508.39844,408.23766 C 508.29992,418.48466 507.73122,424.38223 506.27699,430.23766 C 505.18422,434.63766 503.80056,441.83766 503.20219,446.23766 C 500.37994,466.99059 499.69197,471.03762 497.90345,477.40796 C 496.84882,481.16429 495.48934,486.71266 494.88236,489.73766 C 494.27539,492.76266 493.41988,496.13766 492.98124,497.23766 C 492.54259,498.33766 491.96024,500.36266 491.68712,501.73766 C 491.414,503.11266 490.2551,507.78214 489.11179,512.11429 C 487.96849,516.44644 487.03305,520.57964 487.03305,521.29919 C 487.03305,522.01874 486.51038,523.87426 485.87157,525.42256 C 485.23275,526.97087 484.79235,528.60394 484.89289,529.05162 C 484.99343,529.4993 484.54759,531.7493 483.90213,534.05162 C 482.61436,538.64503 481.37717,544.54751 480.09022,552.23766 C 477.80828,565.87335 475.78271,575.33518 474.6476,577.66121 C 473.95608,579.07826 472.13281,584.96266 470.5959,590.73766 C 469.05899,596.51266 467.4129,602.13766 466.93792,603.23766 C 466.46294,604.33766 465.64373,606.42898 465.11745,607.88504 C 462.12969,616.15131 455.25247,621.88077 436.03305,632.11545 C 421.85015,639.6681 372.42178,645.59302 345.05267,643.02117 z M 393.53305,619.32117 C 395.18305,619.09909 400.13305,618.44116 404.53305,617.85909 C 414.86419,616.4924 417.25897,615.74547 427.96001,610.55224 L 436.85052,606.23766 L 441.49761,592.27115 C 444.05351,584.58957 446.74918,576.93957 447.48799,575.27115 C 448.79996,572.30838 452.26436,555.21248 453.57386,545.23899 C 453.93483,542.48972 455.1142,537.98972 456.19468,535.23899 C 457.27516,532.48826 458.75989,526.86266 459.49409,522.73766 C 460.22829,518.61266 462.44991,509.45515 464.43102,502.38764 C 466.41214,495.32012 468.03305,488.92289 468.03305,488.17156 C 468.03305,487.42024 468.66116,485.32775 469.42884,483.52159 C 471.17313,479.41775 472.45689,473.01463 475.08485,455.31065 C 476.22186,447.65079 477.61181,440.52475 478.17362,439.475 C 478.73543,438.42525 478.97418,437.34545 478.70417,437.07545 C 478.43416,436.80544 479.02284,434.70648 480.01233,432.41109 C 481.00183,430.1157 482.12984,425.99359 482.51902,423.25083 C 482.9082,420.50808 483.85807,417.04293 484.62984,415.55049 C 486.69103,411.56458 486.37229,408.84935 483.70027,407.6319 C 481.30994,406.54279 478.75963,400.69707 477.59214,393.63108 C 476.69399,388.19523 470.41631,382.22998 461.24408,378.09664 C 450.07441,373.06318 449.86698,372.97762 446.03305,371.82238 C 431.06941,367.31351 380.02843,363.08797 362.12934,364.87624 C 345.52103,366.53554 318.58161,371.19662 316.53305,372.76534 C 315.98305,373.18652 313.53891,374.12327 311.10164,374.84702 C 306.9206,376.08859 300.1234,381.87861 300.06011,384.25247 C 300.04523,384.81061 299.19357,386.83561 298.16754,388.75247 C 295.03937,394.59661 293.84575,402.54288 294.03895,416.23766 C 294.23397,430.06099 294.29345,430.96525 295.42611,437.32561 C 295.8265,439.57398 296.29542,443.5276 296.46815,446.11143 C 296.76615,450.56902 296.57126,450.97585 292.65763,454.06568 C 283.21363,461.52176 273.85198,461.43335 266.59596,453.81957 C 264.98056,452.12452 262.92907,450.73766 262.03709,450.73766 C 261.14511,450.73766 259.5418,450.07697 258.47418,449.26946 C 257.05151,448.19341 253.63541,447.79277 245.68418,447.76946 C 230.13258,447.72387 227.24506,449.40759 225.15908,459.73766 C 221.68987,476.91764 229.42994,491.39147 248.9339,504.19623 C 258.58034,510.52933 260.56674,511.40769 271.03305,513.96817 C 277.35805,515.51553 283.43305,517.17626 284.53305,517.65868 C 285.63305,518.14111 287.94382,519.0644 289.6681,519.71045 C 294.23451,521.42137 299.3425,526.64526 300.93956,531.23766 C 301.70464,533.43766 303.02617,536.30473 303.8763,537.60893 C 305.45948,540.03772 305.76808,541.28398 306.50816,548.23766 C 306.94832,552.37336 308.27975,560.82154 310.13296,571.23766 C 310.72009,574.53766 311.78445,577.91266 312.49822,578.73766 C 313.21199,579.56266 314.57058,583.37586 315.51731,587.21143 C 318.01352,597.32456 320.80443,603.88031 323.8556,606.79783 C 325.3282,608.20592 326.98305,610.14079 327.53305,611.09755 C 328.15675,612.1825 331.91978,613.73491 337.53305,615.22298 C 342.48305,616.53521 348.78305,618.30265 351.53305,619.15063 C 355.51501,620.37848 359.99439,620.59391 373.53305,620.20867 C 382.88305,619.94261 391.88305,619.54324 393.53305,619.32117 z M 427.07004,533.80678 C 425.11292,530.14987 424.8034,519.96791 426.37999,511.1073 C 427.248,506.229 428.68981,497.96266 429.58403,492.73766 C 430.47824,487.51266 431.42032,482.11266 431.67754,480.73766 C 431.93476,479.36266 433.21835,475.98766 434.52995,473.23766 C 437.41477,467.18915 443.5961,462.96645 446.47923,465.07465 C 448.99668,466.91545 449.61427,476.74097 447.71516,484.73766 C 446.86614,488.31266 445.44553,495.28766 444.55824,500.23766 C 441.35372,518.11502 437.88444,529.88627 434.95738,532.81333 C 432.49834,535.27237 428.14768,535.82036 427.07004,533.80678 z M 324.03305,523.8601 C 324.03305,522.82745 323.35805,521.42235 322.53305,520.73766 C 321.70805,520.05297 321.03305,518.40704 321.03305,517.08003 C 321.03305,515.75303 320.39322,513.67063 319.61121,512.45248 C 318.82921,511.23433 317.6641,507.31266 317.02208,503.73766 C 316.38007,500.16266 315.25142,495.88766 314.51397,494.23766 C 312.8106,490.42647 310.65904,467.24823 311.56189,462.43562 C 312.19698,459.0503 316.22413,453.73766 318.15523,453.73766 C 319.55249,453.73766 323.79752,460.94676 324.92693,465.23766 C 325.85774,468.77405 326.85179,479.74622 328.7423,507.35131 C 329.3681,516.48932 327.70368,525.73766 325.43331,525.73766 C 324.66317,525.73766 324.03305,524.89276 324.03305,523.8601 z M 255.03305,493.12953 C 254.20805,492.98725 251.95805,492.61421 250.03305,492.30054 C 245.46261,491.55582 240.36754,486.69359 239.05681,481.82589 C 236.51661,472.39232 243.50651,465.09756 253.93581,466.29792 C 259.91255,466.98581 262.10595,467.71749 269.70125,471.55705 C 273.72742,473.59234 274.95857,474.77687 275.27276,476.91755 C 275.7627,480.25571 271.48394,487.56834 267.29587,490.55051 C 264.62038,492.45563 258.54018,493.73437 255.03305,493.12953 z M 414.03305,432.75388 C 412.65805,432.36031 409.2154,432.25398 406.38273,432.51759 C 403.55005,432.78121 397.70005,432.49519 393.38273,431.882 C 389.0654,431.2688 379.90805,430.31454 373.03305,429.76141 C 366.15805,429.20828 357.60805,427.84826 354.03305,426.73914 C 350.45805,425.63001 346.37997,424.5094 344.97064,424.24889 C 341.52944,423.61279 321.83615,414.96644 320.36425,413.44545 C 317.92976,410.92977 318.63443,405.2201 321.84004,401.48766 C 324.78248,398.06164 345.32665,399.72464 351.18742,403.86326 C 352.64732,404.89418 354.13451,405.73766 354.49228,405.73766 C 354.85006,405.73766 357.12768,406.64189 359.55367,407.74705 C 362.95485,409.29647 368.49345,410.11161 383.74881,411.30795 C 394.63014,412.16128 405.87255,413.21032 408.73195,413.63915 C 411.59134,414.06799 414.51634,414.03536 415.23195,413.56664 C 415.94755,413.09792 420.58305,412.77361 425.53305,412.84595 C 432.5201,412.94806 436.76966,412.36786 444.53305,410.25184 C 456.36493,407.0269 466.91953,406.59335 471.82625,409.13072 C 475.99582,411.28689 475.87217,413.18467 471.28305,417.46822 C 467.78153,420.73659 454.70285,427.73766 452.09874,427.73766 C 451.45798,427.73766 449.55059,428.45291 447.86008,429.32711 C 443.37014,431.64895 418.85069,434.13283 414.03305,432.75388 z "
         style="fill:#000000" />
      <path
         d="M 468.71078 401.82394 A 75.761444 16.162441 0 1 1  317.1879,401.82394 A 75.761444 16.162441 0 1 1  468.71078 401.82394 z"
         sodipodi:ry="16.162441"
         sodipodi:rx="75.761444"
         sodipodi:cy="401.82394"
         sodipodi:cx="392.94934"
         id="path2160"
         style="fill:#aa4400;fill-opacity:1"
         sodipodi:type="arc" />
    </g>
  </g>
</svg>
