<?xml version="1.0" encoding="UTF-8" standalone="no"?>
<!-- Created with Inkscape (http://www.inkscape.org/) -->
<svg
   xmlns:dc="http://purl.org/dc/elements/1.1/"
   xmlns:cc="http://creativecommons.org/ns#"
   xmlns:rdf="http://www.w3.org/1999/02/22-rdf-syntax-ns#"
   xmlns:svg="http://www.w3.org/2000/svg"
   xmlns="http://www.w3.org/2000/svg"
   xmlns:sodipodi="http://sodipodi.sourceforge.net/DTD/sodipodi-0.dtd"
   xmlns:inkscape="http://www.inkscape.org/namespaces/inkscape"
   width="551.91754"
   height="100.28958"
   id="svg2"
   sodipodi:version="0.32"
   inkscape:version="0.46"
   version="1.0"
   inkscape:export-filename="C:\Documents and Settings\Dmitri Popov\Skrivebord\miniInvoices.png"
   inkscape:export-xdpi="90"
   inkscape:export-ydpi="90"
   sodipodi:docname="miniInvoices.svg"
   inkscape:output_extension="org.inkscape.output.svg.inkscape">
  <defs
     id="defs4">
    <inkscape:perspective
       sodipodi:type="inkscape:persp3d"
       inkscape:vp_x="0 : 526.18109 : 1"
       inkscape:vp_y="0 : 1000 : 0"
       inkscape:vp_z="744.09448 : 526.18109 : 1"
       inkscape:persp3d-origin="372.04724 : 350.78739 : 1"
       id="perspective10" />
    <inkscape:perspective
       sodipodi:type="inkscape:persp3d"
       inkscape:vp_x="0 : 526.18109 : 1"
       inkscape:vp_y="0 : 1000 : 0"
       inkscape:vp_z="744.09448 : 526.18109 : 1"
       inkscape:persp3d-origin="372.04724 : 350.78739 : 1"
       id="perspective2447" />
    <inkscape:perspective
       id="perspective2460"
       inkscape:persp3d-origin="372.04724 : 350.78739 : 1"
       inkscape:vp_z="744.09448 : 526.18109 : 1"
       inkscape:vp_y="0 : 1000 : 0"
       inkscape:vp_x="0 : 526.18109 : 1"
       sodipodi:type="inkscape:persp3d" />
  </defs>
  <sodipodi:namedview
     id="base"
     pagecolor="#ffffff"
     bordercolor="#666666"
     borderopacity="1.0"
     gridtolerance="10000"
     guidetolerance="10"
     objecttolerance="10"
     inkscape:pageopacity="0.0"
     inkscape:pageshadow="2"
     inkscape:zoom="0.98994949"
     inkscape:cx="254.28677"
     inkscape:cy="35.126778"
     inkscape:document-units="px"
     inkscape:current-layer="layer1"
     showgrid="false"
     showguides="true"
     inkscape:guide-bbox="true"
     inkscape:window-width="1440"
     inkscape:window-height="844"
     inkscape:window-x="-4"
     inkscape:window-y="-4" />
  <metadata
     id="metadata7">
    <rdf:RDF>
      <cc:Work
         rdf:about="">
        <dc:format>image/svg+xml</dc:format>
        <dc:type
           rdf:resource="http://purl.org/dc/dcmitype/StillImage" />
      </cc:Work>
    </rdf:RDF>
  </metadata>
  <g
     inkscape:label="Layer 1"
     inkscape:groupmode="layer"
     id="layer1"
     transform="translate(-151.38104,-387.95713)">
    <text
       xml:space="preserve"
       style="font-size:72px;font-style:normal;font-variant:normal;font-weight:bold;font-stretch:normal;text-align:start;line-height:100%;writing-mode:lr-tb;text-anchor:start;fill:#000000;fill-opacity:1;stroke:none;stroke-width:1px;stroke-linecap:butt;stroke-linejoin:miter;stroke-opacity:1;font-family:FFF Tusj;-inkscape-font-specification:FFF Tusj Bold"
       x="242.85715"
       y="462.78162"
       id="text2383"
       sodipodi:linespacing="100%"><tspan
         sodipodi:role="line"
         id="tspan2385"
         x="242.85715"
         y="462.78162">miniInvoices</tspan></text>
    <g
       transform="matrix(0.3018798,0,0,0.3018798,77.706165,281.84562)"
       id="g2463"
       inkscape:label="Layer 1">
      <path
         id="path2453"
         d="M 287.50376,681.5493 C 284.39754,679.33125 283.35472,677.57378 281.11444,670.78136 C 279.64196,666.31686 277.44304,660.63909 276.22796,658.16409 C 275.01287,655.68909 271.42359,645.56409 268.25178,635.66409 C 265.07997,625.76409 258.53953,605.73909 253.71749,591.16409 C 248.89544,576.58909 244.64021,562.07802 244.26143,558.91727 C 243.46513,552.27265 245.04347,543.21599 247.53371,540.14068 C 248.48578,538.96493 255.54795,535.59392 263.7193,532.41478 C 279.26737,526.36564 285.15585,525.46124 288.32954,528.63493 C 289.92408,530.22947 289.93481,530.56896 288.46798,533.01379 C 287.25494,535.03562 284.66519,536.42652 277.54686,538.8793 C 259.6083,545.06044 259.85043,544.92975 259.11948,548.82603 C 257.8839,555.41222 259.59525,561.98171 273.83978,605.33423 C 289.51292,653.03464 288.27202,650.94151 290.63495,633.66409 C 291.23671,629.26409 291.72608,623.38548 291.72245,620.60051 C 291.71881,617.81554 292.39771,610.39054 293.2311,604.10051 C 294.06449,597.81048 295.42161,586.58909 296.24693,579.16409 C 297.07224,571.73909 298.15867,562.51409 298.66122,558.66409 C 299.16376,554.81409 300.31006,545.58909 301.20855,538.16409 C 302.83209,524.74744 304.87489,518.76676 309.00475,515.33928 C 311.47508,513.28908 346.96964,492.16409 347.94407,492.16409 C 348.45978,492.16409 357.28191,487.98327 367.54879,482.87337 C 377.81567,477.76348 388.57834,472.57597 391.46584,471.34557 L 396.71584,469.10849 L 396.73565,463.88629 C 396.7671,455.59497 398.60571,445.01319 400.77031,440.66549 C 401.86602,438.46472 404.8895,435.10218 407.48917,433.19318 C 412.16103,429.76251 426.71533,422.16409 428.61469,422.16409 C 429.15446,422.16409 438.78691,418.12044 450.02013,413.1782 C 479.93135,400.01826 488.01098,398.55672 492.89929,405.42172 C 494.99427,408.36385 495.08448,409.36004 494.86103,427.08488 C 494.7322,437.30344 494.2107,451.51409 493.70213,458.66409 C 492.87055,470.35515 491.82318,494.08595 490.2154,537.66409 C 489.91102,545.91409 489.30399,557.5686 488.86645,563.563 C 488.13123,573.63562 487.8734,574.6212 485.46561,576.563 C 478.50324,582.17789 473.06529,585.70822 465.01173,589.84169 C 451.77073,596.63762 436.60984,605.15211 433.04572,607.7941 C 431.30215,609.08655 427.25215,611.55985 424.04572,613.29031 C 414.34936,618.52327 406.53458,622.7483 400.21584,626.17385 C 396.91584,627.96286 390.61584,631.24296 386.21584,633.46297 C 378.99797,637.10473 356.94073,649.07806 354.05329,650.92177 C 353.41388,651.33004 349.81388,653.71245 346.05329,656.21601 C 340.28121,660.05868 331.62233,665.14871 315.21584,674.34348 C 313.56584,675.2682 310.19084,677.00941 307.71584,678.21283 C 294.48297,684.64709 292.33788,685.00119 287.50376,681.5493 z M 310.21584,660.29878 C 319.37538,655.30985 333.92933,646.76808 340.21584,642.69166 C 346.16126,638.83642 363.39637,629.35065 380.71584,620.40148 C 401.25484,609.78874 420.13897,599.42124 430.99396,592.79849 C 436.616,589.36843 445.71584,584.35914 451.21584,581.66674 C 456.71584,578.97434 463.97003,575.05629 467.33626,572.95997 C 472.65033,569.65064 473.53965,568.65545 474.0864,565.40628 C 474.43275,563.34808 475.39341,545.01409 476.22122,524.66409 C 477.04902,504.31409 478.16258,481.13909 478.6958,473.16409 C 479.22902,465.18909 479.97401,448.5853 480.35132,436.26678 L 481.03736,413.86947 L 478.6266,414.407 C 477.30068,414.70263 471.26584,417.1958 465.21584,419.94736 C 459.16584,422.69892 449.94084,426.80979 444.71584,429.08263 C 417.69791,440.83525 415.44471,442.72248 413.22347,455.45997 C 412.38597,460.26256 411.77594,466.18009 411.86785,468.61003 C 411.96668,471.22281 411.39467,473.97526 410.46797,475.34609 C 409.1208,477.33892 388.75991,488.07189 357.75619,503.13242 C 354.20338,504.85825 347.00338,508.97777 341.75619,512.28691 C 336.509,515.59604 329.77751,519.73465 326.79734,521.4838 C 319.03595,526.0392 317.78085,528.21326 316.24984,539.75389 C 315.52675,545.2045 314.42758,553.26409 313.80724,557.66409 C 313.18691,562.06409 311.78101,573.77647 310.68303,583.69159 C 309.58505,593.60672 308.46775,602.83172 308.20013,604.19159 C 307.93252,605.55147 307.05419,614.08909 306.24829,623.16409 C 305.44239,632.23909 304.09653,644.83909 303.2575,651.16409 C 301.4745,664.60505 301.50095,664.17163 302.46584,664.13778 C 302.87834,664.12331 306.36584,662.39576 310.21584,660.29878 z M 298.35338,502.86679 C 296.13827,500.9634 295.71584,499.77576 295.71584,495.4515 C 295.71584,485.03489 291.48115,458.17562 286.53332,437.20971 C 279.74042,408.42553 279.89659,410.16676 283.71762,405.81484 C 286.70423,402.41328 288.9973,401.4955 320.0606,391.2688 C 349.04675,381.72595 364.04507,376.42954 371.21584,373.20419 C 372.31584,372.70941 377.04084,370.65806 381.71584,368.64562 C 386.39084,366.63318 392.12344,364.12656 394.45494,363.07536 C 396.78645,362.02416 398.97701,361.16409 399.32286,361.16409 C 399.66872,361.16409 403.83612,359.42616 408.58376,357.30203 C 423.08854,350.81249 429.88213,349.91169 434.34012,353.88686 C 439.5466,358.52946 448.88785,377.94362 451.79515,390.16409 C 454.87176,403.09626 454.44951,405.9616 449.11058,408.38152 C 446.20715,409.69752 445.42839,409.73378 444.30013,408.60552 C 443.55972,407.86512 442.68795,407.52531 442.36287,407.8504 C 441.53747,408.67579 440.17036,404.76208 437.8048,394.8018 C 435.78392,386.29283 428.02057,368.08849 425.83732,366.73917 C 425.20589,366.34893 422.10775,367.22714 418.95256,368.69075 C 415.79736,370.15436 405.11584,374.64934 395.21584,378.6796 C 385.31584,382.70986 373.39084,387.65678 368.71584,389.67276 C 364.04084,391.68874 351.21584,396.27741 340.21584,399.86981 C 319.30163,406.7 298.75939,414.03919 297.44801,415.14959 C 297.02571,415.50717 298.01177,421.39422 299.63926,428.23192 C 304.08671,446.91729 306.54914,460.24919 308.21424,474.65796 C 310.12096,491.15752 310.14788,498.87491 308.30513,500.71766 C 307.52923,501.49355 306.74173,502.51679 306.55513,502.99152 C 306.36852,503.46626 305.04023,504.14233 303.60338,504.49391 C 301.69467,504.96095 300.28041,504.52263 298.35338,502.86679 z"
         style="fill:#000000" />
    </g>
  </g>
</svg>
