<?xml version="1.0" encoding="UTF-8" standalone="no"?>
<!-- Created with Inkscape (http://www.inkscape.org/) -->
<svg
   xmlns:dc="http://purl.org/dc/elements/1.1/"
   xmlns:cc="http://web.resource.org/cc/"
   xmlns:rdf="http://www.w3.org/1999/02/22-rdf-syntax-ns#"
   xmlns:svg="http://www.w3.org/2000/svg"
   xmlns="http://www.w3.org/2000/svg"
   xmlns:sodipodi="http://sodipodi.sourceforge.net/DTD/sodipodi-0.dtd"
   xmlns:inkscape="http://www.inkscape.org/namespaces/inkscape"
   width="744.09448819"
   height="1052.3622047"
   id="svg2"
   sodipodi:version="0.32"
   inkscape:version="0.45"
   sodipodi:docbase="C:\Documents and Settings\Dmitri Popov\Desktop"
   sodipodi:docname="WriterToolsLogo.svg"
   inkscape:output_extension="org.inkscape.output.svg.inkscape"
   sodipodi:modified="true">
  <defs
     id="defs4" />
  <sodipodi:namedview
     id="base"
     pagecolor="#ffffff"
     bordercolor="#666666"
     borderopacity="1.0"
     gridtolerance="10000"
     guidetolerance="10"
     objecttolerance="10"
     inkscape:pageopacity="0.0"
     inkscape:pageshadow="2"
     inkscape:zoom="0.49497475"
     inkscape:cx="375"
     inkscape:cy="596.86712"
     inkscape:document-units="px"
     inkscape:current-layer="layer1"
     inkscape:window-width="1440"
     inkscape:window-height="844"
     inkscape:window-x="0"
     inkscape:window-y="22" />
  <metadata
     id="metadata7">
    <rdf:RDF>
      <cc:Work
         rdf:about="">
        <dc:format>image/svg+xml</dc:format>
        <dc:type
           rdf:resource="http://purl.org/dc/dcmitype/StillImage" />
      </cc:Work>
    </rdf:RDF>
  </metadata>
  <g
     inkscape:label="Layer 1"
     inkscape:groupmode="layer"
     id="layer1">
    <path
       style="fill:#c7b1fd;fill-opacity:1"
       d="M 470.46954,732.78761 C 458.77722,747.77266 446.90392,763.9051 428.94269,771.68977 C 408.5289,773.64748 410.47613,804.6406 385.87009,794.9397 C 347.70367,785.42589 309.16629,777.23111 271.27351,766.4848 C 238.50169,760.83685 204.00966,753.13332 179.68692,728.5858 C 167.55305,718.24755 160.57752,703.4625 179.39434,697.57839 C 190.52839,692.41848 198.32736,689.70067 209.88838,690.21217 C 219.37801,690.83286 233.19365,690.95101 239.66154,691.52892 C 254.61415,695.42597 267.24186,694.72038 281.15462,699.63589 C 291.57236,702.84063 300.05425,702.94306 310.76211,706.74785 C 319.10596,706.41276 336.048,716.4223 324.70476,715.16916 C 294.51647,705.547 263.34135,697.82844 231.76176,694.32948 C 212.15425,694.31013 191.06775,692.80153 174.49687,705.47363 C 159.61083,711.64068 185.72928,725.71833 188.85696,733.41612 C 200.5818,738.28974 208.5956,748.64666 221.69161,750.6393 C 224.10867,752.79382 232.54856,755.42315 235.97748,756.32747 C 240.66383,758.37845 247.66496,759.93402 254.52966,760.29151 C 261.74207,762.20226 273.3457,762.17328 281.36444,765.68691 C 289.08515,767.57303 298.80707,770.11825 305.60995,772.73711 C 329.25228,777.99034 352.92678,782.52097 376.23375,789.3431 C 388.05775,791.7377 411.03772,797.5821 410.77008,778.68031 C 395.19951,781.94417 378.2212,773.14018 372.82576,758.20349 C 363.95793,745.20848 364.36735,728.02163 367.9727,713.25726 C 367.01422,707.28965 339.52895,697.69965 335.60243,712.63692 C 333.78461,718.54311 327.85652,737.85973 330.62418,718.86527 C 331.02895,689.62695 356.90197,708.92926 370.59015,704.25734 C 378.17986,686.3784 392.27713,670.55901 401.38014,652.88025 C 407.5926,643.05674 418.47297,626.63515 425.28708,613.70141 C 442.28284,588.08771 457.26029,560.87074 476.10138,536.29497 C 491.60587,522.24355 494.14077,510.42014 481.5261,492.1742 C 472.43069,470.27948 465.45516,446.21088 455.21485,425.60127 C 451.59908,410.17856 436.2768,394.09484 440.80923,377.89026 C 439.57241,355.75838 441.32456,333.53737 439.55395,311.44266 C 456.37681,320.57369 467.65633,339.73135 482.225,352.81497 C 496.74139,362.73345 500.88502,379.80935 507.07954,395.19404 C 514.3432,412.76006 523.44618,429.67505 529.26348,447.66817 C 534.98695,460.8985 542.17662,476.80321 547.0078,491.75615 C 557.26259,501.69726 575.94794,506.94362 581.5699,523.67692 C 592.82611,549.68289 571.96449,574.47949 558.49592,595.10584 C 533.49694,630.11424 510.9027,666.59595 489.90722,704.16672 C 483.53159,713.76129 477.18525,723.44777 470.46954,732.78761 z M 479.26605,713.7184 C 486.18427,703.67602 492.27575,693.77487 498.52895,682.74381 C 520.55723,641.36861 549.58946,604.33687 574.20514,564.5224 C 585.10761,546.73303 585.18685,522.4517 567.02046,509.24505 C 550.62621,493.7843 523.43062,496.51116 506.30478,509.52365 C 478.69437,526.99579 465.5495,558.57314 446.59502,583.95927 C 426.11335,617.4049 405.43332,650.74533 384.54233,683.95728 C 385.93845,694.83311 366.84584,707.68058 369.0534,725.09106 C 366.05668,745.37517 376.6026,770.2102 397.80225,775.41829 C 417.80884,777.63048 432.02101,767.03142 446.60947,755.10061 C 459.05897,742.75312 468.74201,727.44304 479.26605,713.7184 z M 484.95755,691.46113 C 485.86685,679.73446 502.33066,656.88712 513.4855,649.95491 C 503.88763,663.72828 494.4916,677.65805 484.95755,691.46113 z M 414.56622,748.18709 C 398.14787,768.34696 376.26178,728.67975 399.95119,722.24085 C 416.24477,712.47042 428.97118,737.18798 414.56622,748.18709 z M 416.70068,736.91328 C 421.29065,707.06111 373.30357,737.98269 400.98705,747.88257 C 408.41046,752.75212 414.86552,743.03486 416.70068,736.91328 z M 551.50464,546.21434 C 539.14821,554.98189 524.54569,547.68793 522.06297,535.52 C 517.75434,523.27446 531.53797,508.53709 542.60729,510.11936 C 552.11633,508.161 556.38144,523.69069 558.03635,527.39622 C 557.66755,537.69859 556.70472,539.97904 551.50465,546.21433 L 551.50464,546.21434 z M 554.82428,532.12462 C 561.62625,511.79307 529.84222,508.54497 527.17371,522.7102 C 517.82446,536.15857 529.64056,543.77771 541.03524,546.56969 C 547.69907,544.56233 554.56569,539.72171 554.82428,532.12462 z M 541.88724,510.52318 C 540.25022,511.18 542.65268,512.50109 541.88724,510.52318 z M 405.16595,674.15108 C 406.04477,661.61538 421.7189,648.04776 426.82691,634.33417 C 435.89816,618.18366 447.03853,602.9341 455.54899,587.50297 C 459.65411,577.64949 474.00773,565.08199 462.98151,581.79405 C 442.03921,611.5423 424.53279,643.45313 405.16595,674.15108 z M 448.11334,599.99556 C 446.92867,598.46705 450.28911,599.93228 448.11334,599.99556 z M 544.8963,494.31959 C 530.43085,452.7882 510.89156,413.17385 494.31713,372.49284 C 478.66142,352.72424 471.83426,375.90848 469.06271,388.29011 C 459.62364,373.07644 458.85628,403.69205 446.26501,390.4087 C 451.50941,406.95003 457.83076,423.57017 464.67743,439.0474 C 472.24547,458.28629 479.06166,479.11219 487.66138,498.29397 C 490.71847,511.23569 497.64274,517.50893 505.38512,506.39193 C 516.56729,499.46326 531.82102,495.09906 543.11597,495.99723 L 544.97931,495.67843 L 544.89629,494.31958 L 544.8963,494.31959 z M 520.09967,480.94163 C 511.9044,470.91146 523.48452,474.82078 520.09967,480.94163 z M 519.04098,474.69771 C 514.16454,471.85931 503.7205,445.74183 510.48368,456.31192 C 511.45434,458.38602 519.32501,468.73029 515.21009,466.99312 C 516.65321,468.3536 520.32187,471.43054 519.04098,474.69771 z M 516.92853,468.82014 C 515.26064,470.0501 517.47922,470.57962 516.92853,468.82014 z M 506.17279,451.42348 C 504.48899,445.28509 497.83998,434.44863 494.91652,425.86421 C 485.83163,415.01574 491.18831,406.58394 496.07703,423.1009 C 498.22235,427.44435 500.38942,432.7495 503.37033,438.12168 C 505.14941,441.69689 509.67733,451.90261 506.17279,451.42348 z M 505.83417,444.95491 C 504.05782,441.3872 505.72574,450.36907 505.83417,444.95491 z M 500.52954,436.95451 C 498.2061,437.32773 502.49286,438.53812 500.52954,436.95451 z M 494.90228,420.93227 C 493.02604,422.06518 495.14398,423.46936 494.90228,420.93227 z M 492.26138,459.31267 C 487.30939,457.3947 492.60438,455.0152 492.26138,459.31267 z M 491.36673,455.11903 C 486.15897,456.87685 488.64722,445.28726 487.38207,448.16281 C 490.97059,447.9511 489.40263,454.9949 491.36673,455.11903 z M 485.82202,445.43211 C 474.19205,440.47229 491.44593,446.23546 485.82202,445.43211 z M 483.93854,443.15587 C 480.84287,436.08366 488.69307,437.96585 483.93854,443.15587 z M 482.418,438.06944 C 481.06852,432.60669 485.26579,436.48667 482.418,438.06944 z M 482.52026,434.5702 C 476.82818,432.13143 483.70983,426.87837 482.52026,434.5702 z M 477.73514,427.69319 C 477.41339,423.6493 480.21792,426.74405 477.73514,427.69319 z M 477.01632,425.33382 C 475.7651,418.71758 480.32197,422.63841 477.01632,425.33382 z M 475.60544,421.87532 C 471.5562,416.91949 478.04418,416.89148 475.60544,421.87532 z M 473.40054,417.42992 C 469.62288,409.63331 476.66127,420.82422 473.40054,417.42992 z M 472.89505,413.74455 C 471.2131,412.30514 474.43317,413.91155 472.89505,413.74455 z M 469.93594,410.50673 C 470.03733,407.3216 472.72472,409.16156 469.93594,410.50673 z M 469.40167,408.8958 C 468.63619,406.91784 471.03869,408.23901 469.40167,408.8958 z M 474.85272,349.7513 C 468.6867,333.28846 450.13152,348.68812 444.05272,346.39198 C 445.2491,358.20934 438.98571,396.15988 457.92269,385.62925 C 461.83363,371.87267 473.16454,391.45026 470.82026,372.84246 C 470.45564,357.48004 498.12532,365.99626 478.30225,353.2391 L 474.85272,349.75129 L 474.85272,349.7513 z M 459.06042,333.71751 C 441.14195,311.90413 461.83119,341.53316 459.06042,333.71751 z M 450.2435,336.34331 C 446.32251,333.43956 452.3651,343.71492 450.2435,336.34331 z M 444.78897,340.63942 C 441.88754,338.45617 445.29746,345.10665 444.78897,340.63942 z M 301.85388,757.9626 C 290.41154,763.22843 275.68554,759.37261 266.34264,750.8738 C 269.58723,741.76565 297.04545,750.2023 305.43541,752.33528 C 305.57262,754.63375 303.64735,756.88284 301.85388,757.9626 z M 294.69397,754.10829 C 285.01455,750.84778 263.70318,752.86235 287.41326,755.84779 C 288.55448,756.91154 306.34604,755.12362 294.69397,754.10829 z M 277.72569,749.51332 C 275.47648,749.54504 278.49106,751.62855 277.72569,749.51332 z M 307.36633,717.5735 C 283.81537,709.01531 259.34655,704.6363 234.53746,702.23541 C 227.56714,699.48589 217.50829,701.78534 205.646,702.13535 C 196.49655,703.08211 170.96149,711.73443 185.68685,702.89773 C 195.27255,701.13275 196.46369,697.81614 205.74699,699.01816 C 207.59364,695.92502 224.10817,700.83142 219.35449,699.22333 C 224.78468,697.3205 232.39673,700.44371 238.6355,699.17329 C 244.23374,698.73556 245.31133,700.99377 251.26013,699.99585 C 260.57023,703.25864 271.60785,703.36895 279.03877,705.98866 C 287.91476,708.91436 306.50063,707.19389 308.54561,717.49017 L 308.01698,717.95506 L 307.36634,717.57351 L 307.36633,717.5735 z M 294.25854,710.54481 C 286.67785,706.09808 297.08621,713.60575 294.25854,710.54481 z M 282.81515,708.02339 C 281.31182,708.55575 283.01263,710.63143 282.81515,708.02339 z M 201.31503,698.80305 C 198.22831,700.03674 205.33715,698.52048 201.31503,698.80305 z "
       id="path2223"
       inkscape:export-xdpi="300"
       inkscape:export-ydpi="300"
       inkscape:export-filename="C:\Documents and Settings\Dmitri Popov\Desktop\text2160.png" />
    <rect
       style="fill:#c7b1fd;fill-opacity:1;stroke:none;stroke-width:7;stroke-miterlimit:4;stroke-dasharray:none;stroke-opacity:1"
       id="rect2158"
       width="519.21838"
       height="187.88837"
       x="116.67262"
       y="-0.19645691"
       inkscape:export-filename="C:\Documents and Settings\Dmitri Popov\Desktop\text2160.png"
       inkscape:export-xdpi="300"
       inkscape:export-ydpi="300" />
    <text
       xml:space="preserve"
       style="font-size:12px;font-style:normal;font-weight:normal;line-height:125%;fill:#000000;fill-opacity:1;stroke:none;stroke-width:1px;stroke-linecap:butt;stroke-linejoin:miter;stroke-opacity:1;font-family:Bitstream Vera Sans"
       x="135.82088"
       y="173.2655"
       id="text2160"
       sodipodi:linespacing="125%"
       inkscape:export-xdpi="300"
       inkscape:export-ydpi="300"><tspan
         sodipodi:role="line"
         id="tspan2162"
         x="135.82088"
         y="173.2655"
         style="font-size:32px;font-style:normal;font-variant:normal;font-weight:normal;font-stretch:normal;text-align:start;line-height:125%;writing-mode:lr-tb;text-anchor:start;fill:#fffcfc;fill-opacity:1;font-family:Bitstream Vera Sans">WRITER'S TOOLS USER GUIDE</tspan></text>
    <rect
       style="fill:#c7b1fd;fill-opacity:1;stroke:none;stroke-width:7;stroke-miterlimit:4;stroke-dasharray:none;stroke-opacity:1"
       id="rect2163"
       width="519.21838"
       height="54.548233"
       x="116.67262"
       y="998.8241"
       inkscape:export-filename="C:\Documents and Settings\Dmitri Popov\Desktop\text2160.png"
       inkscape:export-xdpi="300"
       inkscape:export-ydpi="300" />
  </g>
</svg>
